<svg width="32" height="31" viewBox="0 0 32 31" fill="none" xmlns="http://www.w3.org/2000/svg">
<path d="M20.6897 11.0519H12.1802V19.5699H20.6897V11.0519Z" fill="#1976D2"/>
<path d="M13.9053 16.8956L15.5356 13.263H16.1983L17.8339 16.8956H17.1239L15.725 13.6211H15.9932L14.589 16.8956H13.9053ZM14.6573 16.0585L14.8467 15.532H16.7979L16.9767 16.0585H14.6573Z" fill="white"/>
<path d="M18.302 16.8956V13.263H18.9752V16.8956H18.302Z" fill="white"/>
<path d="M20.6897 20.3596H12.1802C11.7437 20.3596 11.3913 20.0068 11.3913 19.5699V11.0519C11.3913 10.6149 11.7437 10.2622 12.1802 10.2622H20.6897C21.1262 10.2622 21.4786 10.6149 21.4786 11.0519V19.5699C21.4786 20.0068 21.1262 20.3596 20.6897 20.3596ZM12.9691 18.7802H19.9008V11.8416H12.9691V18.7802Z" fill="#2C2C2C"/>
<path d="M13.9316 11.8574C13.4951 11.8574 13.1427 11.5047 13.1427 11.0677V6.55069L9.70314 3.91315C9.35603 3.64992 9.2929 3.14987 9.55587 2.80767C9.81883 2.46021 10.3185 2.39702 10.6603 2.66025L14.4102 5.53467C14.6047 5.68208 14.7205 5.91369 14.7205 6.16112V11.073C14.7205 11.4994 14.3681 11.8574 13.9316 11.8574Z" fill="#2C2C2C"/>
<path d="M10.4973 2.7971C10.2869 3.54467 9.5138 3.97628 8.76699 3.7657C8.02017 3.55512 7.58893 2.77607 7.7993 2.03377C8.00967 1.29147 8.78277 0.854466 9.52958 1.06505C10.2764 1.27563 10.7077 2.0548 10.4973 2.7971Z" fill="#FFD740"/>
<path d="M9.6558 2.54441C9.16669 2.40753 8.87742 1.89152 9.01942 1.40192C9.06149 1.24398 9.15091 1.11236 9.25609 1.00181C8.60394 0.949162 7.98337 1.36515 7.7993 2.01796C7.58893 2.76552 8.02017 3.53943 8.76698 3.75001C9.5138 3.9606 10.2869 3.52886 10.4973 2.78129C10.5394 2.62862 10.5499 2.47062 10.5446 2.31794C10.3132 2.53905 9.98187 2.63917 9.6558 2.54441Z" fill="#E6C23A"/>
<path d="M9.14564 4.60815C8.94579 4.60815 8.7512 4.58188 8.55135 4.52397C7.38905 4.1923 6.71061 2.98138 7.04194 1.81792C7.37327 0.654454 8.58288 -0.024606 9.74518 0.30706C10.3079 0.464997 10.776 0.838769 11.06 1.34943C11.344 1.86009 11.4124 2.45494 11.2546 3.01825C10.9811 3.9764 10.1028 4.60815 9.14564 4.60815ZM9.14564 1.80211C8.87742 1.80211 8.63024 1.98116 8.55661 2.24965C8.4672 2.57605 8.65653 2.91295 8.97734 3.00771C9.30342 3.09721 9.64001 2.90766 9.73468 2.58652C9.77675 2.42859 9.76096 2.26544 9.68207 2.11803C9.60318 1.97589 9.47172 1.87057 9.31394 1.82846C9.25609 1.81266 9.2035 1.80211 9.14564 1.80211Z" fill="#2C2C2C"/>
<path d="M18.9331 11.8574C18.4966 11.8574 18.1442 11.5047 18.1442 11.0677V6.15584C18.1442 5.90841 18.2599 5.6768 18.4545 5.52939L22.2044 2.65497C22.5462 2.39174 23.0459 2.45493 23.3088 2.80239C23.5718 3.14985 23.5087 3.64464 23.1615 3.90787L19.722 6.54541V11.0624C19.722 11.4994 19.3696 11.8574 18.9331 11.8574Z" fill="#2C2C2C"/>
<path d="M23.3667 1.05986C22.6199 1.25465 22.1676 2.02327 22.3622 2.77084C22.5568 3.5184 23.3246 3.97111 24.0714 3.77632C24.8182 3.58153 25.2705 2.81291 25.0759 2.06534C24.8813 1.31251 24.1187 0.86507 23.3667 1.05986Z" fill="#FFD740"/>
<path d="M23.6033 1.90221C23.7348 2.39708 24.2397 2.6919 24.7341 2.56555C24.8918 2.52343 25.0286 2.4391 25.139 2.33381C25.1759 2.98662 24.7499 3.59729 24.0924 3.77102C23.3456 3.96581 22.5778 3.51837 22.3832 2.76554C22.1886 2.01798 22.6356 1.24935 23.3877 1.05456C23.5455 1.01245 23.698 1.00715 23.8505 1.01768C23.6191 1.24405 23.5139 1.57581 23.6033 1.90221Z" fill="#E6C23A"/>
<path d="M23.719 4.60809C23.3351 4.60809 22.9565 4.50803 22.6146 4.30798C22.1097 4.01316 21.7521 3.5342 21.6048 2.97089C21.2998 1.80216 21.9993 0.601802 23.1721 0.296458C24.3396 -0.00888522 25.5388 0.696554 25.8438 1.86528C25.9911 2.43385 25.9122 3.02344 25.6124 3.52883C25.3179 4.03423 24.8445 4.39231 24.2765 4.54498C24.0924 4.5871 23.9031 4.60809 23.719 4.60809ZM23.5665 1.82313C23.2405 1.90736 23.0406 2.24438 23.13 2.57078C23.1721 2.72872 23.272 2.86031 23.414 2.94454C23.556 3.02877 23.719 3.04977 23.8768 3.00765C24.0346 2.96553 24.1661 2.86549 24.2502 2.72334C24.3344 2.5812 24.3554 2.41806 24.3133 2.26012C24.2292 1.93372 23.8926 1.73889 23.5665 1.82313Z" fill="#2C2C2C"/>
<path d="M17.8181 2.61811C17.6972 3.38147 16.9819 3.90792 16.2193 3.7921C15.4567 3.67101 14.9308 2.95501 15.0465 2.19165C15.1675 1.42303 15.8827 0.901851 16.6453 1.01767C17.4132 1.13349 17.9391 1.84949 17.8181 2.61811Z" fill="#FFD740"/>
<path d="M16.9556 2.47067C16.4508 2.3917 16.1037 1.91789 16.1825 1.41249C16.2088 1.24929 16.2772 1.10724 16.3719 0.98616C15.7197 1.01248 15.1517 1.50209 15.0518 2.17068C14.9308 2.93931 15.4567 3.65518 16.2246 3.771C16.9925 3.88682 17.7077 3.36564 17.8234 2.59701C17.8497 2.43908 17.8392 2.2812 17.8129 2.1338C17.6078 2.38649 17.2922 2.52332 16.9556 2.47067Z" fill="#E6C23A"/>
<path d="M16.4402 4.59759C16.3298 4.59759 16.2141 4.58703 16.0984 4.57124C14.9045 4.38698 14.0841 3.26036 14.2681 2.06531C14.3576 1.48621 14.6678 0.975562 15.1412 0.633366C15.6145 0.285906 16.193 0.143763 16.7716 0.238525C17.3501 0.328023 17.8602 0.638713 18.2021 1.11252C18.5492 1.58633 18.6859 2.16535 18.5965 2.74445C18.5071 3.32355 18.1968 3.8342 17.7235 4.1764C17.3501 4.45015 16.8978 4.59759 16.4402 4.59759ZM16.435 1.7864C16.3035 1.7864 16.1825 1.82851 16.0721 1.90747C15.9406 2.00224 15.8512 2.14438 15.8301 2.30758C15.7775 2.64452 16.009 2.95504 16.3403 3.00768C16.5033 3.034 16.6664 2.99191 16.7978 2.89715C16.9293 2.80239 17.0187 2.66024 17.0398 2.49704C17.0661 2.33384 17.024 2.1707 16.9293 2.03909C16.8347 1.90747 16.6874 1.81787 16.5296 1.79681C16.4981 1.79155 16.4665 1.7864 16.435 1.7864Z" fill="#2C2C2C"/>
<path d="M16.435 11.8416C15.9985 11.8416 15.6461 11.4889 15.6461 11.0519V4.16583C15.6461 3.72887 15.9985 3.37614 16.435 3.37614C16.8715 3.37614 17.2239 3.72887 17.2239 4.16583V11.0519C17.2239 11.4889 16.8715 11.8416 16.435 11.8416Z" fill="#2C2C2C"/>
<path d="M3.97579 22.3601C3.8075 22.3601 3.6392 22.3075 3.4972 22.1969C3.15009 21.9337 3.08698 21.4336 3.34994 21.0914L6.22149 17.3377C6.36875 17.1429 6.60018 17.0272 6.84736 17.0272H11.7542C12.1907 17.0272 12.5431 17.3799 12.5431 17.8169C12.5431 18.2538 12.1907 18.6066 11.7542 18.6066H7.24181L4.6069 22.0496C4.44912 22.2497 4.21246 22.3601 3.97579 22.3601Z" fill="#2C2C2C"/>
<path d="M4.5175 22.7024C4.46491 23.4762 3.79698 24.0606 3.02387 24.008C2.25076 23.9553 1.66698 23.2867 1.71957 22.5128C1.77216 21.7389 2.44009 21.1545 3.2132 21.2072C3.98105 21.2598 4.57009 21.9285 4.5175 22.7024Z" fill="#FFD740"/>
<path d="M3.64446 22.6286C3.13431 22.5918 2.75038 22.1549 2.78193 21.6442C2.79245 21.481 2.85031 21.3336 2.93446 21.202C2.28757 21.2862 1.7669 21.8179 1.71957 22.497C1.66698 23.2709 2.25076 23.9395 3.02387 23.9922C3.79698 24.0448 4.46491 23.4605 4.5175 22.6866C4.52802 22.5287 4.50698 22.3706 4.4649 22.2232C4.28609 22.4865 3.98105 22.6497 3.64446 22.6286Z" fill="#E6C23A"/>
<path d="M3.11853 24.7977C3.0712 24.7977 3.0186 24.7977 2.96601 24.7924C2.38223 24.7503 1.85105 24.487 1.46186 24.0448C1.07794 23.6026 0.888595 23.0392 0.92541 22.4549C0.967484 21.8705 1.23045 21.3389 1.67223 20.9493C2.11401 20.565 2.67149 20.3754 3.26052 20.4123C4.46489 20.4965 5.38002 21.5441 5.29587 22.7497C5.22224 23.9132 4.25979 24.7977 3.11853 24.7977ZM3.11326 21.9917C2.966 21.9917 2.82402 22.0443 2.71357 22.1443C2.59261 22.2496 2.51371 22.4023 2.50319 22.5655C2.49267 22.7287 2.54527 22.8866 2.65571 23.0129C2.7609 23.134 2.91342 23.2131 3.07646 23.2236C3.41831 23.2447 3.70757 22.9919 3.7286 22.655C3.74964 22.3181 3.49719 22.0233 3.1606 22.0022C3.14482 21.9917 3.12904 21.9917 3.11326 21.9917Z" fill="#2C2C2C"/>
<path d="M11.7542 13.6H6.84736C6.60018 13.6 6.36875 13.4841 6.22149 13.2893L3.34994 9.53577C3.08698 9.18831 3.15009 8.69339 3.4972 8.43016C3.83905 8.16693 4.33868 8.23012 4.60165 8.57758L7.23654 12.0206H11.749C12.1855 12.0206 12.5379 12.3733 12.5379 12.8103C12.5379 13.2473 12.1907 13.6 11.7542 13.6Z" fill="#2C2C2C"/>
<path d="M2.59788 6.71395C1.87736 6.99823 1.52499 7.81421 1.80899 8.53546C2.09299 9.2567 2.90817 9.60943 3.62869 9.32514C4.34921 9.04085 4.70158 8.22487 4.41758 7.50363C4.13358 6.78238 3.3184 6.4244 2.59788 6.71395Z" fill="#FFD740"/>
<path d="M2.93447 7.51941C3.1238 7.99322 3.66024 8.23012 4.13358 8.04059C4.2861 7.98268 4.41233 7.88264 4.507 7.76156C4.6227 8.40383 4.27558 9.06187 3.64447 9.31457C2.92395 9.59886 2.10877 9.24613 1.82477 8.52489C1.54077 7.80365 1.89314 6.98766 2.61366 6.70338C2.76092 6.64547 2.91869 6.61919 3.06595 6.61392C2.87662 6.86662 2.80825 7.20354 2.93447 7.51941Z" fill="#E6C23A"/>
<path d="M3.11327 10.2097C2.81875 10.2097 2.52423 10.1465 2.24023 10.0254C1.70379 9.79373 1.28831 9.36202 1.07268 8.81977C0.857048 8.27752 0.867577 7.67739 1.09898 7.14041C1.33039 6.60343 1.7564 6.18754 2.30336 5.9717C3.42884 5.52948 4.70157 6.08217 5.1486 7.20352C5.36423 7.74577 5.35372 8.34602 5.12231 8.88301C4.89091 9.41999 4.45964 9.83587 3.91794 10.0517C3.66024 10.157 3.38675 10.2097 3.11327 10.2097ZM3.11327 7.40364C3.03964 7.40364 2.96076 7.41947 2.88713 7.4458C2.73461 7.50371 2.61366 7.61946 2.55054 7.77213C2.48743 7.9248 2.48217 8.08795 2.54528 8.24062C2.60839 8.39329 2.71883 8.51445 2.87135 8.57762C3.01861 8.6408 3.18692 8.64607 3.33943 8.58289C3.49195 8.52498 3.61291 8.40384 3.67602 8.25643C3.73913 8.10376 3.74439 7.94061 3.68128 7.78794C3.59188 7.55104 3.36046 7.40364 3.11327 7.40364Z" fill="#2C2C2C"/>
<path d="M4.50171 15.3583C4.47541 16.1322 3.82852 16.7429 3.05541 16.7166C2.2823 16.6903 1.67222 16.0427 1.69851 15.2688C1.72481 14.495 2.3717 13.8842 3.14481 13.9105C3.92318 13.9369 4.528 14.5844 4.50171 15.3583Z" fill="#FFD740"/>
<path d="M3.62868 15.3162C3.11853 15.3004 2.71882 14.874 2.7346 14.358C2.73986 14.1948 2.79246 14.0421 2.87135 13.9105C2.22446 14.0158 1.72483 14.5686 1.70379 15.2477C1.6775 16.0216 2.28758 16.6692 3.06069 16.6955C3.8338 16.7218 4.48069 16.1112 4.50699 15.3373C4.51225 15.1741 4.48595 15.0214 4.43861 14.8792C4.26506 15.153 3.96528 15.3268 3.62868 15.3162Z" fill="#E6C23A"/>
<path d="M3.10274 17.5063C3.07645 17.5063 3.0554 17.5063 3.02911 17.5063C2.44533 17.4852 1.90363 17.243 1.50393 16.8113C1.10422 16.3849 0.893853 15.8268 0.91489 15.2425C0.935928 14.6581 1.17786 14.1159 1.60912 13.7158C2.03512 13.3157 2.58733 13.1051 3.18163 13.1261C4.386 13.1682 5.33793 14.1791 5.30111 15.3899C5.25378 16.5692 4.27556 17.5063 3.10274 17.5063ZM3.10274 14.7002C2.94497 14.7002 2.79771 14.7582 2.68201 14.8634C2.56105 14.974 2.49266 15.1267 2.4874 15.2899C2.48214 15.4531 2.54 15.6111 2.65044 15.7322C2.76088 15.8533 2.91342 15.9216 3.07645 15.9269C3.43408 15.9374 3.69704 15.6743 3.71282 15.3321C3.72334 14.9951 3.45511 14.7107 3.11852 14.7002C3.11326 14.7002 3.108 14.7002 3.10274 14.7002Z" fill="#2C2C2C"/>
<path d="M11.7437 16.1006H4.8646C4.42808 16.1006 4.07571 15.7479 4.07571 15.311C4.07571 14.874 4.42808 14.5213 4.8646 14.5213H11.7437C12.1802 14.5213 12.5326 14.874 12.5326 15.311C12.5326 15.7479 12.1802 16.1006 11.7437 16.1006Z" fill="#2C2C2C"/>
<path d="M25.5913 13.6H20.6845C20.2479 13.6 19.8956 13.2473 19.8956 12.8103C19.8956 12.3733 20.2479 12.0206 20.6845 12.0206H25.1969L27.8318 8.57758C28.0947 8.23012 28.5944 8.16693 28.9362 8.43016C29.2833 8.69339 29.3464 9.19357 29.0835 9.53577L26.2119 13.2893C26.0699 13.4841 25.8385 13.6 25.5913 13.6Z" fill="#2C2C2C"/>
<path d="M30.6402 8.51439C30.3668 9.2409 29.5568 9.60418 28.8311 9.33042C28.1053 9.05666 27.7424 8.24595 28.0159 7.51945C28.2894 6.79294 29.0993 6.42966 29.8251 6.70341C30.5508 6.97717 30.9137 7.78788 30.6402 8.51439Z" fill="#FFD740"/>
<path d="M29.8251 8.188C29.3465 8.00901 29.1045 7.47202 29.2886 6.99294C29.3465 6.84027 29.4464 6.71394 29.5621 6.61391C28.9152 6.50862 28.263 6.86657 28.0211 7.49832C27.7476 8.22482 28.1106 9.03553 28.8363 9.30929C29.5621 9.58305 30.372 9.2199 30.6455 8.49339C30.7034 8.34072 30.7244 8.18798 30.7296 8.03531C30.4825 8.24063 30.1459 8.30909 29.8251 8.188Z" fill="#E6C23A"/>
<path d="M29.3254 10.2096C29.0677 10.2096 28.8047 10.1622 28.5523 10.0675C28.0053 9.86214 27.5688 9.45141 27.3321 8.91443C27.0902 8.38271 27.0745 7.78258 27.2796 7.23507C27.4847 6.68756 27.8949 6.25583 28.4261 6.01366C28.9573 5.77149 29.5568 5.75577 30.1038 5.96109C31.2345 6.38752 31.8025 7.65621 31.3765 8.78808C31.0452 9.66726 30.2142 10.2096 29.3254 10.2096ZM29.3307 7.40357C29.2465 7.40357 29.1571 7.41929 29.0782 7.45614C28.931 7.52458 28.8153 7.64574 28.7574 7.79841C28.6996 7.95108 28.7048 8.11949 28.7732 8.2669C28.8416 8.41431 28.9625 8.53018 29.115 8.58809C29.4306 8.70918 29.7882 8.54601 29.9039 8.23014C30.0249 7.91427 29.8619 7.55628 29.5463 7.44046C29.4779 7.41413 29.4043 7.40357 29.3307 7.40357Z" fill="#2C2C2C"/>
<path d="M28.4682 22.3601C28.2315 22.3601 27.9948 22.2549 27.8423 22.0496L25.2074 18.6066H20.695C20.2584 18.6066 19.9061 18.2538 19.9061 17.8169C19.9061 17.3799 20.2584 17.0272 20.695 17.0272H25.6019C25.849 17.0272 26.0804 17.1429 26.2277 17.3377L29.0993 21.0914C29.3622 21.4389 29.2991 21.9337 28.952 22.1969C28.8047 22.3075 28.6365 22.3601 28.4682 22.3601Z" fill="#2C2C2C"/>
<path d="M29.3307 21.202C28.5576 21.202 27.9264 21.8284 27.9264 22.6075C27.9264 23.3867 28.5523 24.0133 29.3307 24.0133C30.109 24.0133 30.7349 23.3867 30.7349 22.6075C30.7349 21.8337 30.1038 21.202 29.3307 21.202Z" fill="#FFD740"/>
<path d="M29.3464 22.0811C29.3464 22.5917 29.7619 23.0077 30.2721 23.0077C30.4351 23.0077 30.5876 22.9603 30.7191 22.8866C30.5876 23.5289 30.0249 24.0133 29.3464 24.0133C28.5733 24.0133 27.9422 23.3867 27.9422 22.6075C27.9422 21.8337 28.5681 21.202 29.3464 21.202C29.5095 21.202 29.6567 21.2335 29.804 21.2861C29.5305 21.4493 29.3464 21.7389 29.3464 22.0811Z" fill="#E6C23A"/>
<path d="M29.3307 24.7977C28.121 24.7977 27.1375 23.8131 27.1375 22.6023C27.1375 21.3914 28.121 20.407 29.3307 20.407C29.9145 20.407 30.4667 20.6334 30.8821 21.0493C31.2976 21.4652 31.5238 22.0126 31.5238 22.6023C31.5238 23.1866 31.2976 23.7395 30.8821 24.1554C30.4667 24.5713 29.9145 24.7977 29.3307 24.7977ZM29.3307 21.9916C28.9941 21.9916 28.7153 22.2653 28.7153 22.6075C28.7153 22.9445 28.9888 23.2236 29.3307 23.2236C29.4937 23.2236 29.6462 23.1604 29.7619 23.0445C29.8776 22.9287 29.9407 22.776 29.9407 22.6128C29.9407 22.4496 29.8776 22.297 29.7619 22.1759C29.6462 22.0549 29.4937 21.9916 29.3307 21.9916Z" fill="#2C2C2C"/>
<path d="M30.6402 15.8479C30.3457 16.5639 29.5252 16.9061 28.81 16.606C28.0947 16.3112 27.7529 15.4899 28.0527 14.7739C28.3472 14.058 29.1676 13.7158 29.8829 14.0159C30.5982 14.3107 30.9347 15.132 30.6402 15.8479Z" fill="#FFD740"/>
<path d="M29.8356 15.5003C29.3622 15.3056 29.1413 14.7634 29.3359 14.2896C29.399 14.1369 29.499 14.0157 29.62 13.921C28.9783 13.7946 28.3156 14.1316 28.0527 14.7634C27.7582 15.4793 28.0947 16.3006 28.81 16.5954C29.5253 16.8902 30.3457 16.5533 30.6403 15.8374C30.7034 15.6899 30.7297 15.5372 30.7402 15.3845C30.493 15.5741 30.1511 15.632 29.8356 15.5003Z" fill="#E6C23A"/>
<path d="M29.3412 17.5062C29.0624 17.5062 28.7785 17.4535 28.505 17.3377C27.9633 17.1113 27.5425 16.6902 27.3216 16.1532C27.0955 15.611 27.0955 15.0161 27.3216 14.4738C27.5478 13.9316 27.9685 13.5104 28.505 13.2893C29.0467 13.0629 29.641 13.0629 30.1827 13.2893C30.7244 13.5157 31.1451 13.9369 31.366 14.4738C31.5922 15.0161 31.5922 15.611 31.366 16.1532C31.0189 16.9955 30.2037 17.5062 29.3412 17.5062ZM29.3465 14.6949C29.2676 14.6949 29.1887 14.7108 29.1098 14.7423C28.9573 14.8055 28.8416 14.9214 28.7784 15.0741C28.7153 15.2267 28.7153 15.3899 28.7784 15.5426C28.8416 15.6952 28.9573 15.811 29.1098 15.8742C29.4201 16.0058 29.783 15.8532 29.9092 15.5426C29.9723 15.3899 29.9723 15.2267 29.9092 15.0741C29.8461 14.9214 29.7304 14.8055 29.5779 14.7423C29.5042 14.7108 29.4253 14.6949 29.3465 14.6949Z" fill="#2C2C2C"/>
<path d="M27.5794 16.1006H20.7002C20.2637 16.1006 19.9113 15.7479 19.9113 15.311C19.9113 14.874 20.2637 14.5213 20.7002 14.5213H27.5794C28.0159 14.5213 28.3682 14.874 28.3682 15.311C28.3682 15.7479 28.0159 16.1006 27.5794 16.1006Z" fill="#2C2C2C"/>
<path d="M22.683 28.1459C22.5147 28.1459 22.3464 28.0932 22.2044 27.9826L18.4545 25.1082C18.2599 24.9608 18.1442 24.7292 18.1442 24.4818V19.5699C18.1442 19.1329 18.4966 18.7802 18.9331 18.7802C19.3696 18.7802 19.722 19.1329 19.722 19.5699V24.0869L23.1615 26.7245C23.5087 26.9877 23.5718 27.4879 23.3088 27.8301C23.1563 28.0406 22.9196 28.1459 22.683 28.1459Z" fill="#2C2C2C"/>
<path d="M25.0812 28.5565C24.8971 29.3093 24.1346 29.7673 23.3825 29.5831C22.6304 29.3988 22.1728 28.6355 22.3569 27.8826C22.541 27.1298 23.3036 26.6718 24.0556 26.8561C24.8077 27.0403 25.2705 27.8037 25.0812 28.5565Z" fill="#FFD740"/>
<path d="M24.2345 28.3354C23.7401 28.2143 23.4351 27.7088 23.5613 27.214C23.5981 27.056 23.6822 26.9191 23.7874 26.8086C23.1353 26.777 22.5305 27.214 22.3674 27.872C22.1833 28.6249 22.6409 29.3829 23.393 29.5725C24.1451 29.7567 24.9024 29.2987 25.0917 28.5459C25.1286 28.388 25.1338 28.2354 25.1233 28.0827C24.8919 28.3091 24.5658 28.4143 24.2345 28.3354Z" fill="#E6C23A"/>
<path d="M23.7243 30.4149C23.5455 30.4149 23.3719 30.3938 23.1931 30.3517C22.0203 30.0621 21.3051 28.8725 21.5943 27.6985C21.8836 26.5245 23.0722 25.8085 24.245 26.098C25.4178 26.3876 26.1331 27.5774 25.8438 28.7514C25.7018 29.3199 25.3494 29.7989 24.8498 30.1043C24.508 30.3096 24.1188 30.4149 23.7243 30.4149ZM23.7191 27.6089C23.4456 27.6089 23.1931 27.7985 23.1248 28.0775C23.0459 28.4039 23.2457 28.7408 23.5718 28.8198C23.7296 28.8619 23.8979 28.8356 24.0346 28.7514C24.1766 28.6671 24.2713 28.5303 24.3134 28.3723C24.3922 28.0459 24.1924 27.7089 23.8663 27.63C23.819 27.6142 23.7717 27.6089 23.7191 27.6089Z" fill="#2C2C2C"/>
<path d="M10.1817 28.1459C9.94505 28.1459 9.70839 28.0407 9.55587 27.8353C9.2929 27.4879 9.35603 26.993 9.70314 26.7297L13.1427 24.0922V19.5752C13.1427 19.1382 13.4951 18.7855 13.9316 18.7855C14.3681 18.7855 14.7205 19.1382 14.7205 19.5752V24.487C14.7205 24.7345 14.6047 24.9661 14.4102 25.1135L10.6603 27.9879C10.5183 28.0932 10.35 28.1459 10.1817 28.1459Z" fill="#2C2C2C"/>
<path d="M8.73014 26.8824C7.98859 27.114 7.57836 27.8985 7.80451 28.6355C8.03591 29.3778 8.81956 29.7883 9.56111 29.562C10.3027 29.3303 10.7129 28.546 10.4867 27.809C10.2553 27.0667 9.4717 26.6508 8.73014 26.8824Z" fill="#FFD740"/>
<path d="M9.00364 27.7142C9.15616 28.2038 9.67158 28.4775 10.1607 28.3248C10.3185 28.2775 10.4499 28.188 10.5551 28.0774C10.6235 28.7302 10.2238 29.3566 9.57692 29.5619C8.83536 29.7936 8.05172 29.3778 7.82031 28.6355C7.5889 27.8932 8.00439 27.1087 8.74595 26.8771C8.89846 26.8297 9.05624 26.8139 9.20876 26.8191C8.99313 27.056 8.90372 27.3878 9.00364 27.7142Z" fill="#E6C23A"/>
<path d="M9.14564 30.415C8.79327 30.415 8.44616 30.3307 8.12534 30.1623C7.60993 29.8885 7.22599 29.4305 7.05243 28.8725C6.87888 28.3144 6.93675 27.7195 7.20497 27.1983C7.47845 26.6823 7.93598 26.2981 8.49346 26.1244C9.05094 25.9507 9.64526 26.0085 10.1607 26.277C10.6761 26.5507 11.06 27.0088 11.2335 27.5669C11.4071 28.1249 11.3493 28.7198 11.081 29.241C10.8076 29.7569 10.35 30.1412 9.79252 30.315C9.58215 30.3834 9.36127 30.415 9.14564 30.415ZM9.14564 27.6089C9.08253 27.6089 9.02466 27.6195 8.96154 27.6353C8.80377 27.6826 8.67754 27.788 8.59865 27.9354C8.51977 28.0828 8.50927 28.2459 8.5566 28.4039C8.60394 28.5618 8.70909 28.6883 8.85635 28.7672C9.00361 28.8462 9.16666 28.8566 9.32444 28.8093C9.48221 28.7619 9.60844 28.6565 9.68733 28.5091C9.76621 28.3617 9.77674 28.1986 9.72941 28.0406C9.68208 27.8827 9.57689 27.7564 9.42963 27.6774C9.34022 27.63 9.24556 27.6089 9.14564 27.6089Z" fill="#2C2C2C"/>
<path d="M17.7551 28.7092C17.4921 29.441 16.6874 29.8148 15.9616 29.5569C15.2306 29.2936 14.8572 28.4881 15.1149 27.7616C15.3779 27.0298 16.1825 26.6561 16.9083 26.9141C17.6393 27.1773 18.018 27.9827 17.7551 28.7092Z" fill="#FFD740"/>
<path d="M16.9346 28.3985C16.456 28.2248 16.2035 27.6931 16.3771 27.214C16.435 27.0613 16.5296 26.935 16.6453 26.8297C15.9984 26.7349 15.3515 27.1034 15.1201 27.7405C14.8572 28.4722 15.2358 29.2725 15.9669 29.5357C16.6979 29.799 17.4973 29.4199 17.7603 28.6934C17.8129 28.5407 17.8339 28.3881 17.8392 28.2354C17.592 28.4407 17.2554 28.5143 16.9346 28.3985Z" fill="#E6C23A"/>
<path d="M16.4297 30.4307C16.1825 30.4307 15.9354 30.3886 15.6882 30.2991C15.1359 30.099 14.6994 29.6988 14.447 29.1671C14.1998 28.6354 14.1682 28.0405 14.3681 27.4877C14.7783 26.3506 16.0353 25.7557 17.1713 26.1663C17.7235 26.3664 18.16 26.7666 18.4125 27.2983C18.6596 27.83 18.6912 28.4249 18.4913 28.9777C18.1758 29.8726 17.329 30.4307 16.4297 30.4307ZM16.435 27.6194C16.1825 27.6194 15.9458 27.7773 15.8564 28.0247C15.7986 28.1774 15.8091 28.3459 15.8775 28.4934C15.9459 28.6408 16.0721 28.7565 16.2246 28.8091C16.5454 28.925 16.8978 28.7565 17.0082 28.4407C17.0661 28.288 17.0556 28.1196 16.9872 27.9722C16.9188 27.8248 16.7926 27.7089 16.6401 27.6562C16.5717 27.6352 16.5033 27.6194 16.435 27.6194Z" fill="#2C2C2C"/>
<path d="M16.435 27.2562C15.9985 27.2562 15.6461 26.9035 15.6461 26.4665V19.5804C15.6461 19.1435 15.9985 18.7908 16.435 18.7908C16.8715 18.7908 17.2239 19.1435 17.2239 19.5804V26.4665C17.2239 26.9035 16.8715 27.2562 16.435 27.2562Z" fill="#2C2C2C"/>
<path d="M19.5064 14.9214C19.2171 14.9214 18.9804 14.6845 18.9804 14.3949V12.684H17.7971C17.5078 12.684 17.2712 12.447 17.2712 12.1575C17.2712 11.8679 17.5078 11.631 17.7971 11.631H19.5064C19.7956 11.631 20.0323 11.8679 20.0323 12.1575V14.3949C20.0323 14.6845 19.7956 14.9214 19.5064 14.9214Z" fill="#1976D2"/>
</svg>
