<svg width="82" height="50" viewBox="0 0 82 50" fill="none" xmlns="http://www.w3.org/2000/svg">
<path d="M64.77 22.54C63.53 22.54 62.51 21.55 62.48 20.31L62.44 18.81C62.4 17.54 63.4 16.4899 64.67 16.4499C65.98 16.4199 66.99 17.4099 67.03 18.6799L67.07 20.1799C67.11 21.4499 66.11 22.5 64.84 22.54C64.81 22.54 64.79 22.54 64.77 22.54Z" fill="#FFD2CB"/>
<path d="M10.7 41.1899C10.35 42.1799 9.27999 42.7001 8.28999 42.3501C7.29999 42.0001 6.77998 40.9299 7.12998 39.9399C7.47998 38.9499 8.54999 38.43 9.53999 38.78C10.52 39.13 11.04 40.2099 10.7 41.1899Z" fill="#383838"/>
<path d="M11.33 33.6599C7.51001 32.3199 3.33001 34.3299 2.00001 38.1499C0.67001 41.9699 2.67001 46.15 6.49001 47.48C10.31 48.81 14.49 46.81 15.82 42.99C17.15 39.17 15.15 34.9899 11.33 33.6599ZM6.96001 46.1599C3.87001 45.0799 2.25001 41.7001 3.33001 38.6201C4.41001 35.5301 7.79001 33.91 10.87 34.99C13.96 36.07 15.58 39.45 14.5 42.53C13.42 45.61 10.04 47.2399 6.96001 46.1599Z" fill="#383838"/>
<path d="M8.92002 45.73C8.35002 45.73 7.77002 45.6299 7.21002 45.4399C4.52002 44.4999 3.10002 41.5501 4.05002 38.8601C4.99002 36.1701 7.94002 34.7599 10.63 35.6899C11.93 36.1499 12.98 37.0801 13.57 38.3201C14.16 39.5601 14.25 40.96 13.79 42.26C13.33 43.56 12.4 44.6099 11.16 45.1999C10.44 45.5599 9.68002 45.73 8.92002 45.73ZM8.92002 35.72C6.92002 35.72 5.04002 36.97 4.34002 38.97C3.46002 41.49 4.79002 44.2699 7.32002 45.1499C8.54002 45.5799 9.86002 45.4999 11.03 44.9399C12.2 44.3799 13.08 43.3999 13.5 42.1699C13.93 40.9499 13.85 39.63 13.29 38.46C12.73 37.29 11.75 36.41 10.52 35.99C9.99002 35.81 9.45002 35.72 8.92002 35.72Z" fill="#383838"/>
<path d="M12.8802 32.5363L10.634 31.7498L9.84742 33.9959L12.0937 34.7825L12.8802 32.5363Z" fill="#383838"/>
<path d="M6.13589 32.1711L3.99127 33.2034L5.02353 35.3481L7.16815 34.3159L6.13589 32.1711Z" fill="#383838"/>
<path d="M0.882292 36.6003L0.0957031 38.8466L2.34184 39.6331L3.12843 37.3869L0.882292 36.6003Z" fill="#383838"/>
<path d="M0.507651 43.3423L1.53986 45.4869L3.68459 44.4547L2.65238 42.3101L0.507651 43.3423Z" fill="#383838"/>
<path d="M4.94126 48.5972L7.1875 49.3838L7.97413 47.1374L5.72789 46.3508L4.94126 48.5972Z" fill="#383838"/>
<path d="M11.6886 48.9643L13.8333 47.9321L12.8011 45.7876L10.6565 46.8198L11.6886 48.9643Z" fill="#383838"/>
<path d="M16.9459 44.5309L17.7325 42.2847L15.4861 41.4981L14.6995 43.7443L16.9459 44.5309Z" fill="#383838"/>
<path d="M17.3105 37.7857L16.2783 35.6411L14.1337 36.6733L15.166 38.8179L17.3105 37.7857Z" fill="#383838"/>
<path d="M72.18 40.7801C72.06 41.8201 71.12 42.56 70.08 42.44C69.04 42.32 68.3 41.3801 68.42 40.3401C68.54 39.3001 69.48 38.56 70.52 38.68C71.56 38.8 72.3 39.7501 72.18 40.7801Z" fill="#383838"/>
<path d="M71.22 32.4899C66.76 31.9799 62.73 35.1798 62.22 39.6398C61.71 44.0998 64.91 48.1298 69.37 48.6398C73.83 49.1498 77.86 45.9499 78.37 41.4899C78.88 37.0299 75.68 32.9999 71.22 32.4899ZM69.55 47.1C65.94 46.69 63.36 43.43 63.77 39.82C64.18 36.21 67.44 33.63 71.05 34.04C74.66 34.45 77.24 37.71 76.83 41.32C76.41 44.92 73.15 47.51 69.55 47.1Z" fill="#383838"/>
<path d="M70.31 45.73C70.11 45.73 69.91 45.7199 69.71 45.6999C68.34 45.5399 67.11 44.86 66.26 43.78C65.4 42.7 65.02 41.35 65.17 39.98C65.49 37.15 68.06 35.1199 70.88 35.4399C73.71 35.7599 75.74 38.3299 75.42 41.1499C75.26 42.5199 74.58 43.7501 73.5 44.6001C72.59 45.3401 71.47 45.73 70.31 45.73ZM70.29 35.72C67.86 35.72 65.76 37.55 65.47 40.02C65.32 41.31 65.69 42.5701 66.49 43.5901C67.3 44.6001 68.45 45.2399 69.74 45.3899C71.03 45.5399 72.29 45.1701 73.31 44.3701C74.32 43.5601 74.96 42.4101 75.11 41.1201C75.41 38.4601 73.5 36.05 70.84 35.75C70.66 35.73 70.48 35.72 70.29 35.72Z" fill="#383838"/>
<path d="M72.5419 31.8756L70.1774 31.6047L69.9065 33.9694L72.271 34.2402L72.5419 31.8756Z" fill="#383838"/>
<path d="M65.637 32.8894L63.7734 34.3698L65.2537 36.2332L67.1173 34.7528L65.637 32.8894Z" fill="#383838"/>
<path d="M61.5996 38.3193L61.3287 40.6839L63.6931 40.9547L63.964 38.5902L61.5996 38.3193Z" fill="#383838"/>
<path d="M62.6253 45.2458L64.1057 47.1094L65.9694 45.6289L64.489 43.7654L62.6253 45.2458Z" fill="#383838"/>
<path d="M68.0537 49.2631L70.4182 49.5339L70.689 47.1695L68.3245 46.8987L68.0537 49.2631Z" fill="#383838"/>
<path d="M74.9852 48.2271L76.8487 46.7467L75.3683 44.883L73.5047 46.3634L74.9852 48.2271Z" fill="#383838"/>
<path d="M78.9958 42.8185L79.2666 40.4539L76.9022 40.1831L76.6313 42.5476L78.9958 42.8185Z" fill="#383838"/>
<path d="M77.9711 35.8914L76.4907 34.0278L74.6273 35.5081L76.1076 37.3717L77.9711 35.8914Z" fill="#383838"/>
<path d="M22.3801 33.8798C19.8401 34.4398 18.2401 36.9599 18.8001 39.4999C19.3601 42.0399 21.8801 43.64 24.4201 43.08C26.9601 42.52 28.5601 39.9998 28.0001 37.4598C27.4301 34.9198 24.9201 33.3198 22.3801 33.8798ZM24.0601 41.4699C22.4101 41.8399 20.7701 40.7898 20.4001 39.1398C20.0301 37.4898 21.0801 35.8499 22.7301 35.4799C24.3801 35.1099 26.0201 36.1599 26.3901 37.8099C26.7601 39.4699 25.7101 41.1099 24.0601 41.4699Z" fill="white"/>
<path d="M23.4 43.6298C21.04 43.6298 18.91 41.99 18.38 39.6C18.08 38.26 18.33 36.8799 19.06 35.7199C19.79 34.5599 20.94 33.7599 22.29 33.4599C23.63 33.1599 25.01 33.3998 26.17 34.1398C27.33 34.8798 28.13 36.02 28.43 37.37C28.73 38.71 28.48 40.0899 27.75 41.2499C27.02 42.4099 25.87 43.2099 24.52 43.5099C24.14 43.5899 23.76 43.6298 23.4 43.6298ZM23.4 34.1999C23.09 34.1999 22.78 34.23 22.47 34.3C21.35 34.55 20.4 35.2098 19.79 36.1798C19.18 37.1398 18.98 38.2898 19.22 39.3998C19.73 41.6998 22.01 43.1598 24.32 42.6498C25.44 42.3998 26.39 41.7399 27 40.7699C27.61 39.8099 27.8101 38.66 27.5701 37.55C27.3201 36.44 26.6601 35.48 25.6901 34.87C25.0001 34.43 24.21 34.1999 23.4 34.1999ZM23.4 41.9799C21.8 41.9799 20.3501 40.8699 19.9801 39.2399C19.5601 37.3599 20.76 35.48 22.64 35.06C24.53 34.64 26.4 35.8399 26.82 37.7199C27.24 39.6099 26.0401 41.4798 24.1601 41.8998C23.9001 41.9498 23.65 41.9799 23.4 41.9799ZM23.4 35.85C23.21 35.85 23.02 35.8698 22.83 35.9098C21.42 36.2198 20.52 37.63 20.83 39.05C21.14 40.47 22.56 41.36 23.96 41.05C25.38 40.74 26.27 39.3298 25.96 37.9098C25.69 36.6898 24.6 35.85 23.4 35.85Z" fill="white"/>
<path d="M23.4 41.9801C21.8 41.9801 20.35 40.8701 19.98 39.2401C19.56 37.3601 20.76 35.4802 22.64 35.0602C24.53 34.6402 26.4 35.8401 26.82 37.7201C27.24 39.6101 26.04 41.48 24.16 41.9C23.9 41.95 23.65 41.9801 23.4 41.9801ZM23.4 35.8502C23.21 35.8502 23.02 35.87 22.83 35.91C21.42 36.22 20.52 37.6302 20.83 39.0502C21.14 40.4702 22.56 41.3602 23.96 41.0502C25.38 40.7402 26.27 39.33 25.96 37.91C25.69 36.69 24.6 35.8502 23.4 35.8502Z" fill="white"/>
<path d="M22.8773 33.135L21.4519 33.4512L21.7682 34.8768L23.1936 34.5606L22.8773 33.135Z" fill="white"/>
<path d="M19.2255 34.811L18.4413 36.0425L19.6728 36.8267L20.457 35.5952L19.2255 34.811Z" fill="white"/>
<path d="M18.0417 38.9525L18.3579 40.3779L19.7833 40.0616L19.467 38.6362L18.0417 38.9525Z" fill="white"/>
<path d="M19.7369 42.6577L20.9684 43.4419L21.7526 42.2104L20.5211 41.4263L19.7369 42.6577Z" fill="white"/>
<path d="M23.9137 43.819L25.3391 43.5027L25.0228 42.0774L23.5974 42.3936L23.9137 43.819Z" fill="white"/>
<path d="M27.5623 42.1548L28.3464 40.9233L27.115 40.1392L26.3308 41.3707L27.5623 42.1548Z" fill="white"/>
<path d="M28.7492 38.0016L28.4329 36.5762L27.0076 36.8924L27.3238 38.3178L28.7492 38.0016Z" fill="white"/>
<path d="M27.0723 34.3164L25.8408 33.5322L25.0567 34.7637L26.2882 35.5479L27.0723 34.3164Z" fill="white"/>
<path d="M55.68 44.47L55.49 43.6299C54.93 43.6199 54.36 43.5301 53.83 43.3401L53.37 44.0701L51.41 42.8201L51.87 42.0901C51.47 41.6901 51.15 41.22 50.9 40.71L50.06 40.8999L49.56 38.6299L50.4 38.4399C50.41 37.8799 50.51 37.31 50.69 36.78L49.96 36.3201L51.21 34.3601L51.94 34.8201C52.34 34.4201 52.81 34.1001 53.32 33.8501L53.13 33.01L55.4 32.51L55.59 33.3501C56.15 33.3601 56.72 33.4499 57.25 33.6399L57.71 32.9099L59.67 34.1599L59.21 34.8899C59.61 35.2899 59.93 35.76 60.18 36.27L61.02 36.0801L61.52 38.3501L60.68 38.54C60.68 39.1 60.58 39.67 60.39 40.2L61.12 40.6599L59.87 42.6201L59.14 42.1599C58.74 42.5599 58.27 42.8799 57.76 43.1299L57.95 43.97L55.68 44.47ZM56.18 42.72L56.34 43.4299L56.91 43.3L56.75 42.5901L57.1 42.45C57.73 42.21 58.3 41.81 58.74 41.3L58.99 41.02L59.6 41.4099L59.92 40.9199L59.31 40.53L59.46 40.1899C59.73 39.5699 59.85 38.89 59.81 38.21L59.79 37.8401L60.5 37.6799L60.37 37.1101L59.66 37.27L59.52 36.9199C59.28 36.2899 58.88 35.72 58.37 35.28L58.09 35.03L58.48 34.4199L57.99 34.1101L57.6 34.72L57.26 34.5701C56.64 34.3001 55.96 34.18 55.28 34.22L54.91 34.24L54.75 33.53L54.18 33.6599L54.34 34.3701L53.99 34.51C53.36 34.75 52.79 35.1499 52.35 35.6599L52.1 35.9399L51.49 35.55L51.18 36.04L51.79 36.4299L51.64 36.77C51.37 37.39 51.25 38.07 51.29 38.75L51.31 39.1201L50.6 39.28L50.73 39.8501L51.44 39.6899L51.57 40.04C51.81 40.67 52.21 41.2399 52.72 41.6899L53 41.9399L52.61 42.55L53.1 42.8601L53.49 42.25L53.83 42.3999C54.45 42.6699 55.14 42.79 55.81 42.75L56.18 42.72ZM55.54 40.45C55.17 40.45 54.81 40.3399 54.49 40.1399C54.05 39.8599 53.74 39.4199 53.63 38.9099C53.39 37.8499 54.06 36.8001 55.12 36.5601C56.18 36.3301 57.23 37.0001 57.47 38.0601C57.71 39.1201 57.03 40.1699 55.97 40.4099C55.83 40.4299 55.69 40.45 55.54 40.45ZM55.55 37.3799C55.47 37.3799 55.39 37.3899 55.31 37.4099C54.72 37.5399 54.35 38.13 54.48 38.72C54.54 39.01 54.71 39.2499 54.96 39.4099C55.21 39.5699 55.5 39.6201 55.79 39.5601C56.38 39.4301 56.75 38.84 56.62 38.25C56.5 37.73 56.05 37.3799 55.55 37.3799Z" fill="white"/>
<path d="M55.54 40.2299C55.21 40.2299 54.89 40.1399 54.6 39.9599C54.21 39.7099 53.93 39.32 53.83 38.86C53.62 37.92 54.22 36.9799 55.16 36.7699C56.1 36.5599 57.04 37.16 57.25 38.1C57.46 39.04 56.86 39.9799 55.92 40.1899C55.8 40.2199 55.67 40.2299 55.54 40.2299ZM55.55 37.1598C55.46 37.1598 55.36 37.1699 55.26 37.1899C54.55 37.3499 54.11 38.0499 54.26 38.7599C54.34 39.0999 54.54 39.4 54.84 39.58C55.14 39.77 55.49 39.8299 55.83 39.7499C56.54 39.5899 56.99 38.8899 56.83 38.1799C56.69 37.5799 56.15 37.1598 55.55 37.1598Z" fill="white"/>
<path d="M39.42 34.48C37.35 34.48 35.67 36.16 35.67 38.23C35.67 40.3 37.35 41.98 39.42 41.98C41.49 41.98 43.17 40.3 43.17 38.23C43.17 36.16 41.49 34.48 39.42 34.48ZM39.42 40.6799C38.07 40.6799 36.98 39.59 36.98 38.24C36.98 36.89 38.07 35.8 39.42 35.8C40.77 35.8 41.86 36.89 41.86 38.24C41.86 39.59 40.76 40.6799 39.42 40.6799Z" fill="white"/>
<path d="M39.42 42.3301C37.16 42.3301 35.32 40.49 35.32 38.23C35.32 35.97 37.16 34.1299 39.42 34.1299C41.68 34.1299 43.52 35.97 43.52 38.23C43.52 40.49 41.68 42.3301 39.42 42.3301ZM39.42 34.8301C37.54 34.8301 36.02 36.36 36.02 38.23C36.02 40.1 37.55 41.6299 39.42 41.6299C41.29 41.6299 42.82 40.1 42.82 38.23C42.82 36.36 41.29 34.8301 39.42 34.8301ZM39.42 41.02C37.88 41.02 36.63 39.77 36.63 38.23C36.63 36.69 37.88 35.4399 39.42 35.4399C40.96 35.4399 42.21 36.69 42.21 38.23C42.21 39.77 40.95 41.02 39.42 41.02ZM39.42 36.1399C38.27 36.1399 37.33 37.08 37.33 38.23C37.33 39.38 38.27 40.3201 39.42 40.3201C40.58 40.3201 41.51 39.38 41.51 38.23C41.51 37.08 40.57 36.1399 39.42 36.1399Z" fill="white"/>
<path d="M39.42 41.02C37.88 41.02 36.63 39.77 36.63 38.23C36.63 36.69 37.88 35.4399 39.42 35.4399C40.96 35.4399 42.21 36.69 42.21 38.23C42.21 39.77 40.95 41.02 39.42 41.02ZM39.42 36.1399C38.27 36.1399 37.33 37.08 37.33 38.23C37.33 39.38 38.27 40.3201 39.42 40.3201C40.58 40.3201 41.51 39.38 41.51 38.23C41.51 37.08 40.57 36.1399 39.42 36.1399Z" fill="white"/>
<path d="M40 33.8999H38.84V35.0601H40V33.8999Z" fill="white"/>
<path d="M36.7392 34.7446L35.919 35.5649L36.7392 36.385L37.5594 35.5648L36.7392 34.7446Z" fill="white"/>
<path d="M35.0789 37.6594V38.8194H36.2391V37.6594H35.0789Z" fill="white"/>
<path d="M35.9285 40.9088L36.7487 41.729L37.5689 40.9089L36.7487 40.0886L35.9285 40.9088Z" fill="white"/>
<path d="M38.8316 42.5637H39.9916V41.4036H38.8316V42.5637Z" fill="white"/>
<path d="M42.086 41.7259L42.9062 40.9056L42.086 40.0855L41.2658 40.9057L42.086 41.7259Z" fill="white"/>
<path d="M43.7527 38.8182V37.6582H42.5925V38.8182H43.7527Z" fill="white"/>
<path d="M42.9095 35.5619L42.0893 34.7417L41.2691 35.5619L42.0893 36.3821L42.9095 35.5619Z" fill="white"/>
<path d="M36.19 29.8798C31.58 31.6598 29.28 36.8499 31.06 41.4599C32.84 46.0699 38.03 48.37 42.64 46.59C47.25 44.81 49.55 39.6199 47.77 35.0099C45.99 30.3899 40.8 28.0998 36.19 29.8798ZM41.51 43.6699C38.51 44.8299 35.13 43.33 33.97 40.33C32.81 37.33 34.3 33.95 37.31 32.79C40.31 31.63 43.69 33.1198 44.85 36.1298C46.01 39.1398 44.52 42.5099 41.51 43.6699Z" fill="#383838"/>
<path d="M37.0664 28.1167L34.4823 29.1145L35.4801 31.6986L38.0642 30.7009L37.0664 28.1167Z" fill="#383838"/>
<path d="M30.4365 32.873L29.3147 35.4057L31.8473 36.5275L32.9692 33.9949L30.4365 32.873Z" fill="#383838"/>
<path d="M31.9175 39.7061L29.3334 40.7038L30.3311 43.288L32.9153 42.2902L31.9175 39.7061Z" fill="#383838"/>
<path d="M35.0102 44.6706L33.8883 47.2033L36.4209 48.3251L37.5428 45.7925L35.0102 44.6706Z" fill="#383838"/>
<path d="M43.516 44.8276L40.9318 45.8254L41.9296 48.4095L44.5137 47.4118L43.516 44.8276Z" fill="#383838"/>
<path d="M46.822 40.1228L45.7002 42.6554L48.2328 43.7773L49.3547 41.2447L46.822 40.1228Z" fill="#383838"/>
<path d="M48.6351 33.2517L46.051 34.2495L47.0486 36.8334L49.6328 35.8356L48.6351 33.2517Z" fill="#383838"/>
<path d="M42.2558 28.3069L41.1339 30.8395L43.6665 31.9614L44.7884 29.4287L42.2558 28.3069Z" fill="#383838"/>
<path d="M38.36 28.5801H40.33L42.02 27.79" fill="#033100"/>
<path d="M43.41 30.75L41.06 31.8501H38.36V25.3H39.6C39.61 25.3 39.6 25.3499 39.67 25.4099C39.79 25.4499 39.92 25.5299 40.07 25.6399C40.36 25.8699 40.7 26.24 41.07 26.72C41.81 27.7 42.64 29.11 43.41 30.75Z" fill="#382517"/>
<path d="M25.15 21.96V23.8101L26.18 25.6699" fill="#033100"/>
<path d="M23.31 27.25L21.88 24.6499V21.96L28.43 21.95V22.96C28.42 22.96 28.41 22.97 28.4 22.98C28.39 23.01 28.39 23.0799 28.38 23.1399C28.35 23.2599 28.28 23.4101 28.18 23.5601C27.97 23.8701 27.63 24.2399 27.17 24.6399C26.25 25.4499 24.9 26.38 23.31 27.25Z" fill="#382517"/>
<path d="M41.87 16.19C41.6 16.19 41.32 16.1401 41.05 16.0401L39.75 15.5401C38.57 15.0901 37.98 13.7601 38.43 12.5801C38.88 11.4001 40.21 10.8101 41.39 11.2601L42.69 11.7601C43.87 12.2101 44.46 13.54 44.01 14.72C43.66 15.63 42.79 16.19 41.87 16.19Z" fill="#FFD2CB"/>
<path d="M28.57 20.3C27.33 20.3 26.31 19.31 26.28 18.07L26.24 16.57C26.2 15.3 27.2 14.2499 28.47 14.2099C29.74 14.1799 30.79 15.1699 30.83 16.4399L30.87 17.9399C30.91 19.2099 29.91 20.26 28.64 20.3C28.61 20.3 28.59 20.3 28.57 20.3Z" fill="#FFD2CB"/>
<path d="M35.11 2.65991L35.77 4.03003C35.93 4.36003 35.78 4.74989 35.45 4.88989L35.26 4.96997L35.11 2.65991Z" fill="#2AF556"/>
<path d="M40.84 14.3L37.04 12.6101L36.62 12.04L33.88 8.52002L35.44 7.38989L37.77 11.22L37.97 11.5L41.4 13.1001L40.84 14.3Z" fill="#008E03"/>
<path d="M24.75 18.47L26.13 18.0601L26.82 17.8501L27.16 17.75C27.2 17.73 27.21 17.72 27.24 17.7C27.43 17.57 27.57 17.4601 27.67 17.3501V17.3401C27.6 17.0301 27.5 16.8099 27.37 16.6499L27.32 16.6001C27.32 16.5901 27.31 16.6001 27.31 16.5801L27.33 16.49L27.36 16.3101L27.49 15.6001L27.74 14.1799L38.78 18.3101L37.8 19.46L37.31 20.03L37.19 20.1699L37.13 20.24L37.04 20.3799L36.69 20.9399C35.77 22.4099 34.91 23.7299 34.11 24.8799H34L26.34 26.4099L24.75 18.47Z" fill="#B2FBB5"/>
<path d="M34.82 28.4099L34.2 25.3899L33.89 23.8799L33.85 23.6899C33.84 23.6399 33.84 23.6499 33.83 23.6299L33.79 23.5601L33.71 23.4399L33.68 23.4199C33.61 23.3999 33.55 23.3801 33.49 23.3601C33.45 23.3301 33.46 23.4 33.37 23.29L33.1 22.99L32.04 21.78L29.92 19.3701L39.91 13.1201L40.7 16.3601L41.1 17.98L41.2 18.3899C41.23 18.5199 41.35 18.79 41.42 18.99L41.88 20.22L42.05 20.5L42.88 27.4399L34.82 28.4099Z" fill="#B2FBB5"/>
<path d="M30.71 7.59009L30.88 7.58008L35.4 7.30005L36.32 12.45L36.67 16.47L31.43 16.79L31.78 12.8401L31.2 10.21L30.64 7.70996L30.71 7.59009Z" fill="#97DD9E"/>
<path d="M30.71 7.59009L30.64 7.70996L28.38 11.78L27.95 12.51L27.81 16.9399L29.13 17.01L29.32 12.9399L29.58 12.51L31.2 10.21L32.4 8.5L30.88 7.58008L30.71 7.59009Z" fill="#97DD9E"/>
<path d="M34.28 7.30005L34.34 10.96L34.36 12.3799L33.23 9.5L32.41 7.40991L34.28 7.30005Z" fill="white"/>
<path d="M33.8063 2.24512L31.9399 2.36162L32.2676 7.61163L34.134 7.49513L33.8063 2.24512Z" fill="#FFD2CB"/>
<path d="M32.29 6.19995L32.04 2.22998L35.07 2.04004L35.13 2.96997C35.23 4.65997 33.96 6.09995 32.29 6.19995Z" fill="#FFD2CB"/>
<path d="M35.52 1.08008C35.56 1.78008 35.03 2.38993 34.33 2.42993C33.66 2.46993 33.15 3.04996 33.2 3.70996L33.25 4.51001C33.27 4.83001 33.03 5.10988 32.7 5.12988C32.38 5.14988 32.1 4.91008 32.08 4.58008L31.95 2.57007C31.91 1.87007 32.44 1.25997 33.14 1.21997L35.52 1.08008Z" fill="#382619"/>
<path d="M33.7142 7.44628L32.9257 7.4955L32.978 8.33375L33.7665 8.28453L33.7142 7.44628Z" fill="#382619"/>
<path d="M34.34 10.96L34.36 12.3799L33.23 9.5L33.27 8.19995L33.56 8.17993L34.34 10.96Z" fill="#382619"/>
<path d="M61.6099 15.3998C61.4399 15.3998 61.2699 15.38 61.0999 15.34L59.7599 14.9999C58.6699 14.7199 58.0099 13.6099 58.2899 12.5199C58.5699 11.4299 59.6799 10.7699 60.7699 11.0499L62.1099 11.3898C63.1999 11.6698 63.8599 12.78 63.5799 13.87C63.3499 14.78 62.5199 15.3998 61.6099 15.3998Z" fill="#FFD2CB"/>
<path d="M54.55 2.90991L54.97 3.72998C55.07 3.92998 54.99 4.16001 54.79 4.26001L54.67 4.31006L54.55 2.90991Z" fill="#2AF556"/>
<path d="M52.94 2.3999L51.52 2.57007L51.99 7.81006L53.41 7.63989L52.94 2.3999Z" fill="#FFD2CB"/>
<path d="M51.8699 6.53003L51.5099 2.57007L54.5399 2.30005L54.6199 3.22998C54.7799 4.89998 53.5499 6.38003 51.8699 6.53003Z" fill="#FFD2CB"/>
<path d="M51.41 2.58015C50.86 2.63015 50.38 2.23 50.33 1.68C50.28 1.13 50.68 0.650168 51.23 0.600168C51.78 0.550168 52.26 0.95007 52.31 1.50007C52.36 2.05007 51.95 2.53015 51.41 2.58015Z" fill="#382619"/>
<path d="M54.55 2.30005L53.27 3.20996C52.96 3.42996 52.76 3.77991 52.74 4.15991V4.16992C52.69 4.92992 52.37 5.64995 51.85 6.19995L51.39 2.34009L54.55 2.30005Z" fill="#382619"/>
<path d="M52.48 2.8501L54.34 2.36011C54.85 2.22011 54.89 1.51007 54.4 1.32007L50.67 2.34009L51.16 4.96997C51.25 5.43997 51.49 5.87996 51.84 6.20996L52.57 4.47998L52.48 2.8501Z" fill="#382619"/>
<path d="M54.3399 29.78L54.9199 29.95L55.4399 29.6699L57.77 33.99L55.4799 35.22L54.6399 34.98C54.3299 34.89 54.0499 34.6701 53.8599 34.3501C53.7499 34.1901 53.7 34.0201 53.71 33.8301C53.7 33.6401 53.7 33.43 53.71 33.21C53.75 32.3 53.9699 31.08 54.3399 29.78Z" fill="#382517"/>
<path d="M43.75 25.4299L46.26 24.8799L47.5 24.6599C47.88 24.5899 48.48 24.49 48.4 24.5L48.41 24.47L48.42 24.4399C48.42 24.4299 48.42 24.4299 48.42 24.4199L48.45 24.3401L48.57 24.04L48.81 23.4299L49.29 22.21L50.24 19.78L51.64 20.3701L50.5 22.72L49.93 23.8999L49.65 24.49L49.51 24.78L49.47 24.8501L49.41 24.97L49.3 25.21C49.23 25.38 49.08 25.49 48.9 25.52L43.85 26.21L43.75 25.4299Z" fill="#FFD2CB"/>
<path d="M53.8299 31.8601L53.9999 25.0701L54.0199 24.4299L53.3099 18.4099L54.8199 18.26L55.1399 23.8C55.1599 24.2 55.1599 24.61 55.1199 25.01L55.1099 25.1201L54.6499 31.9099L53.8299 31.8601Z" fill="#FFD2CB"/>
<path d="M50.8399 14.26L50.6399 14.6001C50.0099 15.6801 49.6799 16.8901 49.6799 18.1101V20.7L55.2799 20.3601L54.8199 14.8L50.8399 14.26Z" fill="#382619"/>
<path d="M47.1 19.4499C46.95 19.4499 46.8 19.4298 46.64 19.3998C45.54 19.1498 44.85 18.0599 45.11 16.9599L45.44 15.5099C45.69 14.4099 46.79 13.7199 47.88 13.9799C48.98 14.2299 49.67 15.3198 49.41 16.4198L49.08 17.87C48.87 18.81 48.03 19.4499 47.1 19.4499Z" fill="#FFD2CB"/>
<path d="M60.6199 13.6101L56.8699 12.6599L56.03 11.8401L52.58 8.57007L53.56 7.58008L56.75 11.1201L57.39 11.75L60.8699 12.6799L60.6199 13.6101Z" fill="#008E03"/>
<path d="M50.03 15.6201L50.96 12.8L50.47 10.05L50.14 8.17993L50.56 7.48999H52.43C53.72 7.48999 54.75 8.57011 54.68 9.86011L54.63 10.77V10.8501L54.54 12.46L54.52 12.8L54.95 15.6101H50.03V15.6201Z" fill="#97DD9E"/>
<path d="M51.87 8.15991L50.48 10.0601L49 12.0701L48.92 12.1899L47.82 16.5801L46.84 16.3401L47.93 11.76L48.11 11.48L50.14 8.18994L50.56 7.5H50.86L51.87 8.15991Z" fill="#97DD9E"/>
<path d="M53.6299 10.8601L53.5399 12.48L52.6299 9.63989L51.9399 7.5H53.4799L53.6099 10.3701L53.6299 10.8601Z" fill="white"/>
<path d="M53.27 7.5H52.48V8.34009H53.27V7.5Z" fill="#382619"/>
<path d="M53.64 10.5L53.63 10.78V10.8899V10.8601L53.54 12.48L52.63 9.63989L52.75 8.34009H53.04L53.61 10.3701L53.64 10.5Z" fill="#382619"/>
<path d="M40.78 28.5701L40.59 27.2L40.74 25.6201L40.93 23.6299L42.92 23.4199L43.55 23.3501L44.07 28.23L43.44 28.3L45.63 26.1001L45.53 27.1001C45.5 26.9701 45.01 27.49 44.16 27.78C43.31 28.08 42.12 28.3801 40.78 28.5701Z" fill="#382517"/>
<path d="M13.8 6.51001L14.71 7.1001C14.88 7.3501 14.57 8.15004 14.25 8.29004L14.06 8.37988L13.8 6.51001Z" fill="#2AF556"/>
<path d="M12.56 5.09009L10.71 5.3501L11.49 11.1101L13.34 10.8501L12.56 5.09009Z" fill="#FFD2CB"/>
<path d="M13.28 9.56006L11.3 9.84009L10.7 5.3501L13.93 4.90991L14.38 8.37012C14.47 8.93012 13.85 9.48006 13.28 9.56006Z" fill="#FFD2CB"/>
<path d="M21.5 17.15C21.47 17.15 21.44 17.15 21.42 17.15L20.03 17.1002C18.76 17.0502 17.77 15.9901 17.82 14.7201C17.87 13.4501 18.95 12.4601 20.2 12.5101L21.59 12.5602C22.86 12.6102 23.85 13.67 23.8 14.94C23.75 16.17 22.73 17.15 21.5 17.15Z" fill="#FFD2CB"/>
<path d="M6.04998 23.4599C5.98998 23.4599 5.91998 23.4599 5.85998 23.4499C4.59998 23.3499 3.65998 22.2399 3.75998 20.9699L3.87997 19.4799C3.98997 18.2199 5.09998 17.2799 6.35998 17.3799C7.61998 17.4799 8.55998 18.5901 8.45998 19.8601L8.33997 21.3501C8.23997 22.5501 7.22998 23.4599 6.04998 23.4599Z" fill="#FFD2CB"/>
<path d="M20.66 15.5701L16.52 15.2L16.14 14.9399L15.93 14.79L12.2 12.3501L13.31 10.78L16.75 13.6499L17.03 13.8401L20.8 14.25L20.66 15.5701Z" fill="#008E03"/>
<path d="M6.19 30.3201L8.35 27.99L9.43 26.8301L9.98 26.25L10.25 25.96L10.29 25.8999L10.3 25.8601V25.8401V25.8301V25.8201V25.8L10.33 25.6001L10.38 25.1899L10.5 24.3799L10.73 22.75L11.18 19.5L13.71 19.9399L12.91 23.1399L12.52 24.73L12.32 25.53L12.22 25.9299L12.17 26.1299L12.1 26.45L12.04 26.78L7.46 31.55L6.19 30.3201Z" fill="#0F5623"/>
<path d="M21.54 28.8101L20.08 25.8899L19.35 24.4299L18.99 23.7L18.82 23.3501L18.78 23.29L18.73 23.27L12.6 20.45L13.75 18.1499L16.7 19.8899L18.18 20.76L18.92 21.2L19.29 21.4199L19.48 21.53L19.52 21.55L19.58 21.5901L19.73 21.6699L20.19 21.8999L23.14 28.05L21.54 28.8101Z" fill="#0F5623"/>
<path d="M8.79999 11.77L9.52998 13.6899L10.57 16.4099L10.8 20.3799L11.07 20.3201L12.85 19.9399L13.23 19.8601L15.74 19.3301L15.94 19.29L15.01 15.3601L14.5 13.8601L13.53 10.96L13.35 10.3999L12.82 10.51L12.53 10.5701L12.04 10.6799L11.53 10.79H11.52L9.64999 11.1799L9.14999 11.29L8.79999 11.77Z" fill="#97DD9E"/>
<path d="M9.14996 11.29L8.79996 11.77L6.53996 14.96L6.02996 15.6399L5.39996 20.02L6.12996 20.1399L6.70996 20.23L7.34996 16.21L7.65997 15.8101L9.52996 13.6899L10.9 12.1399L9.64996 11.1799L9.14996 11.29Z" fill="#97DD9E"/>
<path d="M13.34 10.3999L13.94 14.02L14.17 15.4199L12.63 12.74L11.52 10.79L13.34 10.3999Z" fill="white"/>
<path d="M12.7505 10.5383L11.9777 10.702L12.1517 11.5236L12.9245 11.3599L12.7505 10.5383Z" fill="#382619"/>
<path d="M13.94 14.02L14.17 15.4199L12.63 12.74L12.48 11.4399L12.76 11.3799L13.94 14.02Z" fill="#382619"/>
<path d="M8.7 33.1599L7.1 33.29L5.25 30.9399L6.37 30.0601L7.74 31.8101C7.74 31.8101 7.74 31.8101 7.74 31.8201C7.74 31.8301 7.73 31.8499 7.74 31.8799C7.74 31.8899 7.75 31.9099 7.75 31.9199C7.75 31.9199 7.76 31.9299 7.77 31.9299L7.8 31.9399L7.86 31.96C8.01 32.03 8.15 32.12 8.27 32.24C8.51 32.48 8.67 32.7999 8.7 33.1599Z" fill="#382517"/>
<path d="M25.19 27.4099L24.36 29.1001L22.06 30.02L21.53 28.7L23.32 27.98C23.32 27.98 23.32 27.98 23.33 27.97C23.34 27.95 23.35 27.9299 23.37 27.9099C23.39 27.8699 23.42 27.8301 23.45 27.8001C23.51 27.7301 23.57 27.6601 23.64 27.6001C23.78 27.4801 23.94 27.3901 24.11 27.3401C24.45 27.2201 24.84 27.2399 25.19 27.4099Z" fill="#382517"/>
<path d="M13.68 4.0902L11.86 4.2301C11.09 4.2901 10.52 4.98012 10.6 5.75012L10.69 6.52014H10.74L10.93 8.95007L11.97 8.87023L11.79 6.67004C11.78 6.54004 11.88 6.43004 12 6.42004L14.4 6.2301C14.84 6.2001 15.18 5.82001 15.16 5.39001C15.12 4.61001 14.45 4.0302 13.68 4.0902Z" fill="#382619"/>
<path d="M67.75 35.3701H64.16V28.8201H66.44C67.17 28.8201 67.75 31.7501 67.75 35.3701Z" fill="#382517"/>
<path d="M61.36 29.4399L63.11 26.3101L63.99 24.75L64.43 23.97C64.48 23.86 64.46 23.84 64.48 23.77C64.47 23.71 64.45 23.6501 64.44 23.5901C64.36 23.4901 64.29 23.4001 64.21 23.3401L64.18 23.3201C64.17 23.2901 64.16 23.1999 64.15 23.1399L64.09 22.75L63.98 21.97L63.52 18.8501H75.31L74.4 21.97L74.17 22.75L74.06 23.1399C74.04 23.2099 74.02 23.2601 74 23.3501L73.94 23.6899L73.48 26.3101L72.38 27.49L68.13 33.9199L61.36 29.4399Z" fill="#B2FBB5"/>
<path d="M75.48 28.54L77.45 28.4099L79.08 27.5" fill="#033100"/>
<path d="M80.66 30.3701L78.39 31.6201L75.7 31.8L75.26 25.27L76.5 25.1899C76.51 25.1899 76.5 25.24 76.58 25.3C76.7 25.33 76.84 25.4 76.99 25.51C77.3 25.72 77.66 26.07 78.06 26.52C78.86 27.43 79.79 28.7901 80.66 30.3701Z" fill="#382517"/>
<path d="M78.01 11.8999C77.42 11.8999 76.84 11.6799 76.39 11.2299C75.49 10.3299 75.49 8.87994 76.39 7.98994L77.37 7.00996C78.27 6.10996 79.72 6.10996 80.61 7.00996C81.5 7.90996 81.51 9.35995 80.61 10.25L79.63 11.2299C79.18 11.6799 78.6 11.8999 78.01 11.8999Z" fill="#FFD2CB"/>
<path d="M68.83 5.1499L67.78 6.43994C67.53 6.74994 67.79 7.13004 68.36 7.29004L68.69 7.37988L68.83 5.1499Z" fill="#2AF556"/>
<path d="M78.71 9.72998L75.22 13.54C75.09 13.68 74.96 13.83 74.82 13.97C74.68 14.1 74.53 14.19 74.39 14.25C74.24 14.31 74.05 14.3301 73.87 14.3101C73.69 14.2901 73.56 14.2299 73.4 14.1399C73.24 14.0499 73.1 13.89 72.96 13.76L72.75 13.5601L72.63 13.45L72.16 13.02L70.27 11.29L71.61 9.90991L73.33 11.8201L73.76 12.3L73.87 12.4199C73.89 12.4399 73.89 12.45 73.9 12.46L73.95 12.54C73.97 12.57 73.98 12.6001 74.01 12.6201C74.04 12.6401 74.07 12.6399 74.1 12.6299C74.15 12.5999 74.2 12.56 74.27 12.52L77.77 8.82007L78.71 9.72998Z" fill="#008E03"/>
<path d="M72 27.8999L71.87 26.24L71.8 25.4099L71.77 25.01L71.74 24.9199C71.65 24.6799 71.57 24.4901 71.48 24.3501L71.46 24.3401C71.11 24.3801 70.86 24.4501 70.68 24.5601L70.62 24.6001C70.61 24.6101 70.61 24.6201 70.59 24.6201L70.39 24.5701L69.59 24.3601L67.99 23.95L72.7 13.1399L73.99 14.26L74.63 14.8201L74.79 14.96L75.1 15.1699L75.73 15.5801C77.38 16.6701 78.85 17.6899 80.15 18.6299L80.11 18.8401V27.8899H72V27.8999Z" fill="#B2FBB5"/>
<path d="M66.97 10.23L67.13 10.22H67.14L71.66 9.93994L72.91 15.0901L73.38 18.8899L67.68 19.4399L68.48 15.48L67.46 12.8601L66.9 10.3601L66.97 10.23Z" fill="#97DD9E"/>
<path d="M66.97 10.23L66.9 10.3601L64.63 14.4199L64.2 15.1599L64.06 19.5901L65.39 19.6499L65.58 15.5801L65.84 15.1499L67.46 12.8601L68.66 11.1399L67.14 10.22H67.13L66.97 10.23Z" fill="#97DD9E"/>
<path d="M71.66 9.93994L71.72 13.6101L71.74 15.03L70.61 12.1499L69.79 10.0601L71.66 9.93994Z" fill="white"/>
<path d="M69.4995 9.89577L71.366 10.0123L71.6937 4.76225L69.8272 4.64575L69.4995 9.89577Z" fill="#FFD2CB"/>
<path d="M69.53 8.71986L70.86 8.77992C71.59 8.80992 72.21 8.2499 72.25 7.5099L72.39 4.48988C72.42 3.92988 71.99 3.45982 71.43 3.42982L69.99 3.36C69.3 3.32 68.71 3.85994 68.68 4.54994L68.55 7.61C68.52 8.19 68.96 8.68986 69.53 8.71986Z" fill="#FFD2CB"/>
<path d="M71.0352 10.105L70.2467 10.1542L70.299 10.9927L71.0875 10.9435L71.0352 10.105Z" fill="#382619"/>
<path d="M71.72 13.6101L71.74 15.03L70.61 12.1499L70.65 10.8401L70.94 10.8301L71.72 13.6101Z" fill="#382619"/>
<path d="M72.39 4.50012L72.29 6.74011C71.82 7.12011 71.1 6.82008 71.05 6.21008L70.95 5.0802C70.93 4.8702 70.78 4.69002 70.57 4.65002L68.73 4.27014C68.88 3.72014 69.4 3.32021 69.99 3.35021L71.43 3.42004C71.99 3.47004 72.42 3.94012 72.39 4.50012Z" fill="#382619"/>
</svg>
