<svg width="213" height="54" viewBox="0 0 213 54" fill="none" xmlns="http://www.w3.org/2000/svg">
<path d="M52.3899 15.06C52.3899 11.3 52.3899 7.54001 52.3899 3.78001C52.3899 2.63001 52.3899 2.64 53.5699 2.64C59.2799 2.64 64.9799 2.58002 70.6899 2.66002C74.5499 2.71002 78.2499 3.51998 81.4899 5.74998C84.2499 7.65998 86.3299 10.09 87.2299 13.4C88.1299 16.71 87.7299 19.92 86.4499 23.05C86.1399 23.8 85.7599 24.53 85.3799 25.24C85.2199 25.54 85.2399 25.75 85.4599 26C88.7699 29.62 89.7099 33.94 89.2799 38.67C88.9499 42.27 87.6399 45.49 85.3499 48.29C83.6799 50.33 81.4599 51.61 79.0199 52.55C77.6699 53.07 76.2999 53.3 74.8299 53.29C68.1599 53.25 61.4999 53.27 54.8299 53.27C53.9399 53.27 53.9399 53.27 53.9399 52.41C53.9399 50.78 53.9399 49.16 53.9399 47.53C53.9399 46.76 53.9299 46.76 54.7199 46.76C61.3299 46.76 67.9299 46.69 74.5399 46.79C76.9099 46.82 78.6699 45.8 80.2299 44.27C81.3299 43.18 81.9799 41.77 82.3599 40.27C82.8099 38.48 82.9699 36.6699 82.6899 34.8299C82.1299 31.2099 79.9799 28.98 76.5199 27.92C75.3199 27.56 74.0899 27.41 72.8299 27.41C66.1999 27.43 59.5799 27.4199 52.9499 27.4399C52.4299 27.4399 52.3799 27.18 52.3799 26.8C52.3799 25.07 52.3799 23.35 52.3799 21.62C52.3899 19.45 52.3899 17.25 52.3899 15.06ZM65.4799 9.03001C63.5599 9.02001 61.6399 9.02 59.7199 9.02C58.9299 9.02 58.9099 9.02996 58.9099 9.84996C58.9099 13.24 58.9099 16.63 58.9099 20.03C58.9099 20.89 58.9399 20.92 59.7999 20.92C64.1099 20.92 68.4299 20.95 72.7399 20.91C74.9699 20.89 77.1399 21.1899 79.2299 21.9399C79.5599 22.0599 79.7899 21.9999 79.9499 21.6899C80.1499 21.2899 80.3499 20.89 80.5299 20.48C82.1699 16.59 81.0099 13.27 77.6499 10.87C75.7199 9.47998 73.4199 9.19003 71.1299 9.05003C69.2399 8.94003 67.3599 9.03001 65.4799 9.03001Z" fill="black"/>
<path d="M0.859929 14.7001C0.859929 10.9201 0.859929 7.14015 0.859929 3.36015C0.859929 3.12015 0.869958 2.87017 0.889958 2.63017C0.919958 2.29017 1.10993 2.13018 1.45993 2.14018C1.94993 2.15018 2.43994 2.14018 2.92994 2.14018C8.77994 2.14018 14.6299 2.03021 20.4699 2.17021C24.8699 2.28021 29.03 3.44021 32.73 5.92021C37.39 9.04021 40.1299 13.4301 41.3799 18.8301C42.1799 22.3001 42.5399 25.8101 42.3399 29.3501C41.9699 35.6901 40.1599 41.5301 35.9999 46.4801C33.9999 48.8601 31.4199 50.4601 28.5499 51.5801C25.8299 52.6401 22.9799 53.1802 20.0599 53.2802C13.8899 53.5102 7.70995 53.3202 1.53995 53.3802C1.03995 53.3902 0.82994 53.1901 0.83994 52.7001C0.84994 50.9301 0.849949 49.1602 0.849949 47.4002C0.849949 47.0602 0.919929 46.8201 1.35993 46.8201C4.72993 46.8201 8.09995 46.8002 11.48 46.7902C14.49 46.7802 17.4899 46.8202 20.4999 46.7502C23.8399 46.6702 26.91 45.6802 29.54 43.6102C32.07 41.6102 33.61 38.9202 34.57 35.9002C36.07 31.1902 36.0899 26.3802 35.3599 21.5502C34.8399 18.1502 33.45 15.1201 30.92 12.7201C28.47 10.3901 25.4799 9.07022 22.1299 8.80022C17.3999 8.42022 12.6499 8.71021 7.90995 8.67021C7.54995 8.67021 7.41996 8.7702 7.41996 9.1602C7.42996 15.0302 7.40996 20.9002 7.41996 26.7702C7.41996 27.3302 7.25995 27.5702 6.65995 27.5602C4.99995 27.5302 3.34995 27.5302 1.68995 27.5602C1.17995 27.5702 0.919936 27.4002 0.929936 26.8802C0.929936 26.5602 0.879948 26.2302 0.879948 25.9102C0.859948 22.1802 0.859929 18.4401 0.859929 14.7001Z" fill="black"/>
<path d="M104.26 39.5601C104.26 35.1501 104.27 30.74 104.25 26.34C104.25 25.76 104.54 25.79 104.93 25.79C109.45 25.79 113.97 25.79 118.48 25.79C121.24 25.79 124 25.78 126.76 25.76C127.12 25.76 127.25 25.92 127.25 26.22C127.26 28.07 127.26 29.92 127.25 31.77C127.25 32.22 126.95 32.27 126.58 32.27C124.15 32.27 121.71 32.3 119.28 32.29C116.66 32.28 114.05 32.36 111.43 32.24C110.89 32.22 110.79 32.53 110.8 32.98C110.81 35.23 110.8 37.49 110.8 39.74C110.8 43.99 110.8 48.23 110.8 52.48C110.8 53.41 110.78 53.4301 109.84 53.4301C108.18 53.4301 106.53 53.4199 104.87 53.4399C104.39 53.4499 104.25 53.2901 104.25 52.8101C104.28 48.3801 104.27 43.9701 104.26 39.5601C104.27 39.5601 104.27 39.5601 104.26 39.5601Z" fill="black"/>
<path d="M119.22 9.13013C114.6 9.13013 109.98 9.13013 105.36 9.13013C104.39 9.13013 104.39 9.12006 104.39 8.19006C104.39 6.61006 104.41 5.02006 104.38 3.44006C104.37 2.85006 104.52 2.62012 105.16 2.62012C114.48 2.64012 123.8 2.63012 133.12 2.62012C133.7 2.62012 133.92 2.79013 133.91 3.38013C133.88 5.07013 133.89 6.75006 133.91 8.44006C133.92 8.97006 133.73 9.14014 133.2 9.14014C128.54 9.12014 123.88 9.13013 119.22 9.13013Z" fill="black"/>
<path d="M164.09 46.6401C168.75 46.6401 173.41 46.6401 178.07 46.6401C178.91 46.6401 178.95 46.6601 178.92 47.4901C178.85 49.1701 178.78 50.8602 178.89 52.5402C178.91 52.8602 178.76 53.0402 178.43 53.0402C178.25 53.0402 178.06 53.0402 177.88 53.0402C168.68 53.0402 159.49 53.0402 150.29 53.0402C149.31 53.0402 149.33 53.0402 149.31 52.0602C149.28 50.4202 149.4 48.7701 149.24 47.1301C149.21 46.8101 149.35 46.6301 149.69 46.6201C149.89 46.6201 150.1 46.6201 150.3 46.6201C154.9 46.6401 159.5 46.6401 164.09 46.6401Z" fill="black"/>
<path d="M199.02 17.2899C199.02 16.2999 199.02 15.3499 199.02 14.4099C199.02 14.1099 199.02 13.7999 199.03 13.4999C199.04 13.2199 199.12 12.9699 199.49 12.9899C199.84 12.9999 200.02 13.1699 200.02 13.5199C200.03 13.9499 200.03 14.37 200.03 14.8C200.03 16 200.03 17.1999 200.01 18.3899C200 18.6999 200.05 19.0999 199.67 19.2299C199.25 19.3799 198.96 19.0799 198.76 18.7799C197.83 17.3799 196.79 16.0598 195.92 14.5698C195.77 14.8298 195.77 15.1099 195.77 15.3799C195.77 16.4799 195.78 17.5699 195.79 18.6699C195.79 18.9199 195.85 19.1999 195.5 19.2299C195.16 19.2499 194.97 19.0399 194.96 18.6999C194.95 18.3799 194.95 18.0499 194.95 17.7299C194.95 16.4099 194.95 15.0899 194.95 13.7699C194.95 13.4899 194.9 13.17 195.26 13.05C195.62 12.93 195.84 13.1499 196.04 13.3999C196.95 14.5699 197.81 15.7799 198.64 17.0199C198.71 17.1099 198.75 17.2399 199.02 17.2899Z" fill="black"/>
<path d="M168.95 28.33C168.95 27.54 168.98 26.75 168.94 25.96C168.91 25.39 169.15 25.22 169.69 25.22C170.41 25.22 171.12 25.2399 171.83 25.3199C173.14 25.4699 174.06 26.4299 174.28 27.8199C174.51 29.3299 173.91 30.57 172.68 31.12C171.6 31.6 170.47 31.63 169.32 31.46C168.98 31.41 168.95 31.1899 168.95 30.9399C168.95 30.0699 168.95 29.2 168.95 28.33ZM170.81 26.1C170 26.1 170.06 26.1 169.96 26.88C169.84 27.84 169.96 28.78 169.97 29.73C169.98 30.73 170.05 30.78 171.07 30.66C172.05 30.55 172.9 30.2699 173.23 29.1899C173.79 27.3999 172.78 26.11 170.81 26.1Z" fill="black"/>
<path d="M163.13 26.9598C163.13 28.1698 163.13 29.3298 163.13 30.4798C163.13 30.6798 163.13 30.8898 163.12 31.0898C163.11 31.3398 163 31.5299 162.72 31.5399C162.43 31.5399 162.33 31.3498 162.33 31.0998C162.33 30.1698 162.16 29.2399 162.26 28.2999C162.34 27.5499 162.34 26.7999 162.28 26.0499C162.26 25.7499 162.2 25.3598 162.52 25.2298C162.9 25.0698 163.17 25.3899 163.37 25.6699C164.15 26.7599 164.91 27.8698 165.7 28.9598C165.84 29.1598 165.96 29.5298 166.25 29.4398C166.49 29.3598 166.37 28.9999 166.37 28.7699C166.38 27.7999 166.38 26.8198 166.35 25.8498C166.34 25.4698 166.45 25.2398 166.84 25.2398C167.3 25.2398 167.26 25.5698 167.25 25.8898C167.19 27.5298 167.17 29.1798 167.25 30.8198C167.26 31.0798 167.32 31.3898 167.01 31.5098C166.67 31.6398 166.36 31.4998 166.15 31.2098C165.27 29.9598 164.41 28.7098 163.54 27.4498C163.42 27.2898 163.37 27.0998 163.13 26.9598Z" fill="black"/>
<path d="M157.63 31.5701C155.8 31.5301 154.43 30.0401 154.49 28.1401C154.54 26.3401 155.89 25.1402 157.84 25.1802C159.59 25.2102 160.94 26.6001 160.9 28.3401C160.85 30.0801 159.31 31.6101 157.63 31.5701ZM159.89 28.3901C159.89 26.9401 158.99 25.9701 157.65 25.9701C156.38 25.9801 155.43 27.0101 155.43 28.3701C155.43 29.6901 156.4 30.6802 157.68 30.6702C159.04 30.6702 159.89 29.7901 159.89 28.3901Z" fill="black"/>
<path d="M150.21 16.04C150.21 15.37 150.21 14.7 150.21 14.03C150.21 13.01 150.21 13.01 151.21 13C151.78 13 152.35 12.9599 152.92 13.0899C154.12 13.3799 154.56 14.36 153.9 15.39C153.69 15.72 153.75 15.92 153.98 16.18C154.96 17.31 154.47 18.75 153 19.06C152.23 19.22 151.45 19.1199 150.68 19.1099C150.3 19.1099 150.22 18.84 150.22 18.52C150.21 17.7 150.21 16.87 150.21 16.04ZM151.94 18.39C152.18 18.37 152.43 18.3799 152.67 18.3399C153.33 18.2199 153.67 17.6 153.41 17.02C153.19 16.52 152.14 16.1799 151.33 16.3599C150.73 16.4899 151.17 16.97 151.05 17.27C151.03 17.32 151.03 17.3899 151.03 17.4499C150.94 18.3899 150.96 18.42 151.94 18.39ZM151.1 14.5799C151.11 15.5499 151.11 15.52 151.99 15.56C153.02 15.6 153.2 15.2399 153.25 14.5699C153.3 13.9699 152.74 13.69 151.74 13.66C150.95 13.63 151.1 14.1299 151.1 14.5799Z" fill="black"/>
<path d="M150.17 3.72012C150.17 2.89012 150.17 2.06013 150.17 1.23013C150.17 0.950125 150.19 0.670189 150.56 0.670189C151.44 0.680189 152.31 0.580155 153.18 0.760155C154.87 1.09015 155.5 2.48014 155.45 3.99014C155.39 5.66014 154.32 6.7002 152.73 6.8102C152.04 6.8602 151.34 6.8201 150.65 6.8301C150.27 6.8401 150.17 6.62018 150.17 6.29018C150.18 5.43018 150.17 4.57012 150.17 3.72012ZM151.09 3.76015C151.1 3.76015 151.1 3.76015 151.09 3.76015C151.09 4.39015 151.09 5.02017 151.1 5.65017C151.1 5.86017 151.11 6.05017 151.36 6.15017C151.97 6.39017 153.72 5.83015 154.08 5.26015C154.65 4.39015 154.65 3.1401 154.06 2.3301C153.41 1.4501 152.43 1.54015 151.5 1.50015C151.2 1.49015 151.09 1.72015 151.1 2.00015C151.1 2.58015 151.09 3.17015 151.09 3.76015Z" fill="black"/>
<path d="M186.92 17.61C186.92 18 186.92 18.38 186.92 18.77C186.92 18.95 186.9 19.15 186.69 19.23C186.48 19.3 186.33 19.2001 186.22 19.0401C186.03 18.7401 185.83 18.78 185.56 18.95C184.49 19.63 183.43 19.42 182.47 18.75C181.46 18.05 180.95 17.0201 181.15 15.7901C181.62 12.8901 184.29 12.53 186.09 13.28C186.35 13.39 186.67 13.55 186.52 13.9C186.36 14.25 186.04 14.12 185.77 14C185.2 13.74 184.63 13.63 183.99 13.77C183.03 13.97 182.48 14.5101 182.26 15.4301C182.01 16.4801 182.26 17.3901 183.11 18.0401C183.85 18.6001 184.7 18.62 185.55 18.26C185.92 18.1 186.12 17.8301 186.13 17.4101C186.14 17.0501 186.05 16.81 185.63 16.85C185.31 16.87 185.11 16.74 185.14 16.4C185.16 16.04 185.44 16.06 185.68 16.07C186.98 16.11 186.94 15.72 186.93 17.27C186.93 17.37 186.93 17.49 186.92 17.61C186.93 17.61 186.93 17.61 186.92 17.61Z" fill="black"/>
<path d="M207.17 17.6699C207.17 18.0199 207.19 18.3599 207.17 18.6999C207.14 19.2299 206.89 19.3799 206.47 19.0899C206.17 18.8699 205.92 18.8899 205.62 19.0399C203.93 19.9199 202.07 18.7599 201.53 17.1999C200.89 15.3399 201.88 13.51 203.72 13.05C204.57 12.84 205.38 12.9599 206.18 13.2499C206.46 13.3499 206.84 13.5099 206.71 13.8699C206.57 14.2499 206.19 14.0899 205.91 13.9699C205.35 13.7399 204.81 13.5999 204.19 13.7399C202.73 14.0599 201.98 15.3099 202.4 16.7799C202.78 18.0999 204.21 18.8098 205.53 18.3198C205.91 18.1798 206.21 17.9599 206.27 17.5099C206.31 17.1399 206.24 16.8599 205.8 16.8299C205.5 16.8099 205.26 16.6599 205.28 16.3399C205.3 15.9999 205.62 16.0499 205.85 16.0299C207.17 15.9699 207.17 15.9699 207.17 17.6699Z" fill="black"/>
<path d="M192.28 15.2198C192.28 14.6298 192.28 14.0398 192.28 13.4498C192.28 13.1698 192.34 12.8999 192.7 12.8999C193.04 12.8999 193.17 13.1299 193.17 13.4199C193.15 14.7399 193.29 16.0599 193.06 17.3699C192.83 18.7099 191.96 19.3299 190.44 19.3099C189.05 19.2999 188.26 18.4099 188.22 17.0599C188.18 15.9399 188.16 14.8298 188.13 13.7098C188.12 13.2898 188.23 12.9799 188.72 12.9799C189.24 12.9899 189.19 13.3698 189.22 13.7198C189.3 14.8598 189.04 15.9899 189.22 17.1199C189.37 18.1199 189.8 18.4099 191.02 18.3499C191.72 18.3199 192.24 17.7598 192.28 16.9698C192.3 16.3998 192.28 15.8098 192.28 15.2198Z" fill="black"/>
<path d="M185.27 3.62016C185.27 2.81016 185.28 2.0001 185.26 1.1901C185.25 0.890102 185.26 0.670195 185.65 0.660195C186.05 0.650195 186.21 0.800102 186.19 1.1901C186.17 1.7201 186.2 2.25018 186.18 2.77018C186.16 3.18018 186.3 3.37014 186.74 3.35014C187.43 3.32014 188.13 3.33013 188.82 3.34013C189.19 3.35013 189.34 3.19012 189.33 2.83012C189.32 2.28012 189.32 1.7301 189.32 1.1901C189.32 0.900102 189.35 0.660185 189.73 0.650185C190.12 0.630185 190.22 0.850214 190.22 1.18021C190.22 2.88021 190.21 4.5902 190.21 6.2902C190.21 6.5502 190.18 6.79021 189.83 6.80021C189.5 6.81021 189.34 6.63022 189.34 6.31022C189.33 5.80022 189.31 5.2902 189.33 4.7902C189.35 4.3402 189.19 4.11017 188.7 4.13017C188.03 4.16017 187.35 4.15017 186.68 4.13017C186.31 4.12017 186.17 4.28018 186.18 4.64018C186.19 5.19018 186.17 5.74019 186.16 6.28019C186.15 6.58019 186.02 6.8002 185.69 6.7902C185.38 6.7802 185.28 6.55019 185.28 6.28019C185.27 5.39019 185.28 4.49014 185.28 3.60014C185.28 3.62014 185.27 3.62016 185.27 3.62016Z" fill="black"/>
<path d="M165.85 2.75992C165.85 2.18992 165.86 1.61997 165.85 1.05997C165.84 0.819971 165.9 0.649907 166.15 0.619907C166.39 0.589907 166.62 0.629917 166.71 0.879917C166.76 1.02992 166.78 1.1999 166.78 1.3599C166.79 2.3299 166.81 3.30994 166.78 4.27994C166.73 6.31994 165.09 7.43994 163.15 6.77994C162.34 6.49994 161.96 5.85988 161.84 5.08988C161.63 3.75988 161.79 2.41987 161.75 1.07987C161.74 0.759868 161.95 0.679956 162.23 0.669956C162.58 0.659956 162.77 0.809956 162.76 1.16996C162.76 2.15996 162.76 3.15994 162.76 4.14994C162.76 4.42994 162.76 4.7199 162.84 4.9899C163.04 5.6899 163.7 6.17993 164.37 6.13993C165.16 6.08993 165.77 5.56993 165.84 4.76993C165.9 4.09993 165.86 3.42992 165.85 2.75992Z" fill="black"/>
<path d="M192.02 3.78C192.02 2.95 192.04 2.11 192.01 1.28C192 0.850004 192.12 0.639999 192.59 0.649999C193.45 0.669999 194.31 0.660009 195.17 0.660009C195.47 0.660009 195.72 0.749941 195.72 1.08994C195.71 1.41994 195.42 1.43992 195.18 1.43992C194.63 1.44992 194.08 1.45993 193.52 1.44993C193.11 1.43993 192.94 1.57999 192.93 2.01999C192.91 3.34999 192.89 3.33996 194.25 3.35996C194.6 3.36996 195.17 3.15996 195.19 3.72996C195.21 4.30996 194.64 4.14 194.29 4.15C192.57 4.18 193.13 4.01002 192.96 5.55002C192.92 5.96002 193.14 6.12995 193.56 6.09995C194.15 6.06995 194.74 6.05993 195.34 6.07993C195.62 6.08993 195.97 6.17 195.96 6.53C195.95 6.88 195.6 6.9 195.35 6.9C194.41 6.93 193.47 6.91002 192.53 6.92002C192.11 6.92002 192.02 6.68993 192.02 6.32993C192.02 5.48993 192.02 4.64 192.02 3.78Z" fill="black"/>
<path d="M155.95 16.1399C155.95 15.3099 155.96 14.4799 155.94 13.6499C155.93 13.1899 156.08 12.9798 156.58 12.9998C157.42 13.0298 158.25 12.9998 159.09 12.9998C159.37 12.9998 159.65 13.0199 159.65 13.3899C159.65 13.7699 159.35 13.7699 159.08 13.7799C158.53 13.7899 157.98 13.7899 157.43 13.7799C157.06 13.7699 156.88 13.8999 156.86 14.2999C156.79 15.6699 156.78 15.6599 158.15 15.6799C158.37 15.6799 158.6 15.6898 158.82 15.7298C159.02 15.7698 159.14 15.9098 159.12 16.1198C159.1 16.3298 158.97 16.4498 158.76 16.4598C158.31 16.4698 157.86 16.4798 157.41 16.4698C157.01 16.4598 156.88 16.6299 156.87 17.0199C156.81 18.3799 156.8 18.3698 158.14 18.3698C158.55 18.3698 158.96 18.3699 159.36 18.3999C159.63 18.4199 159.83 18.5498 159.83 18.8498C159.83 19.1598 159.63 19.2699 159.35 19.2699C158.39 19.2699 157.43 19.2599 156.47 19.2699C156.06 19.2699 155.95 19.0598 155.96 18.6898C155.96 17.8398 155.95 16.9899 155.95 16.1399Z" fill="black"/>
<path d="M166.37 16.1299C166.37 15.2999 166.38 14.4599 166.36 13.6299C166.35 13.1999 166.49 12.9899 166.95 12.9999C167.77 13.0199 168.59 12.9999 169.4 12.9999C169.68 12.9999 170.04 12.9799 170.02 13.3899C170 13.7799 169.67 13.7799 169.37 13.7799C168.86 13.7799 168.35 13.7999 167.84 13.7799C167.42 13.7699 167.26 13.9498 167.27 14.3698C167.31 15.8898 167.11 15.6799 168.56 15.6799C168.66 15.6799 168.77 15.6699 168.87 15.6799C169.15 15.7099 169.48 15.6998 169.48 16.1098C169.48 16.5598 169.13 16.4698 168.86 16.4698C168.61 16.4698 168.37 16.4598 168.12 16.4598C167.32 16.4698 167.28 16.4999 167.28 17.2799C167.27 18.3699 167.27 18.3698 168.37 18.3598C168.84 18.3598 169.31 18.3599 169.78 18.3899C170.02 18.3999 170.24 18.4899 170.24 18.7799C170.23 19.0599 170.06 19.2399 169.77 19.2499C168.77 19.2599 167.77 19.2599 166.77 19.2499C166.4 19.2499 166.37 18.9599 166.37 18.6799C166.38 17.8299 166.38 16.9799 166.37 16.1299Z" fill="black"/>
<path d="M181.69 6.18989C182.24 6.23989 182.74 6.07 183.18 5.68C183.37 5.52 183.61 5.36999 183.8 5.66999C183.98 5.94999 183.93 6.19998 183.64 6.40998C182.38 7.32998 180.32 7.19994 179.28 6.11994C178.18 4.97994 178.08 2.90989 179.07 1.68989C180.04 0.499889 182.16 0.229963 183.42 1.13996C183.61 1.27996 183.8 1.43989 183.66 1.68989C183.54 1.90989 183.3 1.93992 183.06 1.84992C182.77 1.74992 182.49 1.60999 182.2 1.53999C181.27 1.30999 180.44 1.51996 179.82 2.25996C179.13 3.09996 179.09 4.05996 179.56 5.00996C179.98 5.84996 180.69 6.27989 181.69 6.18989Z" fill="black"/>
<path d="M177.41 25.1799C177.87 25.1699 178.31 25.2698 178.71 25.4698C178.95 25.5898 179.09 25.7998 178.96 26.0698C178.82 26.3798 178.59 26.3298 178.35 26.1998C177.92 25.9598 177.46 25.8899 176.99 26.0499C176.24 26.2999 176.11 26.9198 176.7 27.4398C177.03 27.7298 177.44 27.8599 177.83 28.0499C178.59 28.4199 179.25 28.8498 179.21 29.8598C179.17 30.8498 178.66 31.4698 177.66 31.5698C176.9 31.6498 176.21 31.3998 175.57 31.0098C175.33 30.8598 175.17 30.6398 175.34 30.3398C175.51 30.0398 175.76 30.1598 175.98 30.2598C176.38 30.4298 176.78 30.5598 177.2 30.6398C177.7 30.7398 178.05 30.4998 178.26 30.0998C178.48 29.6898 178.17 29.4099 177.9 29.1599C177.5 28.7799 176.96 28.6699 176.49 28.4299C175.84 28.0999 175.33 27.6598 175.32 26.8598C175.32 25.8598 176.16 25.1899 177.41 25.1799Z" fill="black"/>
<path d="M175.38 6.94989C174.82 6.96989 174.33 6.78994 173.87 6.49994C173.63 6.34994 173.43 6.16992 173.59 5.84992C173.77 5.49992 174.01 5.64996 174.26 5.76996C174.85 6.06996 175.45 6.36996 176.09 5.88996C176.66 5.46996 176.67 4.98998 176.14 4.53998C175.79 4.23998 175.35 4.11989 174.94 3.94989C173.92 3.51989 173.42 2.7899 173.57 1.9599C173.75 0.969904 174.85 0.299962 175.98 0.519962C176.28 0.579962 176.57 0.699899 176.84 0.829899C177.12 0.959899 177.32 1.18996 177.17 1.51996C177.01 1.84996 176.72 1.74995 176.48 1.62995C176.1 1.43995 175.7 1.40989 175.29 1.44989C174.95 1.48989 174.64 1.60992 174.55 1.97992C174.45 2.36992 174.56 2.7 174.92 2.93C175.3 3.17 175.72 3.33995 176.13 3.50995C177.3 3.99995 177.76 5.01994 177.24 5.99994C176.84 6.75994 176.14 6.92989 175.38 6.94989Z" fill="black"/>
<path d="M156.9 3.71008C156.9 2.86008 156.92 2.00015 156.89 1.15015C156.88 0.810146 156.96 0.660156 157.32 0.660156C158.2 0.670156 159.08 0.660156 159.96 0.660156C160.25 0.660156 160.52 0.720078 160.5 1.08008C160.48 1.41008 160.21 1.43018 159.96 1.43018C159.39 1.44018 158.81 1.45006 158.24 1.44006C157.88 1.43006 157.73 1.58007 157.73 1.95007C157.74 3.61007 157.62 3.3201 159.08 3.3501C159.42 3.3601 159.96 3.20007 159.99 3.70007C160.02 4.28007 159.46 4.13014 159.1 4.14014C157.6 4.16014 157.61 4.15006 157.74 5.69006C157.77 6.03006 157.89 6.15012 158.24 6.12012C158.83 6.07012 159.42 6.06017 160.02 6.05017C160.32 6.04017 160.66 6.00009 160.68 6.47009C160.7 6.93009 160.39 6.94006 160.07 6.94006C159.15 6.93006 158.23 6.91015 157.31 6.90015C156.94 6.90015 156.94 6.65015 156.94 6.40015C156.94 5.51015 156.94 4.61009 156.94 3.72009C156.91 3.71009 156.91 3.71008 156.9 3.71008Z" fill="black"/>
<path d="M210.38 12.8498C210.82 12.8398 211.24 12.9399 211.61 13.1599C211.85 13.2999 212.03 13.5298 211.87 13.8198C211.71 14.1198 211.44 14.0098 211.23 13.8798C210.86 13.6698 210.47 13.5799 210.05 13.6499C209.67 13.7199 209.35 13.8899 209.27 14.3099C209.19 14.7099 209.33 15.0098 209.68 15.2398C210.06 15.4898 210.49 15.6298 210.89 15.8198C211.5 16.0998 212.05 16.4499 212.19 17.1699C212.38 18.1799 211.88 18.9299 210.87 19.1699C210.09 19.3499 209.37 19.1799 208.69 18.7799C208.43 18.6299 208.23 18.3898 208.4 18.0698C208.58 17.7298 208.87 17.9199 209.09 18.0399C209.5 18.2599 209.92 18.3498 210.39 18.3298C210.81 18.3098 211.09 18.1098 211.24 17.7398C211.39 17.3698 211.21 17.0798 210.93 16.8298C210.51 16.4498 209.96 16.3198 209.47 16.0798C208.89 15.7898 208.36 15.4598 208.32 14.7098C208.27 13.5998 209.06 12.8598 210.38 12.8498Z" fill="black"/>
<path d="M150.2 28.2101C150.2 27.4601 150.21 26.7101 150.2 25.9601C150.19 25.4701 150.29 25.2001 150.89 25.2601C151.47 25.3201 152.07 25.2301 152.66 25.2101C152.82 25.2101 152.99 25.2001 153.15 25.2301C153.41 25.2701 153.74 25.2801 153.72 25.6401C153.7 25.9501 153.41 25.9801 153.16 25.9801C152.75 25.9901 152.34 25.9701 151.94 25.9801C151.17 26.0001 151.11 26.0701 151.11 26.8301C151.11 26.9101 151.11 26.9901 151.11 27.0701C151.11 28.0001 151.15 28.0402 152.08 27.9302C152.37 27.9002 152.65 27.8901 152.93 27.9401C153.22 27.9901 153.37 28.1601 153.36 28.4401C153.35 28.7401 153.16 28.8701 152.88 28.8701C152.51 28.8801 152.14 28.9001 151.78 28.8701C151.29 28.8301 151.06 29.0001 151.1 29.5201C151.13 29.9801 151.12 30.4502 151.1 30.9202C151.09 31.1702 151.17 31.5001 150.76 31.5001C150.41 31.5001 150.25 31.2501 150.24 30.9401C150.22 30.3101 150.22 29.6802 150.21 29.0502C150.19 28.7802 150.2 28.5001 150.2 28.2101Z" fill="black"/>
<path d="M163.24 16.3801C163.24 17.1101 163.24 17.8401 163.24 18.5701C163.24 18.8501 163.21 19.1201 162.83 19.1201C162.46 19.1201 162.34 18.9001 162.34 18.5701C162.34 17.1901 162.32 15.8102 162.34 14.4302C162.35 13.9402 162.19 13.7101 161.68 13.7501C161.31 13.7701 160.94 13.7701 160.58 13.7401C160.3 13.7201 160.12 13.5701 160.15 13.2601C160.17 12.9901 160.35 12.8701 160.61 12.8701C162.04 12.8701 163.47 12.8701 164.9 12.8801C165.21 12.8801 165.5 13.0101 165.47 13.3701C165.44 13.7101 165.14 13.7401 164.87 13.7501C164.54 13.7501 164.22 13.7601 163.89 13.7401C163.43 13.7101 163.22 13.8801 163.24 14.3701C163.27 15.0401 163.24 15.7101 163.24 16.3801Z" fill="black"/>
<path d="M170.73 4.11011C170.73 4.82011 170.73 5.53011 170.73 6.24011C170.73 6.55011 170.7 6.83007 170.29 6.82007C169.92 6.81007 169.82 6.57012 169.82 6.25012C169.82 4.89012 169.79 3.53017 169.82 2.17017C169.84 1.60017 169.63 1.40007 169.08 1.45007C168.74 1.48007 168.39 1.45018 168.04 1.43018C167.82 1.42018 167.64 1.30017 167.66 1.05017C167.68 0.810171 167.82 0.680176 168.06 0.680176C169.53 0.680176 171 0.680176 172.47 0.680176C172.72 0.680176 172.91 0.800078 172.91 1.08008C172.91 1.39008 172.67 1.43006 172.44 1.44006C172.09 1.46006 171.75 1.47007 171.4 1.45007C170.92 1.42007 170.69 1.58011 170.72 2.11011C170.76 2.77011 170.73 3.44011 170.73 4.11011Z" fill="black"/>
<path d="M174.13 16.0999C174.13 15.3299 174.13 14.56 174.13 13.79C174.13 13.45 174.05 13.04 174.57 13.02C175.11 13 175.03 13.43 175.03 13.76C175.04 15.04 175.03 16.3099 175.03 17.5899C175.03 18.3499 175.05 18.3599 175.83 18.3599C176.32 18.3599 176.81 18.3599 177.3 18.3599C177.6 18.3599 177.83 18.43 177.83 18.79C177.83 19.17 177.59 19.19 177.29 19.18C176.41 19.16 175.53 19.14 174.66 19.17C174.25 19.18 174.11 19.04 174.12 18.65C174.14 17.8 174.13 16.9499 174.13 16.0999Z" fill="black"/>
<path d="M179.92 16.06C179.92 16.87 179.92 17.6799 179.92 18.4899C179.92 18.7199 179.9 18.9399 179.74 19.1199C179.62 19.2499 179.45 19.2699 179.28 19.2299C179.06 19.1799 179.01 19 179.01 18.81C179.03 17.39 178.85 15.98 178.95 14.56C178.97 14.22 178.99 13.87 178.98 13.53C178.97 13.24 178.98 12.9899 179.36 12.9799C179.73 12.9699 179.93 13.13 179.93 13.52C179.92 14.36 179.93 15.21 179.92 16.06Z" fill="black"/>
<path d="M172.45 16.13C172.45 16.98 172.45 17.8301 172.45 18.6801C172.45 18.9901 172.39 19.26 171.99 19.25C171.6 19.25 171.53 18.9901 171.53 18.6801C171.53 16.9601 171.53 15.24 171.54 13.52C171.54 13.24 171.56 12.9101 171.98 12.9301C172.33 12.9501 172.45 13.19 172.45 13.52C172.45 14.39 172.45 15.26 172.45 16.13Z" fill="black"/>
</svg>
