<svg width="85" height="85" viewBox="0 0 85 85" fill="none" xmlns="http://www.w3.org/2000/svg">
<path d="M0.250214 42.4304C0.250214 40.3004 0.240214 38.16 0.250214 36.03C0.260214 34.65 0.870204 34.05 2.2402 34.03C3.8502 34.01 5.46022 34.0002 7.07022 34.0402C7.71022 34.0502 8.02021 33.8301 8.18021 33.2101C8.92021 30.3101 10.0802 27.5802 11.5802 25.0002C11.9402 24.3802 11.8102 24.02 11.3402 23.57C10.2502 22.53 9.19023 21.4603 8.14023 20.3903C6.98023 19.2003 6.97022 18.3101 8.13022 17.1501C11.0702 14.2001 14.0102 11.25 16.9602 8.32C18.1202 7.17 19.0102 7.18027 20.2002 8.35027C21.2502 9.38027 22.3002 10.4002 23.3102 11.4802C23.8202 12.0202 24.2202 12.1302 24.9102 11.7302C27.4302 10.2602 30.1002 9.13033 32.9302 8.41033C33.6502 8.23033 33.8702 7.87008 33.8402 7.15008C33.7902 5.61008 33.8202 4.06996 33.8302 2.52996C33.8402 1.06996 34.4202 0.460371 35.8502 0.450371C40.1502 0.440371 44.4602 0.440371 48.7602 0.450371C50.1402 0.450371 50.7502 1.06035 50.7602 2.43035C50.7802 4.04035 50.7902 5.64994 50.7502 7.25994C50.7402 7.89994 50.9602 8.21029 51.5802 8.37029C54.4802 9.12029 57.2102 10.28 59.7902 11.78C60.4102 12.14 60.7702 12.0102 61.2202 11.5402C62.2802 10.4202 63.3702 9.3402 64.4802 8.2702C65.5902 7.2002 66.5002 7.18994 67.5702 8.25994C70.5802 11.2399 73.5702 14.2304 76.5502 17.2404C77.5802 18.2804 77.6002 19.1999 76.5902 20.2599C75.5302 21.3699 74.4402 22.4702 73.3202 23.5202C72.7802 24.0302 72.6702 24.4303 73.0702 25.1203C74.5302 27.6403 75.6802 30.3103 76.3902 33.1403C76.5702 33.8603 76.9302 34.08 77.6502 34.05C79.1902 34 80.7302 34.0302 82.2702 34.0402C83.7302 34.0502 84.3402 34.6402 84.3502 36.0602C84.3602 40.3602 84.3602 44.6704 84.3502 48.9704C84.3502 50.3504 83.7302 50.9604 82.3602 50.9704C80.7502 50.9904 79.1402 51.0001 77.5302 50.9601C76.8902 50.9501 76.5802 51.1702 76.4202 51.7902C75.6802 54.6902 74.5102 57.4202 73.0202 60.0002C72.6602 60.6202 72.8002 60.9804 73.2702 61.4304C74.3602 62.4704 75.4202 63.54 76.4702 64.61C77.6302 65.8 77.6402 66.69 76.4802 67.86C73.5402 70.81 70.6002 73.7601 67.6502 76.6901C66.5102 77.8201 65.6202 77.8302 64.4802 76.7302C63.3502 75.6402 62.2402 74.5203 61.1402 73.3903C60.7402 72.9703 60.4102 72.8901 59.8702 73.1901C57.2502 74.7001 54.5002 75.8901 51.5602 76.6301C50.9302 76.7901 50.7402 77.1302 50.7502 77.7502C50.7802 79.3202 50.7702 80.9004 50.7602 82.4704C50.7502 83.9304 50.1602 84.5402 48.7402 84.5402C44.4402 84.5502 40.1302 84.5502 35.8302 84.5402C34.4502 84.5402 33.8502 83.92 33.8302 82.55C33.8102 80.94 33.8002 79.3304 33.8402 77.7204C33.8502 77.0804 33.6302 76.77 33.0102 76.61C30.1102 75.87 27.3802 74.7001 24.8002 73.2101C24.2502 72.8901 23.8902 72.9101 23.4402 73.3801C22.3802 74.5001 21.2802 75.5801 20.1802 76.6501C18.9902 77.8101 18.1002 77.8201 16.9302 76.6501C13.9802 73.7101 11.0302 70.77 8.10022 67.82C6.97022 66.69 6.96021 65.7901 8.06021 64.6501C9.16021 63.5201 10.2702 62.4102 11.4002 61.3102C11.8202 60.9102 11.9102 60.5802 11.6002 60.0402C10.0902 57.4202 8.90021 54.6702 8.15021 51.7302C7.99021 51.1002 7.65021 50.9101 7.03021 50.9201C5.56021 50.9601 4.09021 50.9304 2.62021 50.9304C0.710209 50.9304 0.230225 50.4404 0.230225 48.4904C0.240225 46.4904 0.240214 44.4604 0.250214 42.4304ZM42.3002 81.0402C43.6302 81.0402 44.9602 81.01 46.2902 81.05C47.0102 81.07 47.3002 80.83 47.2802 80.09C47.2402 78.62 47.2602 77.1504 47.2702 75.6804C47.2802 74.4104 47.6402 73.88 48.9002 73.61C52.7702 72.75 56.3502 71.2501 59.6902 69.1301C60.7602 68.4501 61.3902 68.5704 62.3102 69.4704C63.3602 70.4904 64.4002 71.53 65.4202 72.59C65.8402 73.03 66.1602 73.1001 66.6302 72.6301C68.5402 70.6801 70.4702 68.75 72.4202 66.84C72.8702 66.4 72.8902 66.0801 72.4302 65.6301C71.3702 64.6201 70.3302 63.5702 69.3102 62.5202C68.3902 61.5802 68.2602 60.9701 68.9402 59.9001C71.0802 56.5301 72.6002 52.9099 73.4502 49.0099C73.6902 47.9299 74.3702 47.4304 75.4802 47.4504C76.9802 47.4804 78.4902 47.4401 79.9902 47.4601C80.6102 47.4701 80.8702 47.25 80.8702 46.61C80.8502 43.88 80.8502 41.1504 80.8702 38.4304C80.8802 37.7404 80.6102 37.5102 79.9402 37.5202C78.4702 37.5502 77.0002 37.5402 75.5302 37.5202C74.2302 37.5102 73.7102 37.1601 73.4302 35.9201C72.5602 32.0601 71.0902 28.4601 68.9402 25.1301C68.2602 24.0801 68.3702 23.4002 69.2502 22.5002C70.3002 21.4202 71.3602 20.3602 72.4402 19.3102C72.8602 18.9102 72.8802 18.6004 72.4502 18.1804C70.4802 16.2404 68.5302 14.28 66.5902 12.32C66.1702 11.89 65.8602 11.92 65.4602 12.34C64.4402 13.4 63.4002 14.4301 62.3502 15.4601C61.3802 16.4101 60.7602 16.53 59.6402 15.82C56.3002 13.69 52.7102 12.21 48.8402 11.34C47.6102 11.06 47.2702 10.5402 47.2602 9.23016C47.2502 7.76016 47.2302 6.29 47.2702 4.82C47.2902 4.13 47.0202 3.90033 46.3502 3.91033C43.6602 3.93033 40.9602 3.94033 38.2702 3.91033C37.5102 3.90033 37.3102 4.21033 37.3302 4.91033C37.3602 6.34033 37.3502 7.78014 37.3402 9.21014C37.3302 10.4801 36.9502 11.0703 35.7602 11.3303C31.8602 12.2003 28.2402 13.7103 24.8802 15.8703C23.9402 16.4703 23.1002 16.31 22.3302 15.53C21.3002 14.48 20.2402 13.4701 19.2302 12.4001C18.7702 11.9201 18.4402 11.8703 17.9502 12.3703C16.0702 14.3003 14.1602 16.2003 12.2402 18.0803C11.7502 18.5603 11.7502 18.89 12.2402 19.36C13.2802 20.34 14.2902 21.3703 15.2902 22.3903C16.2502 23.3703 16.3702 23.98 15.6702 25.09C13.5502 28.43 12.0602 32.0201 11.1902 35.8801C10.9102 37.1201 10.3902 37.4604 9.09021 37.4704C7.62021 37.4804 6.15021 37.5001 4.68021 37.4601C4.00021 37.4501 3.75022 37.6901 3.76022 38.3801C3.78022 41.0701 3.79022 43.7701 3.76022 46.4601C3.75022 47.2101 4.04021 47.4303 4.75021 47.4103C6.15021 47.3703 7.55023 47.3901 8.95023 47.4001C10.4302 47.4101 10.9302 47.7503 11.2402 49.1603C12.0802 52.9203 13.5202 56.4203 15.6102 59.6603C16.3802 60.8603 16.2802 61.5002 15.2602 62.5402C14.2802 63.5402 13.3002 64.5402 12.2802 65.5002C11.7402 66.0102 11.7602 66.35 12.2802 66.86C14.1802 68.72 16.0702 70.5902 17.9202 72.5002C18.4502 73.0502 18.8002 72.9804 19.2802 72.4704C20.2902 71.4004 21.3502 70.38 22.3902 69.34C23.1302 68.6 23.9502 68.4402 24.8502 69.0202C28.2402 71.1902 31.8902 72.7303 35.8302 73.5803C36.9202 73.8203 37.3802 74.5303 37.3602 75.6403C37.3302 77.0703 37.4002 78.5101 37.3402 79.9401C37.3002 80.8001 37.6402 81.0402 38.4402 81.0002C39.7102 81.0002 41.0102 81.0402 42.3002 81.0402Z" fill="black"/>
<path d="M43.91 17.8398C43.91 16.7898 43.88 15.7399 43.92 14.6899C43.98 13.2299 45.15 12.4798 46.48 13.0698C48.05 13.7498 49.37 14.7801 50.37 16.1801C50.7701 16.7501 51.28 17.0801 51.92 17.3501C61.38 21.2201 67.24 28.1902 68.91 38.2402C71.37 53.0902 61.33 66.2902 47.49 68.9702C32.92 71.7802 19.1 62.5801 15.93 48.0801C13.12 35.2301 20.3601 21.98 32.7501 17.31C33.3701 17.08 33.84 16.7702 34.22 16.2202C35.17 14.8802 36.4301 13.8901 37.9001 13.1801C39.4401 12.4401 40.66 13.1801 40.68 14.8901C40.71 16.8501 40.73 18.81 40.67 20.77C40.63 21.89 41.4701 22.3299 42.0901 22.9399C42.3201 23.1699 42.53 22.93 42.72 22.77C43.49 22.11 44.08 21.41 43.92 20.27C43.82 19.47 43.91 18.6498 43.91 17.8398ZM35.5101 32.8799C35.5101 32.4399 35.4801 32.1599 35.5101 31.8799C35.6501 30.6699 35.3201 29.7097 34.4601 28.7597C32.9401 27.0797 32.2001 25.0102 32.1501 22.7202C32.1201 21.4802 32.1001 21.4698 31.0201 22.0298C22.2101 26.6498 17.24 37.3799 19.37 47.1699C22.12 59.7999 33.7901 67.6902 46.5101 65.4902C49.5801 64.9602 52.3901 63.7498 55.0301 62.0898C55.9901 61.4898 55.68 60.6001 55.61 59.8301C55.53 59.0501 54.7801 59.3801 54.3201 59.3701C52.9601 59.3301 51.59 59.4201 50.23 59.3301C49.28 59.2701 48.83 59.61 48.43 60.48C47.33 62.85 45.4101 64.2101 42.7801 64.3701C40.0201 64.5501 37.7501 63.4597 36.5101 61.0097C35.7901 59.5897 34.97 59.1301 33.54 59.3501C33.44 59.3701 33.33 59.3501 33.23 59.3501C29.86 59.3201 27.92 56.3702 29.23 53.2402C29.44 52.7402 29.4501 52.3301 29.2101 51.8501C28.6401 50.6801 28.62 49.48 29.18 48.31C29.45 47.75 29.45 47.29 29.18 46.73C28.67 45.71 28.6201 44.6101 29.0701 43.5801C29.4001 42.8101 29.4001 42.2001 29.0801 41.4101C28.0301 38.8101 29.9501 35.8699 32.7101 35.6899C33.6001 35.6299 34.7501 36.1002 35.3201 35.4502C35.9001 34.7902 35.4201 33.6399 35.5101 32.8799ZM44.11 39.2099C43.9 39.2099 43.69 39.2099 43.48 39.2099C40.16 39.2099 36.8301 39.2099 33.5101 39.2099C32.9501 39.2099 32.3701 39.3097 32.4001 40.0097C32.4201 40.6297 32.97 40.73 33.49 40.73C34.08 40.73 34.6801 40.7302 35.2701 40.7402C36.5701 40.7602 37.3101 41.3802 37.3201 42.4702C37.3301 43.5602 36.6001 44.2202 35.3201 44.2402C34.6601 44.2502 33.9901 44.2297 33.3301 44.2597C32.8301 44.2797 32.3801 44.4598 32.4001 45.0298C32.4101 45.5998 32.87 45.76 33.37 45.77C34.1 45.79 34.8401 45.76 35.5701 45.79C36.6301 45.84 37.3101 46.51 37.3301 47.48C37.3501 48.5 36.66 49.22 35.56 49.27C34.79 49.3 34.0201 49.2698 33.2501 49.2998C32.7901 49.3198 32.4001 49.53 32.3901 50.04C32.3801 50.55 32.77 50.77 33.23 50.79C33.93 50.82 34.6301 50.8 35.3301 50.81C36.6101 50.84 37.3401 51.4898 37.3301 52.5898C37.3101 53.6398 36.6001 54.28 35.3801 54.31C34.7201 54.33 34.0501 54.3098 33.3901 54.3198C32.9001 54.3298 32.42 54.48 32.41 55.04C32.39 55.67 32.9 55.8098 33.43 55.8398C33.57 55.8498 33.71 55.8501 33.85 55.8501C40.74 55.8501 47.6301 55.8301 54.5201 55.8701C55.4701 55.8701 55.7001 55.5601 55.6901 54.6601C55.6501 49.9001 55.6501 45.1501 55.6901 40.3901C55.7001 39.4801 55.4501 39.1699 54.5101 39.1899C51.0401 39.2399 47.57 39.2099 44.11 39.2099ZM59.17 58.6098C60.57 57.1598 61.5901 55.7998 62.4501 54.3198C65.5901 48.9398 66.3701 43.2099 65.0801 37.1499C64.8701 36.1499 64.43 35.7301 63.37 35.8301C62.37 35.9301 61.3401 35.9101 60.3301 35.8301C59.3901 35.7601 59.1401 36.1198 59.1501 37.0298C59.1901 41.9898 59.17 46.9501 59.17 51.9101C59.17 54.0401 59.17 56.1598 59.17 58.6098ZM47.49 18.48C47.46 18.59 47.4 18.69 47.41 18.77C48.08 22.13 46.5801 24.54 44.0201 26.48C43.9101 26.56 43.82 26.68 43.72 26.77C42.73 27.69 41.84 27.71 40.87 26.77C39.94 25.87 39.06 24.92 38.11 24.04C37.41 23.39 37.12 22.6599 37.17 21.7099C37.23 20.6299 37.18 19.55 37.18 18.23C34.99 21.12 35.3001 24.8001 37.8201 27.1201C38.7001 27.9301 39.0901 28.7699 39.0301 29.9599C38.9501 31.5299 39.0401 33.1101 39.0001 34.6801C38.9801 35.4701 39.27 35.7202 40.04 35.7002C41.54 35.6602 43.05 35.6402 44.55 35.7002C45.43 35.7402 45.63 35.3701 45.6 34.5801C45.55 33.5001 45.6601 32.4101 45.5701 31.3301C45.4201 29.4301 45.82 27.93 47.31 26.48C49.48 24.41 49.4 20.45 47.49 18.48ZM59.9401 32.3398C60.7801 32.3398 61.6201 32.3201 62.4601 32.3501C63.1701 32.3701 63.23 32.0898 62.93 31.5298C60.68 27.3498 57.46 24.1499 53.29 21.8799C52.66 21.5399 52.42 21.6699 52.43 22.3999C52.47 25.1699 51.4 27.4902 49.54 29.4902C49.3 29.7402 48.98 30.0101 49.16 30.3901C49.34 30.8001 49.78 30.6799 50.1 30.6499C51.26 30.5299 52.0101 31.0497 52.5901 32.0097C53.2201 33.0597 53.93 34.0598 54.62 35.0698C54.81 35.3398 54.9601 35.7701 55.4001 35.6201C55.7701 35.4901 55.63 35.0798 55.66 34.7798C55.67 34.6798 55.66 34.5702 55.66 34.4702C55.69 32.9002 56.2401 32.3601 57.8401 32.3501C58.5401 32.3401 59.2401 32.3398 59.9401 32.3398ZM39.7601 59.4101C40.4101 60.5201 41.3601 60.8498 42.3801 60.8198C43.3501 60.7898 44.27 60.4901 44.81 59.4101C43.11 59.4101 41.5201 59.4101 39.7601 59.4101Z" fill="black"/>
</svg>
