<svg width="203" height="177" viewBox="0 0 203 177" fill="none" xmlns="http://www.w3.org/2000/svg">
<path d="M45.3299 122.56C33.7899 109.76 27.4299 93.21 27.4299 75.96C27.4299 44.36 48.7499 16.6699 79.2799 8.63989L74.1499 15.0801L83.14 23.3C59.27 29.58 42.5899 51.24 42.5899 75.96C42.5899 89.45 47.5599 102.4 56.5899 112.41L45.3299 122.56Z" fill="#458EFF"/>
<path d="M46.8298 123.43C47.3898 123.29 65.9499 123.43 65.9499 123.43L56.5898 112.41L45.3298 122.56L46.8298 123.43Z" fill="#458EFF"/>
<path d="M45.3299 122.56C33.7899 109.76 27.4299 93.21 27.4299 75.96C27.4299 44.36 48.7499 16.6699 79.2799 8.63989L74.1499 15.0801L83.14 23.3C59.27 29.58 42.5899 51.24 42.5899 75.96C42.5899 89.45 47.5599 102.4 56.5899 112.41L45.3299 122.56Z" fill="#F15A24"/>
<path d="M46.8298 123.43C47.3898 123.29 65.9499 123.43 65.9499 123.43L56.5898 112.41L45.3298 122.56L46.8298 123.43Z" fill="#F15A24"/>
<path d="M183.81 148.09V123.65C183.81 122.54 185.09 121.91 185.97 122.6L201.5 134.82C202.18 135.35 202.18 136.38 201.5 136.91L185.97 149.13C185.09 149.83 183.81 149.2 183.81 148.09Z" fill="#458EFF"/>
<path d="M186.32 128.61H100V143.14H186.32V128.61Z" fill="#458EFF"/>
<path d="M201.36 134.83L185.83 122.61C184.96 121.92 183.67 122.55 183.67 123.66V128.61H96.3301V143.14H183.67V148.09C183.67 149.2 184.95 149.83 185.83 149.14L201.36 136.92C202.04 136.39 202.04 135.36 201.36 134.83Z" fill="#F15A24"/>
<path d="M96.31 6.38989V21.28C125.81 21.28 149.81 45.28 149.81 74.78C149.81 104.28 125.81 128.28 96.31 128.28H0.73999V143.17H96.31C134.02 143.17 164.7 112.49 164.7 74.78C164.7 37.07 134.02 6.38989 96.31 6.38989Z" fill="#FBB03B"/>
<path d="M99.2 1.66995L99.15 26.1101C99.15 27.2201 97.86 27.8399 96.99 27.1499L81.48 14.8999C80.8 14.3699 80.8 13.3401 81.48 12.8101L97.0399 0.62015C97.9199 -0.06985 99.21 0.549955 99.2 1.66995Z" fill="#FBB03B"/>
<g opacity="0.3">
<path d="M99.1901 128.7C99.4901 128.7 93.1201 132.73 88.8301 132.69L88.4201 143.56H85.5801L80.1401 129.03L99.1901 128.7Z" fill="black"/>
</g>
<path d="M93.9402 53.4901C95.9402 56.6401 96.6701 58.55 96.9801 61.64C97.3401 65.26 97.3302 68.47 96.5602 69.43C95.5501 70.7 84.1301 72.38 77.6801 72.41C77.4501 72.41 77.1602 70.38 77.1602 70.38C77.1602 70.38 76.3402 72.42 76.0402 72.42C74.2802 72.42 73.1501 72.41 73.1501 72.41C73.1501 72.41 74.4702 69.3501 75.7502 58.4601C76.3802 53.1401 81.5902 50.7901 84.6902 50.2501C89.8802 49.3501 93.9402 53.4901 93.9402 53.4901Z" fill="#323528"/>
<path d="M79.1202 64.3898C77.3002 61.5598 75.2702 53.79 82.1702 51.04C90.7902 47.61 94.9702 53.0199 95.9802 58.5099C96.9902 64.0099 94.0602 68.3399 88.2602 68.1899C82.4502 68.0399 80.3802 66.3498 79.1202 64.3898Z" fill="#323528"/>
<path d="M93.5303 74.8401C93.5303 74.8401 91.5903 76.33 89.1003 78.48C88.5803 78.93 88.0103 79.3199 87.4003 79.6399C85.7603 80.5099 84.2703 81.01 83.8703 80.22C83.7803 80.05 83.7103 79.8599 83.6603 79.6599C83.3203 78.3399 83.4603 76.4799 84.5303 75.6299C85.7303 74.6699 86.3103 73.8501 86.1003 72.5601C85.9903 71.8201 85.7203 71.0701 85.4103 70.3301L86.3602 69.22L91.3103 64.22C91.1703 67.55 90.9203 73.0201 93.5303 74.8401Z" fill="#FDD8AF"/>
<g opacity="0.2">
<path d="M86.1302 72.8401C87.4902 72.0301 88.9902 70.63 88.8102 69.03C88.7302 68.36 88.5802 67.7201 88.4202 67.3101L85.6501 70.97C85.8801 71.55 85.9602 71.9501 86.1302 72.8401Z" fill="black"/>
</g>
<path d="M92.7002 58.8502C92.2302 63.9402 92.1401 66.1001 89.5201 68.7701C85.5701 72.7801 79.4902 71.43 78.4502 66.39C77.5102 61.85 78.4302 54.29 83.4202 52.15C88.3402 50.04 93.1702 53.7702 92.7002 58.8502Z" fill="#FDD8AF"/>
<path d="M86.3201 60.6999C86.2901 61.2099 85.9801 61.6298 85.6201 61.6398C85.2601 61.6498 84.9901 61.2399 85.0201 60.7299C85.0501 60.2199 85.3601 59.8 85.7201 59.79C86.0801 59.78 86.3501 60.1899 86.3201 60.6999Z" fill="#323528"/>
<path d="M81.0301 60.6101C81.0001 61.1001 80.6901 61.5 80.3401 61.51C79.9901 61.52 79.7201 61.1298 79.7501 60.6398C79.7801 60.1498 80.0901 59.7499 80.4401 59.7399C80.7901 59.7299 81.0601 60.1201 81.0301 60.6101Z" fill="#323528"/>
<path d="M87.0402 58.8202C86.9702 58.8302 86.9002 58.8201 86.8402 58.7801C85.9402 58.1401 85.0002 58.4801 84.9902 58.4801C84.8502 58.5301 84.7002 58.4702 84.6602 58.3402C84.6202 58.2102 84.7002 58.0601 84.8402 58.0101C84.8902 57.9901 86.0602 57.5602 87.1902 58.3602C87.3002 58.4402 87.3202 58.6001 87.2202 58.7101C87.1702 58.7701 87.1002 58.8102 87.0402 58.8202Z" fill="#323528"/>
<path d="M79.2301 58.13C79.1701 58.1 79.13 58.0601 79.11 58.0001C79.07 57.8801 79.1401 57.74 79.2801 57.69C80.6301 57.23 81.5601 57.89 81.6001 57.92C81.7101 58 81.7301 58.1501 81.6401 58.2601C81.5501 58.3701 81.3901 58.3901 81.2801 58.3101C81.2401 58.2801 80.5201 57.79 79.4401 58.15C79.3601 58.17 79.2901 58.16 79.2301 58.13Z" fill="#323528"/>
<path d="M88.4502 54.3301C86.8302 56.0301 87.6402 62.4501 92.1802 63.2901C97.4102 62.0601 93.2802 49.2601 88.4502 54.3301Z" fill="#323528"/>
<path d="M82.3701 65.3601C82.7801 66.0001 83.2801 67.23 83.2801 67.23C83.4001 67.21 83.5201 67.1799 83.6401 67.1499C85.2601 66.7699 85.8901 66.0599 86.0901 65.3899C86.2001 65.0199 86.1801 64.6601 86.1201 64.3701C86.0601 64.0401 85.9401 63.8201 85.9401 63.8201C85.2001 64.5301 83.7201 65 82.9201 65.22C82.5801 65.32 82.3701 65.3601 82.3701 65.3601Z" fill="#323528"/>
<path d="M82.9202 65.22L83.2002 65.77C84.7302 65.41 85.7501 64.9499 86.1201 64.3799C86.0601 64.0499 85.9402 63.8301 85.9402 63.8301C85.2102 64.5301 83.7202 65 82.9202 65.22Z" fill="white"/>
<path d="M83.6401 67.1499C85.2601 66.7699 85.8901 66.0599 86.0901 65.3899C85.5401 65.5399 84.9001 65.7799 84.3701 66.1699C83.9701 66.4599 83.7601 66.8099 83.6401 67.1499Z" fill="#FCB0AA"/>
<path d="M82.4503 60.25C82.4503 60.25 81.4902 62.5399 80.4902 63.6699C81.1402 64.2999 82.3002 63.97 82.3002 63.97L82.4503 60.25Z" fill="#FECEA8"/>
<path d="M84.7002 59.54L85.8702 59.8201C85.3402 60.4101 84.7002 59.54 84.7002 59.54Z" fill="#323528"/>
<path d="M79.4802 59.49L80.6502 59.77C80.1202 60.36 79.4802 59.49 79.4802 59.49Z" fill="#323528"/>
<path d="M83.4502 51.0601C81.4402 51.7401 79.3102 55.2201 78.9502 56.5601C81.8102 57.0301 89.5102 54.3501 89.5102 54.3501C89.5102 54.3501 94.6502 55.7699 92.0502 53.1599C89.4502 50.5599 83.4502 51.0601 83.4502 51.0601Z" fill="#323528"/>
<path d="M94.24 63C93.64 64.04 92.66 64.7 91.77 64.92C90.42 65.26 89.73 63.09 90.19 61.74C90.6 60.53 91.93 59.72 93.24 59.99C94.52 60.26 94.93 61.81 94.24 63Z" fill="#FDD8AF"/>
<path d="M71.0901 72.0901L70.8101 71.6699C72.6301 70.4499 74.2301 65.95 74.9101 64.02C75.6601 61.91 75.9501 59.6399 76.2301 57.4399L76.7301 57.5C76.4501 59.72 76.1501 62.0199 75.3801 64.1799C74.6301 66.3399 73.0501 70.7801 71.0901 72.0901Z" fill="#323528"/>
<path d="M92.3101 65.74C92.8348 65.74 93.2601 65.3147 93.2601 64.79C93.2601 64.2654 92.8348 63.8401 92.3101 63.8401C91.7854 63.8401 91.3601 64.2654 91.3601 64.79C91.3601 65.3147 91.7854 65.74 92.3101 65.74Z" fill="#458EFF"/>
<g opacity="0.1">
<path d="M91.21 63.23C91.06 63.23 90.96 63.11 90.96 62.97C90.98 62.42 91.25 61.9001 91.7 61.5801C92.13 61.2601 92.73 61.15 93.25 61.3C93.38 61.34 93.46 61.4801 93.42 61.6101C93.38 61.7401 93.25 61.82 93.11 61.78C92.74 61.68 92.31 61.75 92 61.98C91.69 62.21 91.48 62.59 91.47 62.98C91.46 63.13 91.34 63.23 91.21 63.23Z" fill="black"/>
</g>
<path d="M53.4899 107.6C53.7399 106.9 55.5499 104.55 56.5199 103.67C57.4799 102.79 60.8899 100.88 60.8899 100.88L63.7699 103.61C63.7699 103.61 63.4999 105.17 62.3399 105.75C61.6699 106.08 60.9799 106.35 60.9799 106.35C60.9799 106.35 60.9899 106.96 60.8299 107.6C60.6499 108.31 60.2899 109.15 59.7099 108.97C59.1299 108.79 59.3899 106.86 59.4299 106.58C59.3899 106.86 59.0599 108.83 58.2599 108.7C57.4899 108.57 57.8699 106.53 57.8699 106.53C57.8699 106.53 57.5899 107.46 57.4499 107.93C57.3099 108.4 56.7199 108.7 56.4099 108.05C56.0499 107.3 56.2799 106.23 56.2799 106.23C56.2799 106.23 55.7199 106.75 54.7599 107.95C54.0899 108.82 53.2799 108.2 53.4899 107.6Z" fill="#FDD8AF"/>
<g opacity="0.1">
<path d="M59.3697 107.2C59.3497 107.2 59.3398 107.2 59.3198 107.2C59.1798 107.17 59.0997 107.04 59.1197 106.91C59.1897 106.54 59.2698 106.16 59.4198 105.79C59.5998 105.35 59.8497 105.02 60.1597 104.79C60.2697 104.71 60.4298 104.73 60.5098 104.85C60.5898 104.96 60.5598 105.12 60.4498 105.2C60.2098 105.37 60.0197 105.63 59.8797 105.98C59.7497 106.31 59.6697 106.67 59.6097 107.01C59.5997 107.12 59.4897 107.2 59.3697 107.2Z" fill="black"/>
</g>
<g opacity="0.1">
<path d="M57.7799 107.07C57.7599 107.07 57.7499 107.07 57.7299 107.07C57.5899 107.04 57.5099 106.91 57.5299 106.78C57.5999 106.41 57.6799 106.03 57.8299 105.66C58.0099 105.22 58.2599 104.89 58.5699 104.66C58.6799 104.58 58.8399 104.6 58.9199 104.72C58.9999 104.83 58.9799 104.99 58.8599 105.07C58.6299 105.24 58.4299 105.51 58.2899 105.85C58.1599 106.18 58.0799 106.54 58.0199 106.88C57.9999 106.99 57.8999 107.07 57.7799 107.07Z" fill="black"/>
</g>
<g opacity="0.1">
<path d="M56.5398 106.34L56.0498 106.24C56.1198 105.87 56.1998 105.49 56.3498 105.12C56.5298 104.69 56.7698 104.35 57.0898 104.12C57.1998 104.04 57.3598 104.06 57.4398 104.18C57.5198 104.29 57.4898 104.45 57.3798 104.53C57.1498 104.7 56.9498 104.97 56.8098 105.31C56.6798 105.64 56.6098 105.98 56.5398 106.34Z" fill="black"/>
</g>
<path d="M76 82.3799C76 82.6999 75.09 94.25 75.09 94.25C74.45 95.45 61.22 100.04 59.53 101.73L62.62 104.9C62.62 104.9 78.36 101.73 80.9 99.8799C83.07 98.2999 82.89 95.54 82.89 91.76C82.89 87.99 84.21 82.71 84.21 82.71L76 82.3799Z" fill="#FDD8AF"/>
<path d="M81.9899 75.5601C75.7499 76.6301 74.8899 85.8601 74.8899 85.8601L73.9399 93.1899L70.3999 95.77L73.7099 102.84C73.7099 102.84 80.7699 100.15 83.8799 98.3101C86.9899 96.4701 87.0699 82.3799 87.0699 82.3799L81.9899 75.5601Z" fill="#F15A24"/>
<g opacity="0.2">
<path d="M80.8701 99.4399C80.9901 99.4899 78.2601 101.02 78.2601 101.02C78.2301 101.04 77.2701 96.99 77.2401 97.01C75.7401 90.22 76.7501 84.8101 76.7501 84.8101C77.8901 87.1701 80.5901 97.4499 80.8701 99.4399Z" fill="black"/>
</g>
<path d="M82.24 107.79C87.44 107.27 94.2 106.86 103 106.66C103 106.66 109.56 122.12 101.78 126.73C99.43 128.13 95.55 128.68 91.28 128.77C86.32 128.88 82.24 124.9 82.24 119.95V107.79Z" fill="#323528"/>
<path d="M99.24 120.52V127.78C92.77 129.65 79.33 128.94 71.35 128.28C67.75 127.99 64.99 124.98 64.99 121.37V115.41C64.99 113.43 66.21 111.67 68.06 110.97C71.93 109.51 78.98 107.34 86.35 107.46C93.49 107.58 99.24 113.38 99.24 120.52Z" fill="#323528"/>
<path d="M104.18 106.66C103.17 105.33 100.84 102.16 100.55 98.82C100.55 98.81 100.55 98.8 100.55 98.79C100.53 98.58 100.52 98.3598 100.52 98.1498C100.47 96.7298 100.48 95.05 100.57 93.03C100.58 92.71 100.6 92.38 100.62 92.05C100.68 90.99 100.76 89.85 100.86 88.61C101.05 86.38 101.32 83.8399 101.69 80.9599C101.77 80.2899 102.4 79.26 102.5 78.55C102.92 75.4 100.06 73.13 96.96 73.26C96.13 73.29 95.26 73.3499 94.37 73.4399C90.9 73.7699 88.05 74.06 85.03 74.78C84.03 75.01 82.99 75.3 82 75.58C78.44 76.6 76.81 81.15 76.76 84.82C76.72 88.23 79.11 95.2 80.75 101.32C80.99 104.83 79.07 106.74 79.65 107.97C80.23 109.19 97.19 105.87 104.19 110.04C104.18 110.01 105.26 108.07 104.18 106.66Z" fill="#FBB03B"/>
<g opacity="0.3">
<path d="M104.18 106.66C103.17 105.33 100.84 102.16 100.55 98.82C100.55 98.81 100.55 98.8 100.55 98.79C100.53 98.58 100.52 98.3598 100.52 98.1498C100.47 96.7298 100.48 95.05 100.57 93.03C100.58 92.71 100.6 92.38 100.62 92.05C100.68 90.99 100.76 89.85 100.86 88.61C101.05 86.38 101.32 83.8399 101.69 80.9599C101.77 80.2899 102.4 79.26 102.5 78.55C102.92 75.4 100.06 73.13 96.96 73.26C96.13 73.29 95.26 73.3499 94.37 73.4399C90.9 73.7699 88.05 74.06 85.03 74.78C84.03 75.01 82.99 75.3 82 75.58C78.44 76.6 76.81 81.15 76.76 84.82C76.72 88.23 79.11 95.2 80.75 101.32C80.99 104.83 79.07 106.74 79.65 107.97C80.23 109.19 97.19 105.87 104.19 110.04C104.18 110.01 105.26 108.07 104.18 106.66Z" fill="#FBB03B"/>
</g>
<g opacity="0.2">
<path d="M101.48 102.22C101.48 102.22 95.49 103.54 92.71 103.66C89.92 103.79 83.89 105.69 83.89 105.69L81.75 107.02L80.99 105.25L84.6 101.99L100.45 98.78C100.64 100.1 101.37 101.96 101.48 102.22Z" fill="#FBB03B"/>
</g>
<g opacity="0.2">
<path d="M94.62 82.5L93.87 92.74L90.47 96.0701L92.85 97.9099L96.08 95.96L97.75 90.21L94.62 82.5Z" fill="#FBB03B"/>
</g>
<path d="M69.0201 175.95L76.9701 172.44L79.4801 169.63L80.2601 170.69L81.2101 170.28C81.6501 166.75 79.9401 165.1 79.0401 164.35C78.9801 164.29 78.8801 164.23 78.7801 164.14C78.7401 164.11 78.7101 164.08 78.6701 164.06C78.6601 164.05 78.6401 164.04 78.6301 164.03C78.5901 164 78.5501 163.97 78.5101 163.94C78.5001 163.93 78.5001 163.93 78.4801 163.93V163.92C78.4601 163.91 78.4401 163.89 78.4101 163.88L74.0501 165.81C74.0501 165.81 73.9801 166.04 73.8401 166.41C73.4001 167.64 72.3301 170.44 71.1301 171.93C71.0801 171.99 71.0301 172.06 70.9801 172.12C70.8401 172.29 70.6901 172.44 70.5401 172.56C67.1901 175.25 69.0201 175.95 69.0201 175.95Z" fill="#323528"/>
<path d="M70.96 172.1C72.2 172.59 73.96 171.36 75.29 169.75C76.04 168.84 76.76 167.39 77.4 166.22C77.81 165.46 78.19 164.82 78.52 164.51C78.71 164.35 78.88 164.27 79.03 164.35L79.02 164.34C78.96 164.28 78.86 164.22 78.76 164.13C78.73 164.11 78.7 164.08 78.65 164.05C78.64 164.04 78.62 164.03 78.61 164.02C78.57 163.99 78.53 163.96 78.49 163.93C78.48 163.92 78.48 163.92 78.46 163.92V163.91C78.44 163.9 78.42 163.88 78.39 163.87C77.93 163.53 77.43 163.18 77.43 163.18L73.33 164.21L73.65 165.78C73.19 167.4 72.23 170.49 71.12 171.92C71.06 171.98 71.01 172.04 70.96 172.1Z" fill="#FDD8AF"/>
<path d="M64.2801 141.54C66.8101 147.83 70.7501 155.85 73.6501 165.9C73.7101 166.08 73.7601 166.27 73.8101 166.45C73.8701 166.65 73.9201 166.84 73.9801 167.03L76.9801 166.3L77.1101 165.78C77.1101 165.78 78.1501 164.98 77.9701 164.79C77.8601 164.67 77.9301 164.45 77.9101 164.26V164.25C77.1001 157.24 73.9901 131.5 70.9001 126.16C70.9001 126.16 74.4001 126.81 77.0501 126.36C78.9601 126.04 81.2801 112.82 81.2801 112.82C81.2801 112.82 76.4101 111.42 71.4101 111.42H71.3401C71.3401 111.42 61.5201 114.33 59.0201 116.53C56.6701 118.6 56.3201 121.99 57.6201 126.02C58.8101 129.71 61.1401 133.75 64.2801 141.54Z" fill="#FDD8AF"/>
<g opacity="0.1">
<path d="M61.4702 119.71C62.0502 117.42 66.2602 115.19 70.6102 113.99C71.3202 113.07 69.5102 111.99 69.5102 111.99L78.0702 111.22L79.5602 112.3L82.1102 112.83L79.8302 123.06L70.4802 124.7L76.4002 152.15L77.1002 157.57C77.1002 157.57 67.0802 136.06 64.9902 131.49C62.8902 126.91 60.4602 123.67 61.4702 119.71Z" fill="black"/>
</g>
<path d="M81.28 112.82C81.28 112.82 67.92 115.65 65.31 117.71C63.09 119.47 63.03 121.76 63.75 123.92C65.74 129.9 72.88 139.87 81.06 168.5L85.74 167.03C85.29 167.03 84.11 152.08 83.77 140.08C83.61 134.42 80.7 129.54 79.57 127.56C79.57 127.56 84.34 128.2 86.99 127.76C90.39 127.2 92.55 115.84 81.28 112.82Z" fill="#FDD8AF"/>
<g opacity="0.2">
<path d="M79.8401 128.1C79.8401 128.1 78.0701 125.16 75.8601 123.92C75.8601 123.92 78.5801 124.1 80.2801 127.65L79.5701 127.56L79.8401 128.1Z" fill="black"/>
</g>
<path d="M87.3302 173.2L86.3502 173.41L85.5402 172.06C85.4402 171.9 85.2202 171.86 85.0802 171.99L82.3102 174.56L74.7302 176.22C74.7302 176.22 73.0402 174.44 76.8102 173.3C76.9902 173.25 77.1502 173.1 77.3202 172.97C79.1802 171.54 81.4202 167.6 81.4202 167.6L85.9102 166.61C85.9102 166.61 86.1202 166.8 86.4202 167.18C87.1202 168.07 88.4202 169.95 87.3302 173.2Z" fill="#323528"/>
<path d="M86.4103 167.19C86.4103 167.2 86.4103 167.2 86.4103 167.2C85.6703 166.67 83.6103 170.16 81.8503 171.59C80.2803 172.86 78.3803 173.68 77.3103 172.98C79.1703 171.55 81.5103 166.58 81.5103 166.58L85.1203 165.79C85.1203 165.78 86.1103 166.81 86.4103 167.19Z" fill="#FDD8AF"/>
<path d="M72.6502 114.76L85.8202 109.75C86.1102 109.64 86.0402 109.17 85.7302 109.16L64.5902 108.91C64.5402 108.91 64.4902 108.92 64.4402 108.95L56.3102 114.21C56.0702 114.37 56.1702 114.77 56.4502 114.77H72.5402C72.5902 114.78 72.6202 114.77 72.6502 114.76Z" fill="#323528"/>
<g opacity="0.7">
<path d="M72.6502 114.76L85.8202 109.75C86.1102 109.64 86.0402 109.17 85.7302 109.16L64.5902 108.91C64.5402 108.91 64.4902 108.92 64.4402 108.95L56.3102 114.21C56.0702 114.37 56.1702 114.77 56.4502 114.77H72.5402C72.5902 114.78 72.6202 114.77 72.6502 114.76Z" fill="white"/>
</g>
<g opacity="0.7">
<path d="M72.7003 113.27L81.1902 110.14L71.2502 109.93L72.7003 113.27Z" fill="white"/>
</g>
<g opacity="0.3">
<path d="M85.8301 109.75L72.6601 114.76C72.6301 114.77 72.6001 114.78 72.5701 114.78H72.3601L72.1101 114.05L85.7401 109.16C86.0501 109.17 86.1201 109.64 85.8301 109.75Z" fill="black"/>
</g>
<path d="M55.4601 114.78H72.6101C72.9101 114.78 73.1401 114.58 73.1401 114.35C73.1401 114.31 73.1301 114.26 73.1101 114.22L65.4801 96.73C65.2901 96.23 64.7101 95.8899 64.0601 95.8899H46.9001C46.6101 95.8899 46.3701 96.0801 46.3701 96.3101C46.3701 96.3601 46.3801 96.41 46.4001 96.45L54.0301 113.94C54.2401 114.43 54.8101 114.77 55.4601 114.78Z" fill="#323528"/>
<g opacity="0.7">
<path d="M46.9102 95.8799H64.0702C64.7202 95.8799 65.3002 96.22 65.4902 96.72L73.1202 114.21C73.1402 114.25 73.1502 114.3 73.1502 114.34C73.1502 114.58 72.9102 114.77 72.6202 114.77H55.4702C54.8202 114.76 54.2502 114.42 54.0502 113.93L46.4202 96.4399C46.4002 96.3899 46.3902 96.35 46.3902 96.3C46.3802 96.07 46.6202 95.8799 46.9102 95.8799Z" fill="white"/>
</g>
<path d="M57.54 105.72C57.91 106.56 58.66 107.14 59.22 107.02C59.78 106.9 59.93 106.14 59.57 105.3C59.21 104.46 58.45 103.9 57.89 104.01C57.33 104.12 57.16 104.86 57.54 105.72Z" fill="white"/>
<g opacity="0.3">
<path d="M63.9702 95.8799H64.0702C64.7202 95.8799 65.3002 96.22 65.4902 96.72L73.1202 114.21C73.1402 114.25 73.1502 114.3 73.1502 114.34C73.1502 114.58 72.9102 114.77 72.6202 114.77H72.0702L63.9702 95.8799Z" fill="black"/>
</g>
<path d="M94.9499 81.53C94.9499 81.85 95.9799 93.29 95.9799 93.29C95.3399 94.49 82.1099 99.08 80.4199 100.77L83.4999 103.94C83.4999 103.94 99.2399 100.77 101.78 98.9199C103.95 97.3399 103.77 94.58 103.77 90.8C103.77 87.02 102.94 81.53 102.94 81.53H94.9499Z" fill="#F15A24"/>
<path d="M96.29 74.4801C93.04 75.8401 95.5201 93.2301 95.5201 93.2301L92.3201 94.5802L94.29 101.99C94.29 101.99 98.23 101.24 102.16 100.44C106.32 99.59 106.93 89.99 104.85 82.21C102.76 74.43 100.09 72.8901 96.29 74.4801Z" fill="#F15A24"/>
<path d="M74.9 109.1C74.97 108.36 76.15 105.64 76.87 104.55C77.59 103.46 80.42 100.77 80.42 100.77L83.88 102.71C83.88 102.71 84 104.29 83.02 105.13C82.45 105.61 81.85 106.04 81.85 106.04C81.85 106.04 82.01 106.63 82.01 107.29C82.01 108.02 81.87 108.93 81.26 108.9C80.66 108.87 80.44 106.93 80.41 106.65C80.44 106.93 80.61 108.92 79.8 108.99C79.02 109.06 78.89 106.99 78.89 106.99C78.89 106.99 78.85 107.96 78.82 108.45C78.79 108.94 78.3 109.37 77.84 108.82C77.31 108.18 77.26 107.09 77.26 107.09C77.26 107.09 76.84 107.73 76.21 109.13C75.78 110.13 74.84 109.73 74.9 109.1Z" fill="#F15A24"/>
<g opacity="0.1">
<path d="M80.1899 107.03L80.4399 107.02H80.1899C80.1699 106.65 80.1499 106.26 80.2099 105.87C80.2799 105.4 80.4299 105.02 80.6799 104.72C80.7699 104.61 80.9299 104.6 81.0299 104.69C81.1399 104.78 81.1499 104.94 81.0599 105.04C80.8699 105.26 80.7499 105.56 80.6999 105.94C80.6499 106.28 80.6699 106.63 80.6899 107L80.1899 107.03Z" fill="#F15A24"/>
</g>
<g opacity="0.1">
<path d="M78.8701 107.53C78.7401 107.53 78.6301 107.43 78.6201 107.29C78.6001 106.91 78.5801 106.52 78.6401 106.13C78.7001 105.67 78.8701 105.28 79.1101 104.98C79.2001 104.87 79.3601 104.86 79.4601 104.95C79.5701 105.04 79.5801 105.2 79.4901 105.3C79.3001 105.52 79.1801 105.83 79.1301 106.2C79.0801 106.55 79.1001 106.92 79.1201 107.27C79.1301 107.41 79.0201 107.53 78.8801 107.53H78.8701Z" fill="#F15A24"/>
</g>
<g opacity="0.1">
<path d="M77.3 107.4C77.17 107.4 77.06 107.3 77.05 107.16C77.03 106.78 77.01 106.39 77.07 106C77.13 105.54 77.3 105.15 77.54 104.85C77.63 104.74 77.79 104.73 77.89 104.82C78 104.91 78.01 105.07 77.92 105.17C77.73 105.39 77.61 105.7 77.56 106.07C77.51 106.42 77.53 106.79 77.55 107.14C77.56 107.28 77.45 107.4 77.31 107.4H77.3Z" fill="#F15A24"/>
</g>
</svg>
