<svg width="81" height="47" viewBox="0 0 81 47" fill="none" xmlns="http://www.w3.org/2000/svg">
<path d="M66.1404 0.669983C66.7904 1.20998 66.9604 1.88997 66.9604 2.71997C66.9404 9.52997 66.9605 16.35 66.9305 23.16C66.9305 24.05 67.1804 24.32 68.0804 24.3C71.4704 24.25 74.8604 24.28 78.2504 24.28C79.7804 24.28 80.2704 24.75 80.2704 26.25C80.2704 32.66 80.2605 39.08 80.2905 45.49C80.2905 46.39 80.0104 46.66 79.1304 46.63C76.9004 46.55 77.1904 46.87 77.1904 44.72C77.1804 39.29 77.1704 33.87 77.2004 28.44C77.2104 27.57 76.9304 27.34 76.0904 27.35C73.4404 27.4 70.7904 27.4 68.1404 27.35C67.2204 27.33 66.9205 27.56 66.9305 28.53C66.9805 34.11 66.9504 39.69 66.9504 45.27C66.9504 46.61 66.9505 46.62 65.6605 46.61C63.6405 46.6 63.8704 46.82 63.8704 44.85C63.8604 31.56 63.8704 18.27 63.8704 4.97998C63.8704 3.68998 63.8705 3.69 62.5405 3.69C58.5005 3.69 54.4605 3.69 50.4205 3.69C49.1905 3.69 49.1904 3.69002 49.1904 4.90002C49.1904 18.28 49.1904 31.66 49.1904 45.04C49.1904 46.76 49.3404 46.6 47.5704 46.61C47.2904 46.61 47.0204 46.6 46.7404 46.6C46.3304 46.61 46.1104 46.43 46.1104 46C46.1104 45.69 46.1004 45.38 46.1004 45.08C46.1004 37.13 46.1004 29.17 46.1004 21.22C46.1004 19.98 46.1005 19.98 44.9105 19.98C41.7705 19.98 38.6204 20.01 35.4804 19.96C34.6304 19.95 34.3704 20.19 34.3804 21.05C34.4104 29.1 34.4004 37.14 34.4004 45.19C34.4004 46.61 34.4004 46.62 33.0104 46.62C31.1304 46.61 31.3204 46.8 31.3204 44.94C31.3104 34.27 31.3104 23.6 31.3304 12.94C31.3304 12.12 31.0804 11.58 30.4404 11.07C28.5104 9.53001 26.6204 7.94002 24.7604 6.33002C24.1904 5.84002 23.8404 5.76999 23.2304 6.29999C21.3604 7.94999 19.4304 9.53998 17.4804 11.1C16.8604 11.59 16.6204 12.11 16.6204 12.9C16.6404 23.6 16.6404 34.3 16.6304 45C16.6304 46.8 16.8004 46.63 14.9804 46.64C13.5404 46.65 13.5405 46.64 13.5405 45.17C13.5405 39.13 13.5205 33.08 13.5605 27.04C13.5705 26.14 13.2905 25.88 12.4105 25.9C9.82046 25.95 7.23044 25.92 4.64044 25.92C3.31044 25.92 3.31048 25.92 3.31048 27.21C3.31048 33.25 3.31048 39.3 3.31048 45.34C3.31048 46.64 3.3104 46.65 1.9804 46.64C0.0304039 46.63 0.230404 46.84 0.230404 44.93C0.220404 38.27 0.230404 31.61 0.230404 24.95C0.230404 23.26 0.660428 22.83 2.38043 22.83C5.74043 22.83 9.10038 22.81 12.4604 22.85C13.2904 22.86 13.5804 22.64 13.5704 21.77C13.5204 18.38 13.5705 14.99 13.5405 11.6C13.5305 10.72 13.7904 10.07 14.4704 9.51001C17.2304 7.24001 19.9604 4.93002 22.7204 2.65002C23.6304 1.90002 24.3204 1.89 25.2104 2.63C28.0204 4.95 30.8004 7.28999 33.6004 9.60999C34.2004 10.1 34.4305 10.7 34.4205 11.47C34.3805 12.95 34.4404 14.43 34.4004 15.91C34.3804 16.65 34.5804 16.94 35.3804 16.93C38.6504 16.89 41.9205 16.9 45.1805 16.93C45.9105 16.94 46.1404 16.71 46.1404 15.98C46.1104 11.57 46.1404 7.16 46.1104 2.75C46.1004 1.92 46.2805 1.23001 46.9305 0.700012C53.3105 0.670012 59.7304 0.669983 66.1404 0.669983Z" fill="black"/>
<path d="M23.9899 13.93C25.2199 13.93 26.45 13.94 27.68 13.92C28.22 13.91 28.4598 14.12 28.4498 14.68C28.4198 17.53 28.7599 16.97 26.2999 17.01C24.3299 17.04 22.3599 16.99 20.3899 17.03C19.6799 17.04 19.3999 16.82 19.4199 16.08C19.4799 13.54 19.1399 13.98 21.4799 13.93C22.3299 13.91 23.1599 13.93 23.9899 13.93Z" fill="#F18823"/>
<path d="M23.9106 24.41C22.6806 24.41 21.4505 24.4 20.2205 24.42C19.6705 24.43 19.4505 24.21 19.4505 23.66C19.4805 20.82 19.1405 21.38 21.6005 21.34C23.5705 21.31 25.5406 21.36 27.5106 21.32C28.2306 21.31 28.4905 21.55 28.4705 22.28C28.4105 24.81 28.7506 24.38 26.4006 24.42C25.5706 24.43 24.7406 24.42 23.9106 24.41C23.9106 24.42 23.9106 24.42 23.9106 24.41Z" fill="#F18823"/>
<path d="M52.0098 9.47998C52.0098 8.00998 52.0098 8.01001 53.6298 8.01001C55.0998 8.01001 55.0997 8.01 55.0997 9.63C55.0997 11.1 55.0998 11.1 53.3898 11.1C52.0098 11.09 52.0098 11.09 52.0098 9.47998Z" fill="#F18823"/>
<path d="M61.0197 9.54999C61.0197 11.09 61.0196 11.09 59.4696 11.09C57.9296 11.09 57.9297 11.09 57.9297 9.45001C57.9297 8.00001 57.9296 8 59.5696 8C61.0196 8.01 61.0197 8.00999 61.0197 9.54999Z" fill="#F18823"/>
<path d="M53.5797 15.41C55.0997 15.41 55.0997 15.41 55.0997 16.98C55.0897 18.67 55.2197 18.49 53.4397 18.5C52.0097 18.51 52.0098 18.5 52.0098 16.84C52.0198 15.41 52.0197 15.41 53.5797 15.41Z" fill="#F18823"/>
<path d="M59.4196 18.5C57.9396 18.5 57.9395 18.5 57.9395 16.89C57.9395 15.41 57.9396 15.41 59.5496 15.41C61.0396 15.41 61.0395 15.41 61.0295 17.11C61.0195 18.5 61.0196 18.5 59.4196 18.5Z" fill="#F18823"/>
<path d="M53.6097 22.81C55.0997 22.81 55.1097 22.81 55.0997 24.41C55.0897 26.07 55.2198 25.89 53.4098 25.9C52.0098 25.91 52.0098 25.9 52.0098 24.21C52.0198 22.81 52.0197 22.81 53.6097 22.81Z" fill="#F18823"/>
<path d="M57.9297 24.26C57.9297 22.8 57.9297 22.8 59.5597 22.8C61.0197 22.8 61.0197 22.8 61.0197 24.43C61.0197 25.89 61.0196 25.89 59.3896 25.89C57.9296 25.9 57.9297 25.9 57.9297 24.26Z" fill="#F18823"/>
</svg>
