<svg width="64" height="89" viewBox="0 0 64 89" fill="none" xmlns="http://www.w3.org/2000/svg">
<path d="M30.0602 88.5897C27.8702 88.0297 25.8702 87.1201 24.2502 85.4901C22.6802 83.9201 21.6302 82.06 21.2002 79.89C21.0802 79.29 20.8202 78.9097 20.2902 78.6097C18.3302 77.4897 17.5702 75.7499 17.9002 73.5599C17.9902 72.9399 17.8202 72.7 17.3202 72.43C13.8302 70.51 13.7302 66.0701 17.1502 63.9901C17.6302 63.7001 17.7702 63.3699 17.8502 62.8299C18.1502 60.6099 17.5102 59 15.5702 57.62C12.9102 55.74 10.3802 53.64 8.20022 51.16C4.01022 46.4 1.41023 40.8997 0.770228 34.5897C-0.429772 22.6697 3.88022 13.0997 13.5102 6.02965C18.4902 2.36965 24.1902 0.56963 30.3902 0.50963C31.7002 0.49963 33.0102 0.529865 34.3202 0.499865C34.9702 0.489865 35.2602 0.690002 35.2602 1.39C35.2402 5.55 35.2402 9.69973 35.2602 13.8597C35.2602 14.5197 35.0502 14.8299 34.3602 14.7899C33.6402 14.7499 32.9202 14.7599 32.2002 14.7899C30.3402 14.8699 28.9902 16.17 28.9902 17.85C28.9802 19.48 30.3902 20.8398 32.2002 20.9198C32.9202 20.9498 33.6402 20.9598 34.3602 20.9198C35.0502 20.8798 35.2802 21.1797 35.2702 21.8397C35.2402 23.8397 35.2902 25.8299 35.2502 27.8299C35.2402 28.5599 35.4802 28.8099 36.2102 28.7899C37.6502 28.7499 39.0902 28.7599 40.5302 28.7899C41.1402 28.7999 41.3602 28.6001 41.4602 27.9701C41.9702 24.7001 44.5402 22.5001 47.7502 22.4901C50.9702 22.4901 53.5602 24.6798 54.0602 27.9398C54.1702 28.6398 54.4402 28.7896 55.0702 28.7796C57.5602 28.7596 60.0402 28.7896 62.5302 28.7596C63.2902 28.7496 63.5402 28.9999 63.5602 29.7699C63.7502 39.9299 59.9102 48.2301 52.1302 54.7201C50.4202 56.1501 48.7002 57.5498 46.9602 58.9398C46.4502 59.3498 46.1902 59.7901 46.2602 60.4501C46.3002 60.8101 46.3002 61.1697 46.2602 61.5297C46.1002 62.8197 46.4502 63.6699 47.6502 64.4999C50.3802 66.4099 49.9202 70.6497 46.9402 72.2997C46.3002 72.6597 46.1102 72.9698 46.2102 73.7298C46.4902 75.8398 45.6802 77.5097 43.8102 78.5897C43.3602 78.8497 43.0502 79.1298 42.9302 79.6698C41.9102 84.2998 39.0502 87.17 34.4902 88.41C34.3302 88.45 34.1802 88.5097 34.0302 88.5697C32.6802 88.5897 31.3702 88.5897 30.0602 88.5897ZM10.2102 32.0799C8.74023 32.0799 7.27019 32.0799 5.79019 32.0799C3.80019 32.0799 3.76024 32.0997 4.03024 34.1297C4.97024 41.1297 8.0302 47.01 13.4302 51.6C15.7002 53.53 18.0102 55.3999 20.3302 57.2699C20.9002 57.7299 21.1402 58.2198 21.1102 58.9398C21.0602 60.1498 21.1102 61.3597 21.0902 62.5697C21.0802 63.1497 21.2802 63.4 21.8802 63.39C24.9902 63.37 28.0902 63.38 31.2002 63.39C31.7502 63.39 31.9602 63.1698 31.9502 62.6297C31.9402 58.9997 31.9402 55.3698 31.9502 51.7298C31.9502 51.2098 31.7802 51 31.2402 50.91C27.8002 50.32 25.6502 47.8296 25.6702 44.5096C25.6902 41.3296 27.8902 38.8099 31.2102 38.2699C31.8102 38.1699 31.9702 37.9297 31.9602 37.3797C31.9402 35.9697 31.9002 34.56 31.9702 33.16C32.0102 32.27 31.6902 32.0399 30.8402 32.0599C28.3902 32.1099 25.9302 32.0597 23.4802 32.0897C22.7602 32.0997 22.4802 31.84 22.5202 31.12C22.5602 30.4 22.5502 29.6798 22.5102 28.9598C22.4102 27.1998 21.0802 25.8399 19.4802 25.8099C17.8202 25.7799 16.4802 27.1398 16.3802 28.9798C16.3402 29.6698 16.3302 30.3599 16.3802 31.0399C16.4402 31.8799 16.0802 32.1097 15.2902 32.0897C13.6102 32.0397 11.9102 32.0799 10.2102 32.0799ZM35.2402 55.5497C35.2402 57.8397 35.2602 60.13 35.2302 62.43C35.2202 63.16 35.4802 63.4 36.2002 63.39C37.8002 63.35 39.4102 63.3897 41.0102 63.3797C43.2302 63.3597 43.1402 63.6398 42.9102 61.4798C42.6302 58.8398 43.5602 57.1497 45.6902 55.5897C48.6602 53.4197 51.6102 51.1499 53.9702 48.2499C57.5402 43.8599 59.6202 38.8701 60.0902 33.2201C60.1602 32.3701 59.9102 32.0497 59.0202 32.0697C56.7302 32.1197 54.4402 32.0897 52.1502 32.0897C50.8302 32.0897 50.8302 32.0799 50.8302 30.8099C50.8302 30.2199 50.8502 29.6299 50.8202 29.0399C50.7402 27.2299 49.3902 25.8197 47.7602 25.8197C46.0902 25.8197 44.7802 27.1699 44.6902 29.0199C44.6602 29.7099 44.6402 30.3999 44.6902 31.0799C44.7402 31.8599 44.4302 32.11 43.6702 32.1C41.1802 32.07 38.7002 32.1099 36.2102 32.0799C35.4902 32.0699 35.2302 32.3099 35.2402 33.0399C35.2702 35.5599 35.2402 38.08 35.2602 40.6C35.2702 41.26 35.0502 41.5597 34.3602 41.5297C33.6402 41.4897 32.9202 41.4997 32.2002 41.5297C30.3502 41.6097 28.9902 42.9097 28.9902 44.5897C28.9902 46.2197 30.4002 47.58 32.2002 47.66C32.8902 47.69 33.5802 47.71 34.2602 47.66C35.0502 47.6 35.2802 47.9398 35.2602 48.6898C35.2102 50.9698 35.2302 53.2597 35.2402 55.5497ZM31.9602 7.64977C31.9602 6.69977 31.9102 5.74967 31.9702 4.79967C32.0302 3.94967 31.6702 3.69988 30.8802 3.76988C29.8402 3.86988 28.7902 3.85986 27.7502 3.99986C19.3702 5.16986 12.8002 9.24994 8.14022 16.3299C5.87022 19.7699 4.57024 23.5898 4.03024 27.6698C3.96024 28.2298 3.85022 28.8097 4.76022 28.7997C7.28022 28.7697 9.80021 28.7797 12.3102 28.7997C12.8302 28.7997 13.0302 28.6199 13.1202 28.0799C13.6902 24.6899 16.1802 22.5096 19.4202 22.5096C22.6802 22.5096 25.1902 24.6897 25.7502 28.0497C25.8402 28.5697 25.9902 28.7997 26.5402 28.7997C28.0802 28.7797 29.6102 28.7797 31.1502 28.7997C31.7602 28.8097 31.9602 28.5498 31.9402 27.9798C31.9102 26.9998 31.9102 26.0199 31.9402 25.0399C31.9602 24.4599 31.7302 24.27 31.1602 24.18C27.8302 23.64 25.6402 21.0897 25.6502 17.8197C25.6602 14.6197 27.8702 12.0699 31.1502 11.5599C31.8102 11.4599 31.9502 11.18 31.9302 10.6C31.9402 9.60996 31.9602 8.62977 31.9602 7.64977ZM32.0102 66.66C28.1202 66.66 24.2302 66.66 20.3402 66.66C18.8002 66.66 18.0102 67.1698 18.0002 68.1498C17.9902 69.1298 18.7902 69.66 20.3202 69.66C28.1302 69.66 35.9402 69.66 43.7502 69.66C45.2602 69.66 46.0802 69.11 46.0402 68.12C46.0102 67.16 45.2302 66.66 43.7702 66.66C39.8502 66.65 35.9302 66.66 32.0102 66.66ZM32.0802 79.2298C29.8302 79.2298 27.5702 79.2501 25.3202 79.2201C24.6002 79.2101 24.4902 79.4597 24.6902 80.0897C25.6202 83.0497 28.8002 85.3597 32.0202 85.3597C35.2202 85.3697 38.4002 83.07 39.3602 80.1C39.6002 79.35 39.3402 79.2101 38.6502 79.2201C36.4602 79.2501 34.2702 79.2298 32.0802 79.2298ZM31.9402 75.9501C34.8102 75.9501 37.6902 75.9501 40.5602 75.9501C42.1002 75.9501 42.8902 75.4398 42.9002 74.4598C42.9102 73.4798 42.1102 72.9398 40.5802 72.9398C34.8602 72.9398 29.1502 72.9398 23.4302 72.9398C23.1402 72.9398 22.8402 72.9298 22.5502 72.9798C21.7102 73.1198 21.1402 73.5998 21.1502 74.4798C21.1602 75.2998 21.7202 75.7698 22.5202 75.8998C22.8402 75.9498 23.1702 75.9398 23.5002 75.9398C26.3202 75.9498 29.1302 75.9501 31.9402 75.9501Z" fill="black"/>
</svg>
