<svg width="93" height="44" viewBox="0 0 93 44" fill="none" xmlns="http://www.w3.org/2000/svg">
<path d="M0.349609 0.520049C0.779609 0.500049 1.20965 0.460051 1.63965 0.460051C31.2996 0.460051 60.9696 0.460051 90.6296 0.460051C90.8796 0.460051 91.1196 0.480051 91.3696 0.460051C91.9596 0.420051 92.1996 0.670049 92.1896 1.27005C92.1496 4.02005 92.4796 3.55002 90.0796 3.55002C60.6596 3.56002 31.2396 3.56003 1.82959 3.56003C1.33959 3.56003 0.849619 3.52003 0.359619 3.50003C0.349619 2.49003 0.349609 1.50005 0.349609 0.520049Z" fill="#F18823"/>
<path d="M67.8899 37.95C66.8799 37.91 66.0299 37.55 65.4199 36.73C64.8499 35.96 64.2799 35.19 63.7399 34.41C63.4499 33.99 63.1799 33.84 62.6699 34.08C60.0399 35.34 57.2799 36.19 54.43 36.79C53.84 36.91 53.6798 37.19 53.6998 37.74C53.7198 38.66 53.7198 39.59 53.6998 40.52C53.6598 42.24 52.4299 43.51 50.7199 43.52C47.7299 43.55 44.7399 43.55 41.7499 43.52C40.0199 43.51 38.8199 42.27 38.7799 40.53C38.7599 39.64 38.7499 38.74 38.7799 37.85C38.7999 37.23 38.6299 36.91 37.9599 36.78C35.1699 36.22 32.4699 35.36 29.8999 34.14C29.3299 33.87 29.01 34.01 28.68 34.51C28.21 35.23 27.6799 35.92 27.1499 36.6C25.9199 38.16 24.3 38.43 22.68 37.29C20.34 35.63 18.0199 33.95 15.7099 32.24C14.1899 31.11 13.9299 29.41 14.9999 27.84C15.5199 27.08 16.0599 26.33 16.6299 25.59C16.9399 25.18 16.9499 24.87 16.5799 24.47C14.6199 22.32 12.9099 19.98 11.4899 17.45C11.2099 16.95 10.8998 16.94 10.4398 17.09C9.50984 17.41 8.56989 17.73 7.61989 17.99C6.01989 18.41 4.52987 17.69 3.96987 16.12C2.96987 13.27 2.06989 10.39 1.11989 7.52001C0.959893 7.03001 1.11985 6.79999 1.57985 6.61999C3.84985 5.72999 3.83986 5.71998 4.58986 7.98998C5.24986 10.01 5.93984 12.02 6.56984 14.06C6.77984 14.74 7.06991 14.96 7.75991 14.68C8.49991 14.38 9.27994 14.17 10.0399 13.92C11.5999 13.4 12.9799 13.8 13.7899 15.22C15.3999 18.05 17.3399 20.62 19.4899 23.06C20.4299 24.12 20.47 25.44 19.68 26.66C19.16 27.46 18.5899 28.23 18.0099 28.99C17.6599 29.45 17.6399 29.74 18.1599 30.11C20.1199 31.5 22.0599 32.92 23.9999 34.35C24.4099 34.65 24.6699 34.64 24.9699 34.2C25.4799 33.43 26.0299 32.68 26.5999 31.95C27.6099 30.65 28.9799 30.26 30.4699 30.94C33.3199 32.23 36.2599 33.19 39.3299 33.83C40.9699 34.17 41.8499 35.33 41.8699 37C41.8799 37.83 41.8899 38.67 41.8699 39.5C41.8499 40.09 42.0699 40.34 42.6699 40.34C45.0099 40.32 47.3598 40.33 49.6998 40.34C50.2998 40.34 50.5199 40.07 50.5199 39.5C50.5199 38.55 50.5099 37.59 50.6099 36.64C50.7699 35.13 51.5699 34.17 53.0399 33.87C56.1299 33.22 59.1099 32.26 61.9799 30.95C63.4899 30.26 64.8799 30.71 65.8999 32.06C66.4599 32.8 66.9999 33.55 67.5299 34.31C67.7799 34.67 67.9999 34.7 68.3599 34.44C70.3499 32.98 72.3399 31.53 74.3499 30.1C74.7799 29.8 74.8099 29.53 74.4899 29.12C73.9399 28.41 73.4199 27.69 72.9199 26.95C71.9599 25.55 71.9899 24.11 73.1199 22.88C75.2099 20.59 77.0099 18.11 78.5499 15.42C79.41 13.92 80.7499 13.45 82.4199 13.95C83.1599 14.17 83.9099 14.36 84.6099 14.68C85.4299 15.05 85.7299 14.76 85.9699 13.97C86.6899 11.61 87.4999 9.27999 88.2299 6.92999C88.4599 6.19999 88.7499 5.94002 89.5399 6.21002C91.9499 7.05002 91.62 6.67998 90.93 8.85998C90.21 11.12 89.4699 13.38 88.7299 15.63C87.9999 17.84 86.5099 18.59 84.2699 17.88C83.5399 17.65 82.7999 17.42 82.0799 17.15C81.5599 16.95 81.2399 17.04 80.9599 17.56C79.5799 20.09 77.8798 22.39 75.9398 24.52C75.5798 24.92 75.5699 25.23 75.8799 25.65C76.4199 26.36 76.9398 27.09 77.4398 27.83C78.5798 29.51 78.3198 31.15 76.6898 32.36C74.4098 34.05 72.1 35.7 69.81 37.37C69.21 37.69 68.5999 37.97 67.8899 37.95Z" fill="#F18823"/>
<path d="M46.5103 28.7C33.1503 28.84 21.2502 20.56 16.8402 8.03999C16.4002 6.79999 16.4102 6.78999 17.6902 6.40999C19.4002 5.89999 19.3603 5.92001 20.0303 7.56001C24.1803 17.62 31.5902 23.67 42.3802 25.26C55.5902 27.21 68.0402 19.6 72.5802 6.96998C72.9302 5.99998 73.3203 5.89998 74.1803 6.21998C75.9603 6.86998 76.2402 6.44002 75.3502 8.63002C70.7602 19.92 62.4003 26.49 50.4103 28.46C49.0503 28.69 47.6603 28.77 46.5103 28.7Z" fill="#F18823"/>
</svg>
