<svg width="214" height="262" viewBox="0 0 214 262" fill="none" xmlns="http://www.w3.org/2000/svg">
<path d="M153.73 3.16989C153.73 3.16989 167.77 -5.4701 175.07 6.9299C180.26 15.7299 177.39 24.5999 181.49 31.7599C187.89 42.9199 183.62 48.2499 174.03 50.2499C164.43 52.2499 149.03 51.9799 151.17 40.7899C153.36 29.3299 142.63 3.00989 153.73 3.16989Z" fill="#3E3E3C"/>
<path d="M169.07 28.1602C169.07 28.1602 170.23 44.5902 173.3 44.8702C173.3 44.8702 166.07 48.4902 158.97 44.8702L158.47 37.3202L169.07 28.1602Z" fill="#FDD8AF"/>
<path d="M101.31 260.41H95.6599L97.4499 172.7H104.98L101.31 260.41Z" fill="#E2EDF9"/>
<g opacity="0.7">
<path d="M101.31 260.41H95.6599L97.4499 172.7H104.98L101.31 260.41Z" fill="#E2EDF9"/>
</g>
<path d="M147.63 260.41H141.99L143.78 172.7H151.3L147.63 260.41Z" fill="#676868"/>
<path d="M193.93 260.41H199.58L197.79 172.7H190.27L193.93 260.41Z" fill="#FFE355"/>
<path d="M193.93 260.41H199.58L197.79 172.7H190.27L193.93 260.41Z" fill="#676868"/>
<path d="M194.33 172.7H101.64V180.9H194.33V172.7Z" fill="#FFE355"/>
<path d="M194.33 172.7H101.64V180.9H194.33V172.7Z" fill="#676868"/>
<path d="M147.61 260.41H153.25L151.46 172.7H143.94L147.61 260.41Z" fill="#FFE355"/>
<path d="M147.61 260.41H153.25L151.46 172.7H143.94L147.61 260.41Z" fill="#515454"/>
<path d="M199.95 68.8301H184.6C176.54 68.8301 167.98 73 165.72 80.73C159.32 102.6 154.47 171.19 154.47 171.19H195.57C200.56 171.19 204.76 167.43 205.3 162.47L213.91 84.41C214.82 76.09 208.31 68.8301 199.95 68.8301Z" fill="#3E3E3C"/>
<g opacity="0.6">
<path d="M199.95 68.8301H184.6C176.54 68.8301 167.98 73 165.72 80.73C159.32 102.6 154.47 171.19 154.47 171.19H195.57C200.56 171.19 204.76 167.43 205.3 162.47L213.91 84.41C214.82 76.09 208.31 68.8301 199.95 68.8301Z" fill="white"/>
</g>
<path d="M190.58 68.8301H175.23C167.17 68.8301 158.61 73 156.35 80.73C149.95 102.6 145.1 171.19 145.1 171.19H184.77C190.58 171.19 195.45 166.82 196.09 161.05L204.54 84.41C205.46 76.09 198.95 68.8301 190.58 68.8301Z" fill="#3E3E3C"/>
<g opacity="0.5">
<path d="M190.58 68.8301H175.23C167.17 68.8301 158.61 73 156.35 80.73C149.95 102.6 145.1 171.19 145.1 171.19H184.77C190.58 171.19 195.45 166.82 196.09 161.05L204.54 84.41C205.46 76.09 198.95 68.8301 190.58 68.8301Z" fill="#152121"/>
</g>
<path d="M159.51 172.7H99.4399C93.8999 172.7 89.4099 168.21 89.4099 162.67C89.4099 157.13 93.8999 152.64 99.4399 152.64H159.51V172.7Z" fill="#3E3E3C"/>
<g opacity="0.5">
<path d="M159.51 172.7H99.4399C93.8999 172.7 89.4099 168.21 89.4099 162.67C89.4099 157.13 93.8999 152.64 99.4399 152.64H159.51V172.7Z" fill="white"/>
</g>
<path d="M196.23 172.7H157.43C152.13 172.7 147.83 168.4 147.83 163.1V162.23C147.83 156.93 152.13 152.63 157.43 152.63H196.23C201.77 152.63 206.26 157.12 206.26 162.66C206.26 168.21 201.77 172.7 196.23 172.7Z" fill="#3E3E3C"/>
<g opacity="0.6">
<path d="M196.23 172.7H157.43C152.13 172.7 147.83 168.4 147.83 163.1V162.23C147.83 156.93 152.13 152.63 157.43 152.63H196.23C201.77 152.63 206.26 157.12 206.26 162.66C206.26 168.21 201.77 172.7 196.23 172.7Z" fill="white"/>
</g>
<path d="M139.91 66.8398C139.91 66.8398 141.25 81.4298 134.36 87.5998C128.09 93.2198 117.96 95.9898 117.96 95.9898L109.03 93.3898C108.17 93.1398 107.27 93.3998 106.73 94.0698L102.74 98.9098C101.94 99.8798 102.15 101.36 103.2 102.16C103.69 102.54 104.31 102.71 104.91 102.64L109.53 102.07C109.53 102.07 113.76 102.85 115.16 102.75C116.26 102.67 119.36 101.57 119.36 101.57C119.36 101.57 135.28 100.2 142.07 93.4098C148.86 86.6198 150.56 72.5298 150.56 72.5298L139.91 66.8398Z" fill="#FDD8AF"/>
<path d="M93.02 222.31L94.06 254.23H101.2L104.55 221.73L93.02 222.31Z" fill="#F6F4FC"/>
<path d="M93.9501 250.96L102.1 251C102.45 251 102.76 251.25 102.84 251.59L104.52 259.25C104.67 259.93 104.25 260.6 103.57 260.76C103.48 260.78 103.39 260.79 103.3 260.79C99.91 260.72 96.8901 260.53 92.6701 260.53C87.6801 260.52 88.95 261.12 83.09 261.19C79.56 261.23 78.9201 257.21 80.4201 257.02C87.2801 256.17 89.26 254.09 91.91 251.64C92.47 251.17 93.2001 250.92 93.9501 250.96Z" fill="#3E3E3C"/>
<g opacity="0.1">
<path d="M101.92 247.23L102.73 239.41H93.5801L93.8301 247.23H101.92Z" fill="#3E3E3C"/>
</g>
<path d="M176.66 102.32C176.66 102.32 198.93 152.91 177.54 152.91C156.15 152.91 115.82 152.91 115.82 152.91C115.82 152.91 113.15 166.36 103.53 240.31H93.2099C93.2099 240.31 91.4799 153.7 97.1899 140.78C101.66 130.66 130.32 123.42 143.89 120.76C147.54 120.05 150.33 117.09 150.83 113.41L153.84 100.98L176.66 102.32Z" fill="#3E3E3C"/>
<g opacity="0.2">
<path d="M176.66 102.32C176.66 102.32 198.93 152.91 177.54 152.91C156.15 152.91 115.82 152.91 115.82 152.91C115.82 152.91 113.15 166.36 103.53 240.31H93.2099C93.2099 240.31 91.4799 153.7 97.1899 140.78C101.66 130.66 130.32 123.42 143.89 120.76C147.54 120.05 150.33 117.09 150.83 113.41L153.84 100.98L176.66 102.32Z" fill="black"/>
</g>
<path d="M91.25 238.54L92.07 244.16H104.34L105.47 238.54H91.25Z" fill="#3E3E3C"/>
<g opacity="0.2">
<path d="M91.25 238.54L92.07 244.16H104.34L105.47 238.54H91.25Z" fill="white"/>
</g>
<path d="M114.48 222.32L115.68 253.82L122.52 253.81L127.42 221.74L114.48 222.32Z" fill="#F6F4FC"/>
<g opacity="0.1">
<path d="M123.53 247.23L124.72 239.41H115.13L115.43 247.23H123.53Z" fill="#3E3E3C"/>
</g>
<path d="M115.84 250.96L123.99 251C124.34 251 124.65 251.25 124.73 251.59L126.41 259.25C126.56 259.93 126.14 260.6 125.46 260.76C125.37 260.78 125.28 260.79 125.19 260.79C121.8 260.72 118.78 260.53 114.56 260.53C109.57 260.52 110.84 261.12 104.98 261.19C101.45 261.23 100.81 257.21 102.31 257.02C109.17 256.17 111.15 254.09 113.8 251.64C114.37 251.17 115.09 250.92 115.84 250.96Z" fill="#3E3E3C"/>
<path d="M187.92 103.2C187.92 103.2 189.52 103.2 191.93 115.15C194.99 130.33 199.41 152.91 184.84 152.91C163.45 152.91 137.61 152.91 137.61 152.91C137.61 152.91 135.3 158.4 125.25 240.31H114.93C114.93 240.31 109.2 152.66 114.9 139.74C119.3 129.79 141.16 125.24 153.18 123.68C156.61 123.23 159.45 120.47 159.54 117.02C159.63 113.41 159.11 102.59 159.11 102.59L187.92 103.2Z" fill="#3E3E3C"/>
<path d="M112.86 238.54L114.05 244.16H125.95L127.09 238.54H112.86Z" fill="#3E3E3C"/>
<g opacity="0.2">
<path d="M112.86 238.54L114.05 244.16H125.95L127.09 238.54H112.86Z" fill="white"/>
</g>
<path d="M147.5 44.96C141.75 44.09 138.49 58.26 138.19 71.64L151.85 74.84C151.85 74.84 158.27 46.58 147.5 44.96Z" fill="#FFE355"/>
<path d="M147.5 44.96C141.75 44.09 138.49 58.26 138.19 71.64L151.85 74.84C151.85 74.84 158.27 46.58 147.5 44.96Z" fill="#FBB03B"/>
<path d="M151.15 109.55C151.15 109.55 150.84 100.06 148.95 88.0798C146.78 74.3198 143.08 58.8498 144.33 49.0598C144.67 46.4198 146.81 44.5898 149.55 44.5898H186.9C189.28 44.5898 191.33 46.8398 191.05 49.1398C189.76 59.6298 186.53 85.7398 191.47 110.39C191.47 110.38 162.94 112.66 151.15 109.55Z" fill="#F15A24"/>
<path d="M183.55 63.2803C183.55 63.2803 186.03 80.2702 178.54 85.0502C171.05 89.8402 154.68 94.8002 154.68 94.8002L144.56 92.6602C144.02 92.5502 143.48 92.7702 143.2 93.2202L139.15 99.7803C138.85 100.26 138.91 100.89 139.29 101.34C139.59 101.7 140.05 101.89 140.5 101.85L146.63 101.21C146.63 101.21 149.82 101.96 150.88 101.93C152.24 101.89 156.14 100.69 156.14 100.69C156.14 100.69 179.54 98.4103 186.69 91.2603C193.84 84.1103 194.75 69.2902 194.75 69.2902L183.55 63.2803Z" fill="#FDD8AF"/>
<path d="M188.22 44.8998C180.96 44.0298 182.88 60.2598 182 71.6398L195.57 73.1697C195.57 73.1697 199.02 46.1898 188.22 44.8998Z" fill="#FFE355"/>
<path d="M188.22 44.8998C180.96 44.0298 182.88 60.2598 182 71.6398L195.57 73.1697C195.57 73.1697 199.02 46.1898 188.22 44.8998Z" fill="#FBB03B"/>
<path d="M157.77 45.6401C157.77 45.6401 156.37 57.7501 172.38 46.9501C173.39 46.2701 173.76 44.9501 173.25 43.8401C172.7 42.6501 172.12 40.9501 172.09 39.0601C172.07 38.0001 170.85 37.3701 169.97 37.9701C167.7 39.5101 164.05 41.1701 159.09 40.7701C158.1 40.6901 157.36 41.5901 157.63 42.5501C157.88 43.4401 158.02 44.5401 157.77 45.6401Z" fill="#FFE355"/>
<path d="M157.77 45.6401C157.77 45.6401 156.37 57.7501 172.38 46.9501C173.39 46.2701 173.76 44.9501 173.25 43.8401C172.7 42.6501 172.12 40.9501 172.09 39.0601C172.07 38.0001 170.85 37.3701 169.97 37.9701C167.7 39.5101 164.05 41.1701 159.09 40.7701C158.1 40.6901 157.36 41.5901 157.63 42.5501C157.88 43.4401 158.02 44.5401 157.77 45.6401Z" fill="#FBB03B"/>
<g opacity="0.1">
<path d="M169.28 30.5199C169.14 29.0899 169.07 28.1499 169.07 28.1499L158.47 37.3099L158.73 41.2899C161.79 41.0699 166.26 39.0899 169.28 30.5199Z" fill="black"/>
</g>
<path d="M169.92 14.9698C170.77 24.3298 171.34 28.2698 167.39 33.7398C161.45 41.9798 149.77 40.9898 146.13 32.0798C142.86 24.0598 142.01 10.1098 150.51 5.02983C156.56 1.36983 164.44 3.29979 168.11 9.35979C169.14 11.0598 169.76 12.9798 169.92 14.9698Z" fill="#FDD8AF"/>
<path d="M150.22 23.8101C149.86 25.6501 149.25 27.4201 148.41 29.0901C149.28 29.5101 150.29 29.5201 151.18 29.1201L150.22 23.8101Z" fill="#EFC295"/>
<path d="M156.04 17.91C156.1 17.88 156.15 17.84 156.19 17.79C156.32 17.63 156.29 17.3901 156.12 17.2701C156.12 17.2701 156.12 17.2701 156.11 17.2701C155.01 16.3801 153.54 16.0701 152.18 16.4601C151.99 16.5301 151.89 16.7401 151.96 16.9401C152.03 17.1301 152.23 17.2301 152.43 17.1701C153.56 16.8701 154.77 17.1301 155.68 17.8701C155.78 17.9401 155.92 17.96 156.04 17.91Z" fill="#40403F"/>
<path d="M143.05 19.8901C142.99 19.8801 142.92 19.8601 142.87 19.8301C142.7 19.7101 142.66 19.4801 142.77 19.3101C142.77 19.3101 142.77 19.31 142.77 19.3C143.54 18.11 144.84 17.3601 146.26 17.3101C146.46 17.3201 146.62 17.4901 146.62 17.6901C146.61 17.8901 146.45 18.05 146.25 18.05C145.08 18.12 144.01 18.74 143.38 19.72C143.3 19.84 143.18 19.9001 143.05 19.8901Z" fill="#40403F"/>
<path d="M155.3 21.6201C155.44 22.3701 155.15 23.0501 154.65 23.1401C154.15 23.2301 153.66 22.7001 153.53 21.9401C153.4 21.1801 153.68 20.5101 154.17 20.4201C154.65 20.3301 155.16 20.8601 155.3 21.6201Z" fill="#40403F"/>
<path d="M146.8 23.1499C146.94 23.8999 146.65 24.5799 146.16 24.6699C145.67 24.7599 145.17 24.2299 145.03 23.4699C144.89 22.7099 145.18 22.0399 145.67 21.9499C146.16 21.8599 146.67 22.3899 146.8 23.1499Z" fill="#40403F"/>
<path d="M145.89 21.9498L143.99 21.7598C144 21.7498 145.18 22.9898 145.89 21.9498Z" fill="#40403F"/>
<path d="M154.39 20.42L152.49 20.23C152.49 20.23 153.68 21.47 154.39 20.42Z" fill="#40403F"/>
<path d="M173.24 21.9599C172.99 23.7599 172.04 25.3898 170.59 26.4798C168.66 27.9198 166.83 26.3999 166.65 24.1199C166.48 22.0799 167.29 18.8599 169.58 18.3199C171.26 17.9799 172.9 19.0598 173.24 20.7398C173.32 21.1398 173.32 21.5599 173.24 21.9599Z" fill="#EFC295"/>
<path d="M153.75 32.9299C153.48 33.0199 153.21 33.0799 152.93 33.1199C152.84 33.1399 152.75 33.0799 152.74 32.9899C152.74 32.9899 152.74 32.9899 152.74 32.9799C152.73 32.8899 152.8 32.7999 152.89 32.7899C154.32 32.5999 155.58 31.7399 156.27 30.4799C156.31 30.3999 156.41 30.36 156.49 30.4C156.57 30.44 156.61 30.5399 156.57 30.6199C155.99 31.7399 154.97 32.5799 153.75 32.9299Z" fill="#3E3E3C"/>
<path d="M157.17 8.39022C157.17 8.39022 154.61 12.3902 156.59 15.1902C158.57 17.9902 145.1 12.1302 141.64 18.2602C141.64 18.2602 137.25 -0.669806 157.17 1.86019V8.39022Z" fill="#3E3E3C"/>
<path d="M156.59 7.19018C156.59 7.19018 155.1 14.7802 160.03 17.1102C164.96 19.4502 164.83 25.7102 169.27 24.6602C175.67 23.1402 171.09 3.72018 160.72 1.62018C153.03 0.0701759 156.59 7.19018 156.59 7.19018Z" fill="#3E3E3C"/>
<path d="M187.87 115.75H105.78C104.32 115.75 103.13 114.56 103.13 113.1V108.61C103.13 107.15 104.32 105.96 105.78 105.96H187.87C189.33 105.96 190.52 107.15 190.52 108.61V113.1C190.51 114.56 189.33 115.75 187.87 115.75Z" fill="#3E3E3C"/>
<g opacity="0.6">
<path d="M187.87 115.75H105.78C104.32 115.75 103.13 114.56 103.13 113.1V108.61C103.13 107.15 104.32 105.96 105.78 105.96H187.87C189.33 105.96 190.52 107.15 190.52 108.61V113.1C190.51 114.56 189.33 115.75 187.87 115.75Z" fill="white"/>
</g>
<path d="M114.08 115.75H2.95007C1.49007 115.75 0.300049 114.56 0.300049 113.1V108.61C0.300049 107.15 1.49007 105.96 2.95007 105.96H114.09C115.55 105.96 116.74 107.15 116.74 108.61V113.1C116.73 114.56 115.55 115.75 114.08 115.75Z" fill="#3E3E3C"/>
<g opacity="0.5">
<path d="M114.08 115.75H2.95007C1.49007 115.75 0.300049 114.56 0.300049 113.1V108.61C0.300049 107.15 1.49007 105.96 2.95007 105.96H114.09C115.55 105.96 116.74 107.15 116.74 108.61V113.1C116.73 114.56 115.55 115.75 114.08 115.75Z" fill="white"/>
</g>
<path d="M120.9 261.73H115.38L112.96 115.75H123.31L120.9 261.73Z" fill="#FFE355"/>
<path d="M16.8001 261.73H11.2901L8.87012 115.75H19.2201L16.8001 261.73Z" fill="#676868"/>
<g opacity="0.7">
<path d="M16.8001 261.73H11.2901L8.87012 115.75H19.2201L16.8001 261.73Z" fill="#676868"/>
</g>
<path d="M77.6902 261.73H72.1802L69.7603 115.75H80.1102L77.6902 261.73Z" fill="#676868"/>
<g opacity="0.4">
<path d="M77.6902 261.73H72.1802L69.7603 115.75H80.1102L77.6902 261.73Z" fill="#676868"/>
</g>
<path d="M118.14 113.3H14.05V124.72H118.14V113.3Z" fill="#676868"/>
<g opacity="0.3">
<path d="M118.14 113.3H14.05V124.72H118.14V113.3Z" fill="#676868"/>
</g>
<path d="M179.18 113.3H118.14V124.72H179.18V113.3Z" fill="#676868"/>
<g opacity="0.5">
<path d="M179.18 113.3H118.14V124.72H179.18V113.3Z" fill="#676868"/>
</g>
<path d="M181.78 261.73H176.27L173.85 115.75H184.2L181.78 261.73Z" fill="#676868"/>
<g opacity="0.4">
<path d="M181.78 261.73H176.27L173.85 115.75H184.2L181.78 261.73Z" fill="#676868"/>
</g>
<path d="M120.9 261.73H115.38L112.96 115.75H123.31L120.9 261.73Z" fill="#676868"/>
<path d="M109.43 105.96C108.53 105.96 107.8 105.23 107.8 104.33C107.8 103.43 108.53 102.7 109.43 102.7H153.74C154.64 102.7 155.37 103.43 155.37 104.33C155.37 105.23 154.64 105.96 153.74 105.96H109.43Z" fill="#B7B7B7"/>
<g opacity="0.2">
<path d="M109.43 105.96C108.53 105.96 107.8 105.23 107.8 104.33C107.8 103.43 108.53 102.7 109.43 102.7H153.74C154.64 102.7 155.37 103.43 155.37 104.33C155.37 105.23 154.64 105.96 153.74 105.96H109.43Z" fill="#B7B7B7"/>
</g>
<path d="M113.19 103.15L107.29 61.1799C107.07 59.6399 105.65 58.3799 104.1 58.3799H98.45V105.94H110.79C112.34 105.94 113.41 104.69 113.19 103.15Z" fill="#B7B7B7"/>
<path d="M108.35 105.94H58.25C56.71 105.94 55.28 104.69 55.06 103.14L49.16 61.1701C48.94 59.6301 50.02 58.3701 51.56 58.3701H101.66C103.2 58.3701 104.63 59.6201 104.85 61.1701L110.75 103.14C110.97 104.69 109.9 105.94 108.35 105.94Z" fill="#3C3F3F"/>
<g opacity="0.7">
<path d="M108.35 105.94H58.25C56.71 105.94 55.28 104.69 55.06 103.14L49.16 61.1701C48.94 59.6301 50.02 58.3701 51.56 58.3701H101.66C103.2 58.3701 104.63 59.6201 104.85 61.1701L110.75 103.14C110.97 104.69 109.9 105.94 108.35 105.94Z" fill="#3C3F3F"/>
</g>
<g opacity="0.7">
<path d="M82.4101 81.02C82.6101 82.43 81.6301 83.58 80.2101 83.58C78.8001 83.58 77.4901 82.44 77.3001 81.02C77.1001 79.61 78.0901 78.46 79.5001 78.46C80.9101 78.46 82.2101 79.61 82.4101 81.02Z" fill="white"/>
</g>
</svg>
