<svg width="228" height="242" viewBox="0 0 228 242" fill="none" xmlns="http://www.w3.org/2000/svg">
<path d="M8.85986 205.37C8.85986 233.47 56.1399 240.34 114.45 240.34C172.77 240.34 196.18 233.47 196.18 205.37C196.18 177.27 179.72 143.11 121.4 143.11C63.0799 143.11 8.85986 177.27 8.85986 205.37Z" fill="#FFE355"/>
<path d="M8.85986 205.37C8.85986 233.47 56.1399 240.34 114.45 240.34C172.77 240.34 196.18 233.47 196.18 205.37C196.18 177.27 179.72 143.11 121.4 143.11C63.0799 143.11 8.85986 177.27 8.85986 205.37Z" fill="#676868"/>
<path d="M1.22998 166C-0.920025 204.64 9.76999 225.5 34.12 226.85C58.48 228.2 79.96 197.98 82.11 159.34C84.26 120.7 59.72 91.1099 35.36 89.7499C11 88.3899 3.37998 127.36 1.22998 166Z" fill="#FFE355"/>
<path d="M1.22998 166C-0.920025 204.64 9.76999 225.5 34.12 226.85C58.48 228.2 79.96 197.98 82.11 159.34C84.26 120.7 59.72 91.1099 35.36 89.7499C11 88.3899 3.37998 127.36 1.22998 166Z" fill="#676868"/>
<path d="M120.2 146.43C120.2 146.43 142.87 143.56 144.87 151.56C146.87 159.56 107.49 155.16 99.59 163.16C91.69 171.16 125.28 175.27 117.96 180.05C112.22 183.81 92.6 166.76 67.55 173.15C42.5 179.55 38.92 160.65 41.71 143.11C44.5 125.56 46.53 106.7 54.11 108.13C61.68 109.57 86.33 144.11 120.2 146.43Z" fill="black"/>
<path d="M49.7101 175.08C49.7101 175.08 26.2601 170.96 24.9601 180.78C23.6701 190.59 21.8801 176.07 49.7101 175.08Z" fill="black"/>
<path d="M11.9001 216.54C5.31009 208.82 1.74008 196.84 1.08008 180.8C4.10008 211.36 21.83 231.15 92.66 234.34C163.63 237.54 179.25 216.34 186.85 218.88C190.04 219.94 190.05 222.87 189 225.9C178.18 237.09 154.58 240.34 114.45 240.34C64.8101 240.34 23.2001 235.35 11.9001 216.54Z" fill="black"/>
<path d="M133.74 85.8101C133.74 85.8101 130.43 86.3401 128.48 88.3201C126.53 90.3101 120.77 90.1 120.77 90.1L120.2 96.61L133.32 95.85L133.74 85.8101Z" fill="#C8CBD0"/>
<path d="M80.85 46.9098C82.56 46.8098 89.1201 50.2299 93.0701 67.5299C97.0201 84.8299 96.1401 90.6298 126.83 88.6698L125.83 97.2898C125.83 97.2898 99.24 100.14 91.31 93.7699C83.41 87.4199 74.52 47.2798 80.85 46.9098Z" fill="#3E3E3C"/>
<g opacity="0.6">
<path d="M89.6801 68.1899L91.1801 70.84C91.1801 70.84 89.53 87.1399 92.67 94.6599C92.18 94.3799 91.7201 94.09 91.3201 93.77C89.1901 92.06 86.99 87.8899 85.04 82.7199L89.6801 68.1899Z" fill="black"/>
</g>
<path d="M45.89 15.1299C45.89 15.1299 45.67 20.17 43.32 21.21C40.98 22.25 45.04 28.0199 43.91 31.5599C42.78 35.0999 40.15 38.2699 42.96 43.0099C42.96 43.0099 42.35 39.06 44.35 36.71C44.35 36.71 43.52 43.3299 45.66 43.4799C47.8 43.6199 48.23 41.6899 51.75 42.5099C55.27 43.3299 52.16 37.0999 52.16 37.0999C52.16 37.0999 53.58 38.0399 54.52 41.3499C55.47 44.6599 64.78 40.84 68.57 42.2C72.36 43.56 73.41 36.5599 73.41 36.5599C73.41 36.5599 75.1 40.72 73.73 42.14C73.73 42.14 76.71 41.29 77.05 37.33C77.05 37.33 77.92 38.5299 77.48 41.0499C77.48 41.0499 80.35 40.84 79.63 35.27C78.91 29.7 74.57 28.0999 73.44 23.6799C72.31 19.2599 58.39 10.71 58.39 10.71L45.89 15.1299Z" fill="#3E3E3C"/>
<path d="M53.3701 32.1401L65.2301 39.8601C65.1901 48.1901 71.2001 47.7501 71.2001 47.7501C71.2001 47.7501 71.3001 50.6601 64.0401 51.7201C56.7901 52.7901 54.2901 52.5001 54.2901 52.5001C57.9201 48.1801 55.1701 37.7901 53.3701 32.1401Z" fill="#FDD8AF"/>
<g opacity="0.1">
<path d="M66.05 44.3699C65.55 43.2599 65.22 41.8099 65.23 39.8499L54.65 32.96L53.99 34.14C53.99 34.15 58 44.8399 66.05 44.3699Z" fill="black"/>
</g>
<path d="M49.9401 19.4301C51.1501 29.1101 51.4401 33.2301 56.6601 37.9001C64.5101 44.9401 76.1202 41.3501 77.8402 31.5101C79.3801 22.6501 77.1601 8.33006 67.4101 5.05006C60.4601 2.68006 52.9002 6.38009 50.5302 13.3301C49.8602 15.3001 49.6601 17.3801 49.9401 19.4301Z" fill="#FDD8AF"/>
<path d="M71.3401 25.1299C72.1501 26.8899 73.21 28.5299 74.47 30.0099C73.69 30.6499 72.6801 30.9098 71.6901 30.7198L71.3401 25.1299Z" fill="#EFC295"/>
<path d="M62.8101 20.0901C62.7401 20.0801 62.6801 20.0501 62.6301 20.0101C62.4601 19.8801 62.4401 19.6301 62.5701 19.4701C62.5701 19.4701 62.5701 19.4701 62.5701 19.4601C63.4601 18.2901 64.8601 17.6201 66.3401 17.6701C66.5501 17.7001 66.7001 17.8801 66.6801 18.0901C66.6601 18.3001 66.4801 18.4501 66.2701 18.4401C65.0501 18.4201 63.9001 18.9701 63.1701 19.9401C63.0801 20.0601 62.9401 20.1101 62.8101 20.0901Z" fill="#40403F"/>
<path d="M77.16 18.5499C77.09 18.5399 77.03 18.5099 76.98 18.4699C76.03 17.7199 74.78 17.4699 73.62 17.7999C73.42 17.8799 73.2 17.7799 73.12 17.5799C73.05 17.3799 73.16 17.1599 73.36 17.0799C74.77 16.6599 76.3 16.9599 77.46 17.8599C77.64 17.9799 77.68 18.2199 77.56 18.3999C77.46 18.5199 77.31 18.5799 77.16 18.5499Z" fill="#40403F"/>
<path d="M65.6699 24.1698C65.7199 24.9598 66.18 25.5698 66.7 25.5398C67.22 25.5098 67.5899 24.8498 67.5399 24.0498C67.4799 23.2498 67.03 22.6498 66.52 22.6798C66 22.7098 65.6199 23.3798 65.6699 24.1698Z" fill="#40403F"/>
<path d="M74.61 23.62C74.66 24.41 75.12 25.02 75.63 24.99C76.14 24.96 76.52 24.3 76.48 23.5C76.43 22.7 75.97 22.1 75.46 22.13C74.95 22.16 74.55 22.82 74.61 23.62Z" fill="#40403F"/>
<path d="M75.23 22.18L77.09 21.52C77.1 21.52 76.21 23.06 75.23 22.18Z" fill="#40403F"/>
<path d="M66.29 22.7401L68.1501 22.0801C68.1601 22.0801 67.27 23.6201 66.29 22.7401Z" fill="#40403F"/>
<path d="M66.64 32.1C66.43 31.86 66.24 31.6 66.08 31.33C66.02 31.25 66.0399 31.13 66.1299 31.07C66.1299 31.07 66.13 31.07 66.14 31.07C66.23 31.02 66.35 31.05 66.4 31.14C67.24 32.54 68.6899 33.45 70.3099 33.61C70.4099 33.61 70.4999 33.7 70.4999 33.8C70.4999 33.9 70.4099 33.99 70.3099 33.99C68.8799 33.87 67.56 33.19 66.64 32.1Z" fill="#3E3E3C"/>
<path d="M67.5901 5.71008C67.5901 5.71008 72.7901 11.48 67.1201 13.79C61.4501 16.1 56.3601 19.5001 55.5301 24.2801C54.7001 29.0601 50.0801 29.2001 50.0801 29.2001C50.0801 29.2001 42.5901 19.71 47.4301 9.73004C52.2601 -0.249964 65.6201 2.23008 67.5901 5.71008Z" fill="#3E3E3C"/>
<path d="M52.5801 7.21027C52.5801 7.21027 58.8301 -2.46979 69.3101 2.22021C79.7901 6.90021 80.2501 14.8503 77.6201 14.0703C74.9801 13.2903 70.8 12.4903 67.8 7.07025C64.79 1.65025 52.5801 7.21027 52.5801 7.21027Z" fill="#3E3E3C"/>
<path d="M54.1099 25.4403C54.1099 25.4403 59.2699 25.1503 56.8199 31.9403C56.8099 31.9403 56.4299 27.6403 54.1099 25.4403Z" fill="#3E3E3C"/>
<path d="M48.1201 27.26C48.7701 29.03 50.1001 30.47 51.8101 31.26C54.0901 32.29 55.6001 30.34 55.2901 28C55.0101 25.89 53.4801 22.81 51.0401 22.77C49.2601 22.79 47.8401 24.25 47.8601 26.03C47.8601 26.45 47.9501 26.87 48.1201 27.26Z" fill="#EFC295"/>
<path d="M122.19 108.11L94.56 104.28C93.98 104.2 93.65 103.57 93.92 103.04L111.07 69.6302C111.54 68.7102 112.55 68.1902 113.57 68.3302L141.2 72.1602C141.78 72.2402 142.11 72.8702 141.84 73.4002L124.69 106.81C124.21 107.73 123.21 108.26 122.19 108.11Z" fill="#3E3E3C"/>
<g opacity="0.5">
<path d="M122.19 108.11L94.56 104.28C93.98 104.2 93.65 103.57 93.92 103.04L111.07 69.6302C111.54 68.7102 112.55 68.1902 113.57 68.3302L141.2 72.1602C141.78 72.2402 142.11 72.8702 141.84 73.4002L124.69 106.81C124.21 107.73 123.21 108.26 122.19 108.11Z" fill="white"/>
</g>
<path d="M123.27 108.26L95.6401 104.43C95.0601 104.35 94.7301 103.72 95.0001 103.19L112.15 69.7802C112.62 68.8602 113.63 68.3401 114.65 68.4801L142.28 72.3101C142.86 72.3901 143.19 73.0201 142.92 73.5501L125.77 106.96C125.29 107.88 124.29 108.41 123.27 108.26Z" fill="#3E3E3C"/>
<g opacity="0.7">
<path d="M123.27 108.26L95.6401 104.43C95.0601 104.35 94.7301 103.72 95.0001 103.19L112.15 69.7802C112.62 68.8602 113.63 68.3401 114.65 68.4801L142.28 72.3101C142.86 72.3901 143.19 73.0201 142.92 73.5501L125.77 106.96C125.29 107.88 124.29 108.41 123.27 108.26Z" fill="white"/>
</g>
<g opacity="0.7">
<path d="M138.49 78.1004L135.3 77.6604C135.23 77.6504 135.19 77.5804 135.23 77.5204L137.21 73.6704C137.26 73.5604 137.38 73.5004 137.5 73.5204L140.69 73.9604C140.76 73.9704 140.8 74.0404 140.76 74.1004L138.78 77.9504C138.73 78.0504 138.61 78.1104 138.49 78.1004Z" fill="#3E3E3C"/>
</g>
<g opacity="0.3">
<path d="M138.49 78.1004L135.3 77.6604C135.23 77.6504 135.19 77.5804 135.23 77.5204L137.21 73.6704C137.26 73.5604 137.38 73.5004 137.5 73.5204L140.69 73.9604C140.76 73.9704 140.8 74.0404 140.76 74.1004L138.78 77.9504C138.73 78.0504 138.61 78.1104 138.49 78.1004Z" fill="white"/>
</g>
<path d="M121.29 88.7C120.82 90.01 119.74 90.97 118.87 90.85C118.01 90.73 117.69 89.58 118.16 88.27C118.63 86.96 119.71 86 120.58 86.12C121.45 86.24 121.77 87.39 121.29 88.7Z" fill="white"/>
<path d="M149.27 212.93L154.52 234.45L162.05 231.78L159.82 209.92L149.27 212.93Z" fill="#C8CBD0"/>
<path d="M162.65 230.56L153.53 230.73C153.13 230.74 152.8 231.02 152.72 231.4L150.98 239.96C150.82 240.72 151.31 241.46 152.06 241.62C152.16 241.64 152.26 241.65 152.36 241.65C156.14 241.51 159.49 241.25 164.2 241.16C169.75 241.06 168.35 241.75 174.88 241.72C178.81 241.7 179.45 237.22 177.78 237.03C170.13 236.21 167.94 233.94 164.94 231.27C164.29 230.76 163.48 230.51 162.65 230.56Z" fill="#3E3E3C"/>
<g opacity="0.1">
<path d="M161.11 222.6L159.82 209.92L149.27 212.93L152.3 225.37L161.11 222.6Z" fill="black"/>
</g>
<path d="M76.1899 108.67L88.2399 104.03C88.2399 104.03 94.5699 111.02 98.5099 119.34C102.44 127.67 83.5099 127.66 83.5099 127.66L77.5499 116.47L76.1899 108.67Z" fill="#FFE355"/>
<path d="M76.1899 108.67L88.2399 104.03C88.2399 104.03 94.5699 111.02 98.5099 119.34C102.44 127.67 83.5099 127.66 83.5099 127.66L77.5499 116.47L76.1899 108.67Z" fill="#40C5DA"/>
<g opacity="0.2">
<path d="M83.2 105.98C86.62 124.84 92.7199 121.47 92.7199 121.47L90.0499 125.41L82.7999 126.33L77.5499 116.48L76.2 108.67L83.2 105.98Z" fill="black"/>
</g>
<path d="M189.44 173.81L206.29 193.93L212.22 189.46L197.42 167.1L189.44 173.81Z" fill="#C8CBD0"/>
<path d="M209.23 183.86L201.99 189.49C201.67 189.72 201.55 190.14 201.71 190.51L205.15 198.54C205.45 199.25 206.27 199.59 206.99 199.29C207.08 199.25 207.17 199.2 207.25 199.15C210.28 196.89 212.89 194.76 216.71 192.02C221.22 188.78 220.46 190.14 225.82 186.41C229.04 184.16 227.02 180.11 225.54 180.9C218.78 184.57 215.52 183.65 211.54 183.15C210.7 183.1 209.88 183.35 209.23 183.86Z" fill="#3E3E3C"/>
<g opacity="0.1">
<path d="M198.63 184.78L205.76 179.7L197.42 167.1L189.44 173.81L198.63 184.78Z" fill="black"/>
</g>
<path d="M51.74 116.82C51.74 116.82 47.3701 142.07 56.0801 158.39C64.7901 174.71 84.1401 177.68 133.84 125.02C133.84 125.02 151.32 133.15 193.39 180.61L202.75 173.36C202.75 173.36 166.13 113.88 148.43 99.76C130.55 85.5 91.46 125.33 86.48 123.12C82.05 121.15 79.9501 107.41 79.9501 107.41L51.74 116.82Z" fill="#FFE355"/>
<path d="M51.74 116.82C51.74 116.82 47.3701 142.07 56.0801 158.39C64.7901 174.71 84.1401 177.68 133.84 125.02C133.84 125.02 151.32 133.15 193.39 180.61L202.75 173.36C202.75 173.36 166.13 113.88 148.43 99.76C130.55 85.5 91.46 125.33 86.48 123.12C82.05 121.15 79.9501 107.41 79.9501 107.41L51.74 116.82Z" fill="#40C5DA"/>
<path d="M190.39 180.55L194.26 183.98L205.31 174.81L203.42 169.89L190.39 180.55Z" fill="#40C5DA"/>
<path d="M96.3799 158.79C106.43 151.88 118.72 141.03 133.84 125.02C133.84 125.02 148.21 119.71 153.26 129.97C158.3 140.24 161.53 214.46 161.53 214.46L149.56 217.91C149.56 217.91 128.17 150.92 128.29 146.51L96.3799 158.79Z" fill="#FFE355"/>
<path d="M96.3799 158.79C106.43 151.88 118.72 141.03 133.84 125.02C133.84 125.02 148.21 119.71 153.26 129.97C158.3 140.24 161.53 214.46 161.53 214.46L149.56 217.91C149.56 217.91 128.17 150.92 128.29 146.51L96.3799 158.79Z" fill="#40C5DA"/>
<g opacity="0.2">
<path d="M153.25 129.98C152.32 128.09 151.08 126.74 149.67 125.78C153.94 128.04 159.94 133.49 160.66 146.43C158.96 144.82 157.36 143.35 155.83 141.96C155.04 136.17 154.18 131.86 153.25 129.98Z" fill="black"/>
</g>
<g opacity="0.2">
<path d="M133.84 125.03C133.84 125.03 136.04 124.22 139.01 123.85C137.29 127.18 131 138.41 119.38 149.95L96.3799 158.8C106.43 151.88 118.73 141.04 133.84 125.03Z" fill="black"/>
</g>
<path d="M147.43 216.56L148.95 221.43L162.84 217.3L163.02 212.03L147.43 216.56Z" fill="#40C5DA"/>
<path d="M91.91 107.39C91.91 107.39 88.34 113.2 50.48 118.96C50.48 118.96 52.15 107.27 48.16 90.5301C44.17 73.7901 29.38 58.0601 43.8 54.0001C58.22 49.9401 83.16 41.5701 85.29 50.6201C87.42 59.6701 91.34 63.6301 91.18 70.8401C91.0101 78.0601 85.77 83.3001 91.91 107.39Z" fill="#3E3E3C"/>
<path d="M138.4 88.7698C138.61 88.0198 138.51 87.2198 138.15 86.5198C137.58 85.4198 136.57 83.9898 135.15 84.1398C132.86 84.3698 132.25 86.0098 131.67 88.1398C131.09 90.2798 129.27 94.0598 131.34 95.3698C133.32 96.6198 136.37 95.9298 138.4 88.7698Z" fill="#FDD8AF"/>
<path d="M52.1899 51.64C52.1899 51.64 72.33 52.8 71.14 47.07C71.14 47.07 67.2199 45.27 67.9799 43.14C68.7399 41.01 58.3699 43.22 54.3199 42.63C52.6599 42.39 53.7199 44.55 53.6099 46.86C53.4899 49.17 52.1899 51.64 52.1899 51.64Z" fill="#3E3E3C"/>
<g opacity="0.6">
<path d="M49.01 94.4601L63.73 94.2701L68.74 90.8601L74.41 88.3501L75.15 90.3501C75.15 90.3501 57.57 110.81 50.76 109.01C50.6 105.08 50.12 100.12 49.01 94.4601Z" fill="black"/>
</g>
<g opacity="0.6">
<path d="M61.4801 90.25C61.4801 90.25 55.8301 91.97 54.8701 87.86C53.4801 81.94 49.35 65.48 45.16 59.15C40.59 52.24 49.5901 85.26 49.5901 85.26L51.5901 92.21L54.7401 96.48L61.5601 91.64L61.4801 90.25Z" fill="black"/>
</g>
<g opacity="0.6">
<path d="M71.7899 49.6499C71.7899 49.6499 72.4899 53.4999 57.3599 53.1699C57.3499 53.1699 74.9999 57.3899 71.7899 49.6499Z" fill="black"/>
</g>
<path d="M85.8998 81.8397L85.6998 80.1997L84.5498 80.8797L85.8998 81.8397Z" fill="#3E3E3C"/>
<g opacity="0.7">
<path d="M85.8998 81.8397L85.6998 80.1997L84.5498 80.8797L85.8998 81.8397Z" fill="white"/>
</g>
<path d="M72.1099 61.5798L72.3099 60.5298L73.5199 59.7998L74.5399 60.1298L85.5399 78.4698L85.7799 80.2498L84.5599 80.9798L83.1099 79.9298L72.1099 61.5798Z" fill="#3E3E3C"/>
<g opacity="0.6">
<path d="M72.1099 61.5798L72.3099 60.5298L73.5199 59.7998L74.5399 60.1298L85.5399 78.4698L85.7799 80.2498L84.5599 80.9798L83.1099 79.9298L72.1099 61.5798Z" fill="white"/>
</g>
<g opacity="0.5">
<path d="M73.5646 61.2451L72.3467 61.9751L83.0502 79.8324L84.2682 79.1024L73.5646 61.2451Z" fill="white"/>
</g>
<path d="M40.3201 54.9799C35.1701 56.4199 34.85 63.3999 39.54 80.4799C44.23 97.5699 47.6501 108.48 56.7101 104.37C65.7701 100.26 76.24 89.2499 76.24 89.2499L71.7001 81.8499C71.7001 81.8499 56.9401 94.5499 53.8401 92.13C50.7501 89.7 48.2001 52.7599 40.3201 54.9799Z" fill="#3E3E3C"/>
<path d="M69.76 84.7701L76 79.5201C76 79.5201 75.08 69.0301 78.48 68.9001C81.26 68.7901 83.49 72.1301 83.99 76.6801C84.49 81.2301 79.35 84.0701 79.35 84.0701L73.31 90.7701L69.76 84.7701Z" fill="#FDD8AF"/>
</svg>
