<svg width="164" height="280" viewBox="0 0 164 280" fill="none" xmlns="http://www.w3.org/2000/svg">
<path d="M100.5 110.21C94.48 145.33 136.41 126.91 153.12 127.33C154.19 127.36 155.22 127.57 156.24 127.96L161.4 150.23L156.39 173.3L144.7 191.78H71.94L19.32 156.18L5.95996 114.42L9.71996 46.7702L11.39 35.9102C11.39 35.9102 13.06 49.2702 49.81 45.9302C86.56 42.5902 115.36 30.7502 123.72 42.5902C133.74 56.8002 104.48 86.9902 100.5 110.21Z" fill="#E8A707"/>
<path d="M155.14 167.68V180.82L134.15 189.28L92.81 187.09L81.95 173.31L86.55 166.1H113.17L155.14 167.68Z" fill="black"/>
<path d="M88.2699 210.66H75.6299V268.18H88.2699V210.66Z" fill="#3E3E3C"/>
<path d="M88.2699 210.66H75.6299V268.18H88.2699V210.66Z" fill="#404242"/>
<path d="M91.53 262.96H72.36L33.2 270.37V276.9H41.2599L72.36 271.02H91.53L122.63 276.9H130.69V270.37L91.53 262.96Z" fill="#3E3E3C"/>
<path d="M91.53 262.96H72.36L33.2 270.37V276.9H41.2599L72.36 271.02H91.53L122.63 276.9H130.69V270.37L91.53 262.96Z" fill="#404242"/>
<path d="M122.63 279.73C125.32 279.73 128 279.73 130.69 279.73C133.21 279.73 133.22 275.81 130.69 275.81C128 275.81 125.31 275.81 122.63 275.81C120.11 275.81 120.1 279.73 122.63 279.73Z" fill="black"/>
<path d="M33.2 279.73C35.89 279.73 38.58 279.73 41.26 279.73C43.78 279.73 43.79 275.81 41.26 275.81C38.57 275.81 35.89 275.81 33.2 275.81C30.67 275.81 30.67 279.73 33.2 279.73Z" fill="black"/>
<path d="M88.2699 210.66H75.6299V223.68H88.2699V210.66Z" fill="black"/>
<path d="M150.26 175.83H74.6499V159.52H150.26C154.76 159.52 158.41 163.17 158.41 167.67C158.41 172.18 154.76 175.83 150.26 175.83Z" fill="#FFE355"/>
<path d="M150.26 175.83H74.6499V159.52H150.26C154.76 159.52 158.41 163.17 158.41 167.67C158.41 172.18 154.76 175.83 150.26 175.83Z" fill="black"/>
<path d="M86.8999 57.96C86.8999 57.96 96.5799 85.1099 104.5 85.7299C112.42 86.3399 122.11 71.77 122.11 71.77L126.06 61.4999L134.02 60.84V73.7199L125.85 77.83C125.85 77.83 113.37 98.35 103.67 97.84C93.9699 97.33 84.1799 82.3199 82.1999 74.6699C81.1099 70.4699 81.8299 61.71 86.8999 57.96Z" fill="#FDD8AF"/>
<path d="M135.71 80.3101L138.58 56.6001L127.61 55.8701L127.28 79.7501L135.71 80.3101Z" fill="#3E3E3C"/>
<g opacity="0.5">
<path d="M135.71 80.3101L138.58 56.6001L127.61 55.8701L127.28 79.7501L135.71 80.3101Z" fill="white"/>
</g>
<path d="M138.79 53.161L127.815 52.4229L127.586 55.835L138.56 56.5731L138.79 53.161Z" fill="#FFE355"/>
<path d="M138.81 53.2L127.84 52.46L127.97 50.51C127.98 50.3 128.17 50.13 128.38 50.15L138.57 50.84C138.78 50.85 138.95 51.04 138.93 51.26L138.81 53.2Z" fill="#3E3E3C"/>
<path d="M32.34 147.41C32.34 147.41 19.33 101.88 34.58 56.6C34.58 56.6 54.38 47.39 82.61 54.14C85.85 54.91 87.81 58.19 86.98 61.41C84.15 72.39 79.79 98.58 90.33 131.67C90.34 131.68 65.58 146.76 32.34 147.41Z" fill="#27AFAF"/>
<g opacity="0.5">
<path d="M32.34 147.41C32.34 147.41 19.33 101.88 34.58 56.6C34.58 56.6 54.38 47.39 82.61 54.14C85.85 54.91 87.81 58.19 86.98 61.41C84.15 72.39 79.79 98.58 90.33 131.67C90.34 131.68 65.58 146.76 32.34 147.41Z" fill="#27AFAF"/>
</g>
<path d="M57.1001 51.8699L66.6601 60.1499L72.2101 55.2299C70.1101 53.6699 70.6901 50.1399 71.8601 46.3299L58.3001 35.6299C58.9901 40.6699 59.5101 47.5599 57.1001 51.8699Z" fill="#FDD8AF"/>
<path d="M126.67 158.74L144.28 165.91L142.29 173.36L123.49 169.49L126.67 158.74Z" fill="#FBFCFF"/>
<path d="M66.51 133.32C66.51 133.32 150.83 104.11 157.78 130.95C164.73 157.79 100.83 176.3 67.35 175.17C33.87 174.04 66.51 133.32 66.51 133.32Z" fill="#3E3E3C"/>
<g opacity="0.3">
<path d="M66.51 133.32C66.51 133.32 150.83 104.11 157.78 130.95C164.73 157.79 100.83 176.3 67.35 175.17C33.87 174.04 66.51 133.32 66.51 133.32Z" fill="black"/>
</g>
<g opacity="0.7">
<path d="M129.19 136.04L88.2799 162.12L94.8099 172.84C94.8099 172.84 90.8499 174.15 85.3799 161.06L110.7 144.32C110.7 144.32 102.77 143.52 102.97 142.28C103.3 140.26 120.7 136.38 128.64 134.71C129.45 134.54 129.88 135.6 129.19 136.04Z" fill="black"/>
</g>
<g opacity="0.7">
<path d="M86.79 160.97L93.8801 173C84.25 174.66 75.0101 175.43 67.3501 175.17C63.7801 175.05 60.97 174.48 58.79 173.55L56.3 168.78L61.67 157.47L86.79 160.97Z" fill="black"/>
</g>
<path d="M87.51 162.82L79.55 169.49L83.2 175.17L95.33 173.28L87.51 162.82Z" fill="#FBFCFF"/>
<path d="M97.4599 173.48L89.1399 160.36L85.3799 163.04L92.5799 174.37L97.4599 173.48Z" fill="#3E3E3C"/>
<g opacity="0.3">
<path d="M97.4599 173.48L89.1399 160.36L85.3799 163.04L92.5799 174.37L97.4599 173.48Z" fill="white"/>
</g>
<path d="M36.8699 161.25C32.3399 153.56 23.5799 130.42 44.6299 126.39C65.6699 122.36 134.8 161.25 134.8 161.25L131.58 171.37L66.1299 160.57C66.1299 160.57 84.3299 177.04 64.4199 174.99C48.6299 173.37 41.2799 168.73 36.8699 161.25Z" fill="#3E3E3C"/>
<path d="M133.09 158.74L129 171.95L133.09 172.52L136.78 161.11L133.09 158.74Z" fill="#3E3E3C"/>
<g opacity="0.3">
<path d="M133.09 158.74L129 171.95L133.09 172.52L136.78 161.11L133.09 158.74Z" fill="white"/>
</g>
<path d="M85.5399 174.88L82.6699 166.14C82.5599 165.81 82.2399 165.6 81.8999 165.63L74.2699 166.39C73.5899 166.45 73.0899 167.05 73.1599 167.73C73.1699 167.82 73.1899 167.9 73.2099 167.99C74.2999 171.12 75.3899 173.86 76.6699 177.79C78.1899 182.42 77.2499 181.43 78.9599 186.89C79.9899 190.18 83.9199 189.56 83.6399 188.11C82.3499 181.49 84.0499 180.2 85.5199 176.99C85.7899 176.31 85.7999 175.56 85.5399 174.88Z" fill="#3E3E3C"/>
<path d="M142.72 165.43L139.76 174.4C139.65 174.74 139.79 175.11 140.09 175.29L146.86 179.32C147.46 179.68 148.24 179.49 148.6 178.89C148.65 178.81 148.68 178.73 148.71 178.65C149.72 175.4 150.49 172.46 151.83 168.44C153.4 163.69 153.57 165.08 155.49 159.52C156.65 156.17 153.02 154.29 152.36 155.65C149.38 161.91 147.18 161.94 144.01 163.69C143.38 164.1 142.92 164.72 142.72 165.43Z" fill="#3E3E3C"/>
<path d="M131.17 135.61H93.23C91.44 135.61 89.99 134.16 89.99 132.37H134.41C134.4 134.16 132.95 135.61 131.17 135.61Z" fill="#3E3E3C"/>
<g opacity="0.2">
<path d="M131.17 135.61H93.23C91.44 135.61 89.99 134.16 89.99 132.37H134.41C134.4 134.16 132.95 135.61 131.17 135.61Z" fill="white"/>
</g>
<path d="M103.24 135.61H75.6799C73.8899 135.61 72.4399 134.16 72.4399 132.37H106.48C106.47 134.16 105.02 135.61 103.24 135.61Z" fill="#3E3E3C"/>
<g opacity="0.5">
<path d="M103.24 135.61H75.6799C73.8899 135.61 72.4399 134.16 72.4399 132.37H106.48C106.47 134.16 105.02 135.61 103.24 135.61Z" fill="white"/>
</g>
<path d="M131.43 134.62H106.46C105.93 134.62 105.56 134.1 105.74 133.6L116.85 101.87C117.16 101 117.98 100.41 118.91 100.41H143.88C144.41 100.41 144.78 100.93 144.6 101.43L133.49 133.16C133.18 134.04 132.36 134.62 131.43 134.62Z" fill="#3E3E3C"/>
<g opacity="0.5">
<path d="M131.43 134.62H106.46C105.93 134.62 105.56 134.1 105.74 133.6L116.85 101.87C117.16 101 117.98 100.41 118.91 100.41H143.88C144.41 100.41 144.78 100.93 144.6 101.43L133.49 133.16C133.18 134.04 132.36 134.62 131.43 134.62Z" fill="white"/>
</g>
<path d="M132.41 134.62H107.44C106.91 134.62 106.54 134.1 106.72 133.6L117.83 101.87C118.14 101 118.96 100.41 119.89 100.41H144.86C145.39 100.41 145.76 100.93 145.58 101.43L134.47 133.16C134.16 134.04 133.34 134.62 132.41 134.62Z" fill="#3E3E3C"/>
<g opacity="0.7">
<path d="M132.41 134.62H107.44C106.91 134.62 106.54 134.1 106.72 133.6L117.83 101.87C118.14 101 118.96 100.41 119.89 100.41H144.86C145.39 100.41 145.76 100.93 145.58 101.43L134.47 133.16C134.16 134.04 133.34 134.62 132.41 134.62Z" fill="white"/>
</g>
<path d="M128.26 117.52C128 118.74 127.16 119.72 126.38 119.72C125.6 119.72 125.18 118.73 125.44 117.52C125.7 116.3 126.54 115.32 127.32 115.32C128.1 115.32 128.52 116.3 128.26 117.52Z" fill="white"/>
<path d="M44.81 70.25C44.81 70.25 50.91 100.26 55.02 105.24C59.13 110.22 77.05 123.61 77.05 123.61L87.7 121.37L95.33 127.74L90.34 131.68L84.43 129.46C84.43 129.46 80.18 130.3 74.68 130.3C69.18 130.3 46.83 117.15 42.4 109.77C37.97 102.39 31.77 74.62 31.77 74.62L44.81 70.25Z" fill="#FDD8AF"/>
<path d="M53.5701 52.0799L57.3601 49.8799L66.6501 60.1499C66.6501 60.1499 61.5401 58.0599 60.1101 58.9099C58.8101 59.6699 59.7201 62.9599 58.2201 62.9899C54.8801 63.0499 53.5701 52.0799 53.5701 52.0799Z" fill="#FFE355"/>
<path d="M66.6602 60.1498L71.5101 50.5898L75.4702 52.7298C75.4702 52.7298 79.1501 62.0098 76.3401 62.9898C74.6301 63.5898 73.9702 59.2398 72.2702 58.6198C70.9002 58.1098 66.6602 60.1498 66.6602 60.1498Z" fill="#FFE355"/>
<path d="M32.3399 85.18C32.3399 85.18 25.2799 63.8201 34.5799 56.5901C43.8799 49.3601 48.2399 81.22 48.2399 81.22L32.3399 85.18Z" fill="#FFE355"/>
<path d="M30.4399 83.35L31.8699 87.01L49.6699 82.44L48.9599 78.77L30.4399 83.35Z" fill="#FFE355"/>
<path d="M84.36 81.86C84.36 81.86 73.98 64.72 80.61 56.6C87.24 48.48 97.37 75.26 97.37 75.26L84.36 81.86Z" fill="#16706D"/>
<g opacity="0.3">
<path d="M84.36 81.86C84.36 81.86 73.98 64.72 80.61 56.6C87.24 48.48 97.37 75.26 97.37 75.26L84.36 81.86Z" fill="#16706D"/>
</g>
<path d="M82.3501 80.6503L84.3101 83.5502L98.8601 76.0303L97.5101 72.9902L82.3501 80.6503Z" fill="#16706D"/>
<g opacity="0.1">
<path d="M82.3501 80.6503L84.3101 83.5502L98.8601 76.0303L97.5101 72.9902L82.3501 80.6503Z" fill="#16706D"/>
</g>
<path d="M53.5698 52.0799L57.3598 49.8799L66.6498 60.1499C66.6498 60.1499 61.5398 58.0599 60.1098 58.9099C58.8098 59.6699 59.7198 62.9599 58.2198 62.9899C54.8798 63.0499 53.5698 52.0799 53.5698 52.0799Z" fill="#16706D"/>
<path d="M66.6599 60.1498L71.5099 50.5898L75.4699 52.7298C75.4699 52.7298 79.1499 62.0098 76.3399 62.9898C74.6299 63.5898 73.9699 59.2398 72.2699 58.6198C70.8999 58.1098 66.6599 60.1498 66.6599 60.1498Z" fill="#16706D"/>
<path d="M32.3399 85.18C32.3399 85.18 25.2799 63.8201 34.5799 56.5901C43.8799 49.3601 48.2399 81.22 48.2399 81.22L32.3399 85.18Z" fill="#16706D"/>
<path d="M30.4399 83.35L31.8699 87.01L49.6699 82.44L48.9599 78.77L30.4399 83.35Z" fill="#16706D"/>
<g opacity="0.1">
<path d="M58.5201 37.4201C58.4501 36.8101 58.37 36.2101 58.3 35.6401L71.86 46.3401C71.36 47.9701 70.98 49.5401 70.86 50.9401C62.66 51.0101 59.5601 41.9601 58.5201 37.4201Z" fill="black"/>
</g>
<path d="M60.8499 20.02C58.0299 29.58 56.6199 33.61 59.6099 40.05C64.0899 49.85 76.4499 51.23 82.0699 42.7C87.0899 35.02 90.9499 20.69 83.0999 13.63C77.5499 8.56998 68.9499 8.97 63.8899 14.52C62.4699 16.1 61.4299 17.98 60.8499 20.02Z" fill="#FDD8AF"/>
<path d="M71.6299 29.6199C71.3599 30.3799 71.5399 31.1399 72.0399 31.3299C72.5399 31.5199 73.1699 31.0399 73.4399 30.2799C73.7099 29.5199 73.5399 28.7599 73.0399 28.5699C72.5299 28.3799 71.9099 28.8599 71.6299 29.6199Z" fill="#3E3E3C"/>
<path d="M80.24 32.7398C79.96 33.4998 80.14 34.2698 80.64 34.4498C81.13 34.6198 81.77 34.1598 82.05 33.3998C82.33 32.6398 82.14 31.8798 81.65 31.6898C81.15 31.5098 80.52 31.9798 80.24 32.7398Z" fill="#3E3E3C"/>
<path d="M77.3501 32.96C77.8301 34.88 78.5701 36.73 79.5501 38.46C78.6501 38.95 77.5701 39.0099 76.6201 38.6299L77.3501 32.96Z" fill="#E2B588"/>
<path d="M71.29 25.3902C71.44 25.5402 71.6601 25.5702 71.8501 25.4802C73.8501 24.5202 76.35 25.8802 76.37 25.8902C76.6 26.0202 76.8901 25.9402 77.0201 25.7102C77.1501 25.4802 77.0701 25.1902 76.8401 25.0602C76.7101 25.0402 73.8701 23.4402 71.4401 24.6102C71.2001 24.7302 71.1101 25.0102 71.2201 25.2502C71.2301 25.3002 71.25 25.3502 71.29 25.3902Z" fill="#3E3E3C"/>
<path d="M85.3 31.0898C85.44 31.1898 85.62 31.2098 85.78 31.1398C86.02 31.0298 86.12 30.7498 86.02 30.5098C85.45 29.0798 84.21 28.0097 82.71 27.6597C82.45 27.6097 82.2 27.7897 82.15 28.0497C82.1 28.3097 82.28 28.5597 82.54 28.6097C83.72 28.9097 84.69 29.7598 85.14 30.8998C85.17 30.9698 85.23 31.0398 85.3 31.0898Z" fill="#3E3E3C"/>
<path d="M58.9899 25.5998C58.9899 25.5998 62.5799 25.5198 62.0699 21.4198C62.0699 21.4198 67.9999 21.2498 68.2499 16.9098C68.2499 16.9098 73.4299 21.5098 75.2699 17.9098C75.2699 17.9098 81.6199 23.5898 82.4599 19.8298C82.4599 19.8298 89.0599 28.0198 88.7299 23.0098C88.7299 23.0098 96.1699 22.2598 89.4799 15.8198C89.4799 15.8198 95.5799 10.4698 85.7199 8.29979C85.7199 8.29979 86.5799 1.95981 79.6399 4.74981C79.6399 4.74981 78.0299 -2.1402 72.0199 1.8698C72.0199 1.8698 68.7699 -2.98022 65.2099 3.53978C65.2099 3.53978 59.9699 0.539794 58.2899 7.29979C58.2899 7.29979 48.7999 8.44981 52.7099 14.6898C52.7099 14.6898 55.6399 35.6298 58.2899 35.6298C60.0999 35.6398 58.9899 25.5998 58.9899 25.5998Z" fill="#3E3E3C"/>
<path d="M55.7199 26.5798C55.7799 28.5098 56.5999 30.3297 57.9999 31.6597C59.8699 33.3997 61.9899 32.0097 62.4299 29.6297C62.8399 27.4897 62.3599 24.0097 60.0199 23.1697C58.3099 22.5897 56.4499 23.5197 55.8699 25.2297C55.7299 25.6697 55.6799 26.1298 55.7199 26.5798Z" fill="#FDD8AF"/>
<path d="M73.73 41.2102C74.07 41.3102 74.41 41.3802 74.76 41.4202C74.87 41.4402 74.98 41.3602 75 41.2502C75 41.2502 75 41.2502 75 41.2402C75.01 41.1202 74.92 41.0202 74.81 41.0102C73.03 40.8202 71.44 39.7902 70.53 38.2402C70.48 38.1402 70.35 38.0902 70.25 38.1402C70.15 38.1902 70.1 38.3202 70.15 38.4202C70.92 39.8002 72.21 40.8002 73.73 41.2102Z" fill="#3E3E3C"/>
<path d="M5.12002 36.7503C5.12002 36.7503 -29 211.86 83.63 215.06C186.36 217.98 163.39 134.05 156.71 128.2C150.03 122.35 175.08 182.07 133.74 182.9C83.9 183.91 74.86 136.55 58.16 136.13C41.46 135.71 16.19 157.84 13.69 117.76C11.17 77.6803 24.33 9.61027 5.12002 36.7503Z" fill="#FFE355"/>
<path d="M5.12002 36.7503C5.12002 36.7503 -29 211.86 83.63 215.06C186.36 217.98 163.39 134.05 156.71 128.2C150.03 122.35 175.08 182.07 133.74 182.9C83.9 183.91 74.86 136.55 58.16 136.13C41.46 135.71 16.19 157.84 13.69 117.76C11.17 77.6803 24.33 9.61027 5.12002 36.7503Z" fill="#F7C822"/>
</svg>
