<svg width="80" height="158" viewBox="0 0 80 158" fill="none" xmlns="http://www.w3.org/2000/svg">
<g opacity="0.95">
<path d="M42.2699 32.8102C36.0099 30.8702 31.8799 29.6002 26.9899 28.0902C25.8699 27.7402 26.1699 26.0902 27.3399 26.1502C33.0499 26.4502 37.7299 26.7002 44.9499 27.0802C40.7899 19.8402 38.3299 15.3301 35.5299 9.67014C35.0199 8.63014 36.3899 7.70017 37.1599 8.57017C40.9199 12.8002 44.0699 16.2402 49.1099 21.6502C50.3099 14.6502 51.7099 8.20013 53.4499 1.72013C53.7599 0.55013 55.5099 0.860157 55.3999 2.06016C54.9299 7.32016 54.7599 12.6201 54.8899 17.7401C55.1199 17.8201 55.1299 17.8301 55.3699 17.9101C59.5999 13.0901 64.0499 8.45016 68.6799 4.00016C69.5699 3.14016 70.8999 4.37019 70.1399 5.34019C65.6499 11.0402 61.4899 17.0002 57.6999 23.1902C63.7399 20.9102 69.8199 18.7002 75.9299 16.5602C77.0699 16.1602 77.7999 17.7701 76.7499 18.3601C70.4199 21.9501 64.1599 25.6201 57.9099 29.4201C64.4999 31.5201 68.7999 32.8901 74.0199 34.5501C75.1299 34.9001 74.8299 36.5602 73.6599 36.4902C68.3199 36.1702 63.8899 35.9002 57.1099 35.4902C60.3799 39.3202 62.6599 41.9501 65.2999 44.9201C66.0699 45.7901 64.9799 47.0501 64.0099 46.4101C60.6799 44.2001 57.7599 42.2402 53.4999 39.3802C53.9299 42.7802 54.3099 45.4202 54.7599 48.0002C54.9699 49.1802 53.2899 49.6502 52.8599 48.5302C51.7499 45.7002 50.7399 42.8802 49.4599 39.1502C44.6499 62.1702 45.8999 84.4801 50.5499 107.35C48.2399 106.93 47.0899 106.73 44.7899 106.31C41.4199 82.8502 42.2899 61.8501 47.4899 38.7901C44.5999 41.7701 42.4799 44.0201 40.4499 46.2901C39.6499 47.1901 38.2399 46.1502 38.8599 45.1202C40.2199 42.8702 41.6999 40.5701 43.6699 37.6101C38.5199 38.7401 34.9999 39.5202 31.1099 40.3902C29.9699 40.6502 29.3999 39.0602 30.4499 38.5302C34.0499 36.7302 37.3799 35.1202 42.2699 32.8102Z" fill="#414141"/>
</g>
<g opacity="0.95">
<path d="M34.14 40.7602C38.89 38.2402 42.3 36.4302 45.88 34.5402C47.26 33.8102 46.46 31.7002 44.94 32.0702C40.48 33.1602 36.33 34.1802 30.45 35.6302C32.81 28.8302 34.3 24.2502 35.76 19.2102C36.19 17.7202 34.1501 16.8202 33.3401 18.1602C30.9601 22.1102 28.6901 25.7702 25.3401 31.0702C23.3101 25.6502 21.23 20.6202 18.95 15.6802C18.27 14.2102 16.0701 15.0102 16.4601 16.5702C17.4601 20.4902 18.29 24.4302 18.93 28.3102C18.72 28.4402 18.71 28.4402 18.49 28.5702C14.7 25.6102 10.8101 22.7702 6.83005 20.0602C5.46005 19.1302 3.96003 21.0202 5.18003 22.1302C9.37003 25.9602 13.38 29.9902 17.19 34.1902C12.05 33.2902 6.90003 32.4402 1.75003 31.6402C0.150034 31.3902 -0.409971 33.6802 1.12003 34.2102C6.81003 36.1802 12.4801 38.2202 18.1501 40.3402C13.0901 43.0802 9.50001 45.0202 5.66001 47.1002C4.28001 47.8502 5.10003 49.9402 6.62003 49.5602C10.74 48.5202 14.63 47.5302 20.07 46.1602C18.12 49.5702 16.63 52.1502 15.1 54.7402C14.31 56.0802 16.07 57.4502 17.18 56.3702C19.35 54.2502 21.5 52.1202 24.35 49.3102C24.47 51.3402 24.57 53.0902 24.63 54.7302C24.69 56.3302 27.0101 56.4702 27.2701 54.8902C27.6001 52.9202 27.9201 50.8102 28.2801 48.3202C37.3001 70.0302 40.24 92.1802 39.94 115.53C42.13 114.69 43.22 114.27 45.41 113.43C44.34 89.7602 39.5601 69.2802 30.1501 47.6002C32.2201 49.0602 33.96 50.3002 35.55 51.4702C36.85 52.4302 38.42 50.6702 37.31 49.4902C36.23 48.3402 35.04 47.1102 33.67 45.7202C37.68 45.8302 40.7301 45.9202 43.7101 46.0202C45.2801 46.0702 45.62 43.8302 44.11 43.4102C41.18 42.6002 38.15 41.8002 34.14 40.7602Z" fill="#5D5D5D"/>
</g>
<g opacity="0.95">
<path d="M54.87 53.3701C51.32 51.4901 48.79 50.1501 46.12 48.7301C45.14 48.2101 45.71 46.7201 46.78 46.9801C50.11 47.8001 53.18 48.5501 57.57 49.6301C55.82 44.5801 54.72 41.2101 53.64 37.4601C53.34 36.4001 54.78 35.7701 55.35 36.7101C57.13 39.6601 58.8 42.3501 61.29 46.3001C62.8 42.2501 64.36 38.5001 66.07 34.8101C66.55 33.7701 68.12 34.3401 67.83 35.4501C67.06 38.4201 66.43 41.4201 65.95 44.3601C66.09 44.4401 66.09 44.4401 66.23 44.5201C69.11 42.2701 72.07 40.1201 75.09 38.0601C76.06 37.4001 77.12 38.7501 76.25 39.5401C73.1 42.4101 70.0799 45.4201 67.2199 48.5801C71.0699 47.9101 74.92 47.2701 78.78 46.6801C79.91 46.5001 80.31 48.1301 79.23 48.5001C74.98 49.9701 70.75 51.4901 66.52 53.0701C70.29 55.1101 72.95 56.5501 75.82 58.1001C76.79 58.6301 76.22 60.1101 75.14 59.8401C72.06 59.0601 69.18 58.3301 65.12 57.3001C66.59 59.8701 67.7 61.7901 68.85 63.7401C69.41 64.6901 68.17 65.6601 67.38 64.8901C65.75 63.2901 64.14 61.7101 62 59.5901C61.9 61.1801 61.83 62.5401 61.78 63.8101C61.74 64.9401 60.1 65.0501 59.91 63.9301C59.65 62.4101 59.41 60.8001 59.13 58.8701C52.55 74.7001 50.41 90.8501 50.63 107.86C49.04 107.25 48.24 106.94 46.64 106.33C47.42 89.0701 50.9 74.1501 57.76 58.3401C56.14 59.4801 54.8 60.4401 53.57 61.3401C52.65 62.0201 51.54 60.7701 52.32 59.9401C53.16 59.0401 54.09 58.0801 55.18 56.9601C52.15 57.0501 49.87 57.1101 47.62 57.1801C46.51 57.2201 46.27 55.6301 47.34 55.3301C49.59 54.7601 51.84 54.1601 54.87 53.3701Z" fill="#464646"/>
</g>
<g opacity="0.95">
<path d="M30.1799 157.91H59.9999C62.0899 157.91 63.8099 156.29 63.9399 154.21L67.0999 102.77C67.2399 100.5 22.9399 100.5 23.0799 102.77L26.2399 154.21C26.3699 156.29 28.0999 157.91 30.1799 157.91Z" fill="#323232"/>
</g>
<g opacity="0.19">
<path d="M28.3701 39.0599C27.5801 38.4099 27.1801 37.4 27.3001 36.39L27.9701 30.6899L26.4401 33.34C25.5301 34.91 23.4601 35.3299 22.0101 34.2399L19.0201 31.9799L21.7501 36.39C22.5301 37.65 22.2801 39.3 21.1501 40.27L17.6201 43.2999L21.0901 42.5099C22.6101 42.1599 24.1401 43.0299 24.6201 44.5099L25.8101 48.15L26.5701 44.28C26.9101 42.54 28.6801 41.4699 30.3801 41.9699L32.7101 42.65L28.3701 39.0599Z" fill="#383838"/>
</g>
<g opacity="0.95">
<path d="M48.2601 29.2399C48.8401 28.7599 49.13 28.0299 49.04 27.2899L48.55 23.1299L49.67 25.0699C50.33 26.2199 51.8501 26.5199 52.9001 25.7299L55.0801 24.0799L53.0801 27.2999C52.5101 28.2199 52.6901 29.4199 53.5201 30.1299L56.1 32.3399L53.5701 31.7599C52.4601 31.5099 51.3401 32.1398 50.9901 33.2198L50.1201 35.8799L49.5601 33.0499C49.3101 31.7799 48.0201 30.9999 46.7801 31.3599L45.0801 31.8599L48.2601 29.2399Z" fill="#464646"/>
</g>
<g opacity="0.95">
<path d="M60.05 53.0999C60.46 52.7599 60.67 52.23 60.61 51.7L60.26 48.71L61.06 50.0999C61.53 50.9199 62.62 51.1399 63.38 50.5699L64.95 49.39L63.52 51.7C63.11 52.36 63.24 53.2199 63.83 53.7299L65.68 55.3199L63.86 54.9099C63.06 54.7299 62.26 55.18 62.01 55.96L61.38 57.8699L60.98 55.84C60.8 54.93 59.88 54.3699 58.98 54.6299L57.76 54.9899L60.05 53.0999Z" fill="#383838"/>
</g>
</svg>
