<svg width="35" height="34" viewBox="0 0 35 34" fill="none" xmlns="http://www.w3.org/2000/svg">
<g clip-path="url(#clip0_241_1499)">
<path fill-rule="evenodd" clip-rule="evenodd" d="M18.6748 15.2702V15.2205C18.6646 15.2371 18.6505 15.2538 18.6417 15.2702H18.6748Z" fill="white"/>
<path fill-rule="evenodd" clip-rule="evenodd" d="M0.221924 0V34H34.2969V0H0.221924ZM10.8205 28.2463H5.76498V13.0699H10.8205V28.2463ZM8.29274 10.9985H8.25934C6.56346 10.9985 5.46422 9.83273 5.46422 8.37558C5.46422 6.88646 6.59559 5.7537 8.32584 5.7537C10.0565 5.7537 11.12 6.88646 11.1531 8.37558C11.1531 9.83273 10.0565 10.9985 8.29274 10.9985ZM29.0546 28.2463H23.9977V20.1269C23.9977 18.0876 23.2671 16.6955 21.4368 16.6955C20.0391 16.6955 19.2085 17.6328 18.8426 18.5407C18.7096 18.865 18.6748 19.3158 18.6748 19.7706V28.2464H13.617C13.617 28.2464 13.6847 14.4937 13.617 13.07H18.6748V15.2205C19.3468 14.1888 20.546 12.7137 23.2323 12.7137C26.5602 12.7137 29.0546 14.8822 29.0546 19.5434V28.2463Z" fill="white"/>
</g>
<defs>
<clipPath id="clip0_241_1499">
<rect width="34.0749" height="34" fill="white" transform="translate(0.221924)"/>
</clipPath>
</defs>
</svg>
