<svg width="200" height="212" viewBox="0 0 200 212" fill="none" xmlns="http://www.w3.org/2000/svg">
<path d="M7.68018 179.45C7.68018 204.04 49.0502 210.05 100.08 210.05C151.11 210.05 171.6 204.04 171.6 179.45C171.6 154.86 157.19 124.97 106.16 124.97C55.1302 124.98 7.68018 154.87 7.68018 179.45Z" fill="#FFE355"/>
<path d="M7.68018 179.45C7.68018 204.04 49.0502 210.05 100.08 210.05C151.11 210.05 171.6 204.04 171.6 179.45C171.6 154.86 157.19 124.97 106.16 124.97C55.1302 124.98 7.68018 154.87 7.68018 179.45Z" fill="#ED7024"/>
<path d="M1.01003 145C-0.869966 178.81 8.48003 197.06 29.79 198.25C51.1 199.43 69.9 172.99 71.78 139.18C73.66 105.37 52.19 79.47 30.88 78.29C9.56003 77.1 2.89003 111.19 1.01003 145Z" fill="#FFE355"/>
<path d="M1.01003 145C-0.869966 178.81 8.48003 197.06 29.79 198.25C51.1 199.43 69.9 172.99 71.78 139.18C73.66 105.37 52.19 79.47 30.88 78.29C9.56003 77.1 2.89003 111.19 1.01003 145Z" fill="#ED7024"/>
<path d="M105.11 127.88C105.11 127.88 124.94 125.37 126.69 132.37C128.44 139.37 93.9801 135.52 87.0701 142.52C80.1601 149.52 109.55 153.11 103.15 157.3C98.1301 160.59 80.9601 145.67 59.0401 151.27C37.1201 156.87 33.9901 140.34 36.4301 124.98C38.8701 109.63 40.6501 93.1199 47.2801 94.3799C53.9101 95.6299 75.47 125.85 105.11 127.88Z" fill="black"/>
<path d="M43.43 152.95C43.43 152.95 22.91 149.35 21.78 157.93C20.64 166.52 19.08 153.81 43.43 152.95Z" fill="black"/>
<path d="M10.3501 189.23C4.58013 182.48 1.46014 171.99 0.890137 157.95C3.53014 184.69 19.0501 202.01 81.0301 204.8C143.13 207.6 156.8 189.05 163.44 191.27C166.23 192.2 166.24 194.76 165.32 197.41C155.85 207.2 135.2 210.05 100.09 210.05C56.6401 210.05 20.2301 205.68 10.3501 189.23Z" fill="black"/>
<path d="M116.96 74.8301C116.96 74.8301 114.06 75.2901 112.35 77.0301C110.64 78.7701 105.61 78.5901 105.61 78.5901L105.11 84.2801L116.59 83.6201L116.96 74.8301Z" fill="#C8CBD0"/>
<path d="M70.6801 40.8C72.1801 40.71 77.9101 43.71 81.3701 58.84C84.8301 73.98 84.0601 79.06 110.91 77.33L110.04 84.87C110.04 84.87 86.7801 87.36 79.8401 81.79C72.9201 76.25 65.1401 41.12 70.6801 40.8Z" fill="#3E3E3C"/>
<g opacity="0.6">
<mask id="mask0_239_2" style="mask-type:luminance" maskUnits="userSpaceOnUse" x="74" y="59" width="8" height="24">
<path d="M81.0198 59.4199H74.3398V82.5799H81.0198V59.4199Z" fill="white"/>
</mask>
<g mask="url(#mask0_239_2)">
<path d="M78.3996 59.4199L79.7096 61.7399C79.7096 61.7399 78.2696 75.9999 81.0196 82.5799C80.5896 82.3399 80.1896 82.0799 79.8396 81.7999C77.9796 80.2999 76.0496 76.6599 74.3496 72.1299L78.3996 59.4199Z" fill="black"/>
</g>
</g>
<path d="M40.0799 12.9901C40.0799 12.9901 39.8799 17.4001 37.8299 18.3101C35.7799 19.2201 39.34 24.2701 38.35 27.3601C37.36 30.4501 35.0599 33.2401 37.5199 37.3801C37.5199 37.3801 36.99 33.9201 38.73 31.8701C38.73 31.8701 38 37.6701 39.88 37.7901C41.76 37.9201 42.1299 36.2201 45.2099 36.9401C48.2899 37.6601 45.57 32.2101 45.57 32.2101C45.57 32.2101 46.81 33.0301 47.64 35.9301C48.47 38.8301 56.62 35.4801 59.94 36.6801C63.26 37.8701 64.1799 31.7401 64.1799 31.7401C64.1799 31.7401 65.6599 35.3801 64.4599 36.6201C64.4599 36.6201 67.0699 35.8701 67.3599 32.4101C67.3599 32.4101 68.1299 33.4601 67.7399 35.6601C67.7399 35.6601 70.25 35.4801 69.63 30.6101C69 25.7401 65.1999 24.3401 64.2099 20.4701C63.2199 16.6001 51.04 9.12012 51.04 9.12012L40.0799 12.9901Z" fill="#3E3E3C"/>
<path d="M46.6299 27.8701L57.0099 34.6201C56.9699 41.9101 62.2399 41.5201 62.2399 41.5201C62.2399 41.5201 62.3199 44.0601 55.9799 45.0001C49.6299 45.9301 47.4499 45.6801 47.4499 45.6801C50.6099 41.9001 48.2099 32.8201 46.6299 27.8701Z" fill="#FDD8AF"/>
<g opacity="0.1">
<mask id="mask1_239_2" style="mask-type:luminance" maskUnits="userSpaceOnUse" x="47" y="28" width="11" height="11">
<path d="M57.7299 28.6001H47.1699V38.5901H57.7299V28.6001Z" fill="white"/>
</mask>
<g mask="url(#mask1_239_2)">
<path d="M57.7299 38.5801C57.2899 37.6101 56.9999 36.3401 57.0099 34.6301L47.7499 28.6001L47.1699 29.6301C47.1699 29.6301 50.6799 38.9801 57.7299 38.5801Z" fill="black"/>
</g>
</g>
<path d="M43.63 16.75C44.69 25.22 44.95 28.82 49.51 32.91C56.38 39.07 66.54 35.93 68.04 27.32C69.39 19.57 67.44 7.03002 58.92 4.17002C52.84 2.09002 46.23 5.34002 44.15 11.42C43.56 13.13 43.38 14.96 43.63 16.75Z" fill="#FDD8AF"/>
<path d="M62.3501 21.74C63.0601 23.28 63.9901 24.72 65.0901 26.01C64.4101 26.57 63.5201 26.8 62.6601 26.63L62.3501 21.74Z" fill="#EFC295"/>
<path d="M54.89 17.33C54.83 17.32 54.78 17.3 54.73 17.26C54.58 17.14 54.56 16.93 54.68 16.78C54.68 16.78 54.68 16.78 54.69 16.77C55.47 15.74 56.7 15.16 57.99 15.21C58.17 15.23 58.31 15.4 58.29 15.58C58.27 15.76 58.11 15.9 57.93 15.88C56.87 15.86 55.86 16.35 55.22 17.2C55.13 17.3 55.01 17.35 54.89 17.33Z" fill="#40403F"/>
<path d="M67.4501 15.98C67.3901 15.97 67.3401 15.95 67.2901 15.91C66.4601 15.25 65.3701 15.03 64.3501 15.32C64.1801 15.39 63.9801 15.3 63.9101 15.12C63.8501 14.94 63.9401 14.75 64.1201 14.68C65.3601 14.32 66.6901 14.57 67.7101 15.36C67.8601 15.47 67.9001 15.68 67.7901 15.83C67.7101 15.95 67.5801 16.01 67.4501 15.98Z" fill="#40403F"/>
<path d="M57.3899 20.9001C57.4299 21.5901 57.8299 22.1201 58.2899 22.1001C58.7499 22.0701 59.0699 21.4901 59.0199 20.8001C58.9699 20.1001 58.5799 19.5701 58.1299 19.6001C57.6899 19.6201 57.3499 20.2101 57.3899 20.9001Z" fill="#40403F"/>
<path d="M65.2202 20.4099C65.2602 21.0999 65.6602 21.6299 66.1102 21.6099C66.5602 21.5799 66.8902 20.9999 66.8502 20.3099C66.8102 19.6099 66.4102 19.0899 65.9602 19.1099C65.5102 19.1399 65.1702 19.7199 65.2202 20.4099Z" fill="#40403F"/>
<path d="M65.7598 19.1601L67.3898 18.5801C67.3898 18.5801 66.6198 19.9301 65.7598 19.1601Z" fill="#40403F"/>
<path d="M57.9399 19.6501L59.5699 19.0701C59.5699 19.0701 58.7899 20.4201 57.9399 19.6501Z" fill="#40403F"/>
<path d="M58.2502 27.8299C58.0702 27.6199 57.9002 27.3999 57.7602 27.1599C57.7102 27.0799 57.7302 26.9799 57.8002 26.9299C57.8002 26.9299 57.8002 26.9299 57.8102 26.9299C57.8902 26.8899 57.9902 26.9099 58.0402 26.9899C58.7702 28.2099 60.0402 29.0099 61.4602 29.1499C61.5502 29.1499 61.6302 29.2299 61.6202 29.3199C61.6202 29.4099 61.5402 29.4899 61.4502 29.4799C60.2002 29.3899 59.0502 28.7899 58.2502 27.8299Z" fill="#3E3E3C"/>
<path d="M59.08 4.75003C59.08 4.75003 63.6301 9.80004 58.6701 11.82C53.7101 13.84 49.25 16.81 48.52 20.99C47.79 25.17 43.75 25.3 43.75 25.3C43.75 25.3 37.2 16.99 41.43 8.26002C45.66 -0.469975 57.35 1.70003 59.08 4.75003Z" fill="#3E3E3C"/>
<path d="M45.9399 6.05992C45.9399 6.05992 51.4099 -2.41008 60.5799 1.68992C69.7499 5.78992 70.1499 12.7399 67.8499 12.0599C65.5399 11.3799 61.8799 10.6799 59.2499 5.93992C56.6199 1.18992 45.9399 6.05992 45.9399 6.05992Z" fill="#3E3E3C"/>
<path d="M47.27 22.01C47.27 22.01 51.79 21.75 49.64 27.7C49.64 27.7 49.31 23.93 47.27 22.01Z" fill="#3E3E3C"/>
<path d="M42.0398 23.5999C42.6098 25.1499 43.7698 26.4099 45.2698 27.0999C47.2598 27.9999 48.5898 26.2999 48.3098 24.2399C48.0598 22.3999 46.7198 19.6999 44.5898 19.6599C43.0298 19.6799 41.7898 20.9599 41.8098 22.5099C41.8098 22.8899 41.8898 23.2599 42.0398 23.5999Z" fill="#EFC295"/>
<path d="M106.84 94.3499L82.67 90.9999C82.16 90.9299 81.8699 90.3799 82.1099 89.9199L97.1199 60.6899C97.5299 59.8899 98.4099 59.4299 99.3099 59.5499L123.49 62.8999C124 62.9699 124.29 63.5199 124.05 63.9799L109.04 93.2099C108.62 94.0199 107.74 94.4699 106.84 94.3499Z" fill="#3E3E3C"/>
<g opacity="0.5">
<mask id="mask2_239_2" style="mask-type:luminance" maskUnits="userSpaceOnUse" x="82" y="59" width="43" height="36">
<path d="M124.13 59.53H82.02V94.37H124.13V59.53Z" fill="white"/>
</mask>
<g mask="url(#mask2_239_2)">
<path d="M106.84 94.3502L82.67 91.0002C82.16 90.9302 81.8699 90.3802 82.1099 89.9202L97.1199 60.6902C97.5299 59.8902 98.4099 59.4301 99.3099 59.5501L123.49 62.9002C124 62.9702 124.29 63.5202 124.05 63.9802L109.04 93.2101C108.62 94.0201 107.74 94.4702 106.84 94.3502Z" fill="white"/>
</g>
</g>
<path d="M107.79 94.48L83.6099 91.13C83.0999 91.06 82.8099 90.51 83.0499 90.05L98.0599 60.82C98.4699 60.02 99.3499 59.56 100.25 59.68L124.43 63.03C124.94 63.1 125.23 63.65 124.99 64.11L109.98 93.34C109.57 94.15 108.69 94.61 107.79 94.48Z" fill="#3E3E3C"/>
<g opacity="0.7">
<mask id="mask3_239_2" style="mask-type:luminance" maskUnits="userSpaceOnUse" x="82" y="59" width="44" height="36">
<path d="M125.08 59.6599H82.9702V94.4999H125.08V59.6599Z" fill="white"/>
</mask>
<g mask="url(#mask3_239_2)">
<path d="M107.79 94.48L83.6104 91.13C83.1004 91.06 82.8104 90.51 83.0504 90.05L98.0604 60.82C98.4704 60.02 99.3504 59.56 100.25 59.68L124.43 63.03C124.94 63.1 125.23 63.65 124.99 64.11L109.98 93.34C109.57 94.15 108.69 94.61 107.79 94.48Z" fill="white"/>
</g>
</g>
<g opacity="0.7">
<mask id="mask4_239_2" style="mask-type:luminance" maskUnits="userSpaceOnUse" x="118" y="64" width="6" height="5">
<path d="M123.11 64.0701H118.25V68.0901H123.11V64.0701Z" fill="white"/>
</mask>
<g mask="url(#mask4_239_2)">
<path d="M121.12 68.08L118.33 67.69C118.27 67.68 118.24 67.62 118.26 67.57L119.99 64.2C120.04 64.11 120.14 64.05 120.24 64.07L123.03 64.46C123.09 64.47 123.12 64.53 123.1 64.58L121.37 67.95C121.32 68.05 121.22 68.1 121.12 68.08Z" fill="#3E3E3C"/>
</g>
</g>
<g opacity="0.3">
<mask id="mask5_239_2" style="mask-type:luminance" maskUnits="userSpaceOnUse" x="118" y="64" width="6" height="5">
<path d="M123.11 64.0701H118.25V68.0901H123.11V64.0701Z" fill="white"/>
</mask>
<g mask="url(#mask5_239_2)">
<path d="M121.12 68.08L118.33 67.69C118.27 67.68 118.24 67.62 118.26 67.57L119.99 64.2C120.04 64.11 120.14 64.05 120.24 64.07L123.03 64.46C123.09 64.47 123.12 64.53 123.1 64.58L121.37 67.95C121.32 68.05 121.22 68.1 121.12 68.08Z" fill="white"/>
</g>
</g>
<path d="M106.07 77.3599C105.66 78.4999 104.71 79.3399 103.96 79.2399C103.21 79.1399 102.93 78.1199 103.34 76.9799C103.75 75.8399 104.7 74.9999 105.45 75.0999C106.2 75.2099 106.48 76.2199 106.07 77.3599Z" fill="white"/>
<path d="M130.54 186.06L135.14 204.9L141.73 202.56L139.78 183.43L130.54 186.06Z" fill="#C8CBD0"/>
<path d="M142.25 201.49L134.27 201.64C133.92 201.65 133.63 201.89 133.56 202.23L132.04 209.72C131.9 210.38 132.33 211.04 132.99 211.18C133.07 211.2 133.16 211.21 133.25 211.21C136.55 211.09 139.49 210.86 143.61 210.79C148.47 210.7 147.24 211.31 152.96 211.28C156.4 211.26 156.96 207.34 155.5 207.17C148.81 206.45 146.89 204.47 144.27 202.13C143.69 201.67 142.98 201.45 142.25 201.49Z" fill="#3E3E3C"/>
<g opacity="0.1">
<mask id="mask6_239_2" style="mask-type:luminance" maskUnits="userSpaceOnUse" x="130" y="183" width="11" height="14">
<path d="M140.91 183.43H130.54V196.95H140.91V183.43Z" fill="white"/>
</mask>
<g mask="url(#mask6_239_2)">
<path d="M140.91 194.53L139.78 183.43L130.54 186.07L133.2 196.95L140.91 194.53Z" fill="black"/>
</g>
</g>
<path d="M66.6001 94.84L77.1401 90.78C77.1401 90.78 82.6801 96.89 86.1201 104.18C89.5601 111.46 72.9901 111.46 72.9901 111.46L67.7701 101.67L66.6001 94.84Z" fill="#FFE355"/>
<path d="M66.6001 94.84L77.1401 90.78C77.1401 90.78 82.6801 96.89 86.1201 104.18C89.5601 111.46 72.9901 111.46 72.9901 111.46L67.7701 101.67L66.6001 94.84Z" fill="#FBB03B"/>
<g opacity="0.2">
<mask id="mask7_239_2" style="mask-type:luminance" maskUnits="userSpaceOnUse" x="66" y="92" width="16" height="19">
<path d="M81.0601 92.48H66.6001V110.29H81.0601V92.48Z" fill="white"/>
</mask>
<g mask="url(#mask7_239_2)">
<path d="M72.7299 92.48C75.7199 108.98 81.0599 106.03 81.0599 106.03L78.7199 109.48L72.3799 110.29L67.7899 101.67L66.6099 94.83L72.7299 92.48Z" fill="black"/>
</g>
</g>
<path d="M165.69 151.84L180.44 169.44L185.63 165.53L172.68 145.96L165.69 151.84Z" fill="#C8CBD0"/>
<path d="M183.01 160.63L176.67 165.55C176.39 165.75 176.29 166.12 176.42 166.44L179.43 173.47C179.69 174.1 180.41 174.39 181.04 174.13C181.12 174.1 181.2 174.05 181.27 174.01C183.92 172.03 186.2 170.17 189.55 167.77C193.5 164.94 192.84 166.13 197.52 162.86C200.34 160.89 198.57 157.35 197.27 158.04C191.35 161.25 188.5 160.45 185.02 160.01C184.29 159.96 183.58 160.18 183.01 160.63Z" fill="#3E3E3C"/>
<g opacity="0.1">
<mask id="mask8_239_2" style="mask-type:luminance" maskUnits="userSpaceOnUse" x="165" y="145" width="15" height="17">
<path d="M179.98 145.96H165.69V161.43H179.98V145.96Z" fill="white"/>
</mask>
<g mask="url(#mask8_239_2)">
<path d="M173.73 161.43L179.98 156.99L172.68 145.96L165.69 151.84L173.73 161.43Z" fill="black"/>
</g>
</g>
<path d="M45.2098 101.97C45.2098 101.97 41.3798 124.06 49.0098 138.35C56.6298 152.63 73.5598 155.23 117.05 109.15C117.05 109.15 132.35 116.26 169.16 157.79L177.35 151.45C177.35 151.45 145.31 99.4101 129.82 87.0501C114.18 74.5801 79.9698 109.42 75.6198 107.49C71.7398 105.77 69.9098 93.7501 69.9098 93.7501L45.2098 101.97Z" fill="#FFE355"/>
<path d="M45.2098 101.97C45.2098 101.97 41.3798 124.06 49.0098 138.35C56.6298 152.63 73.5598 155.23 117.05 109.15C117.05 109.15 132.35 116.26 169.16 157.79L177.35 151.45C177.35 151.45 145.31 99.4101 129.82 87.0501C114.18 74.5801 79.9698 109.42 75.6198 107.49C71.7398 105.77 69.9098 93.7501 69.9098 93.7501L45.2098 101.97Z" fill="#FBB03B"/>
<path d="M166.53 157.73L169.91 160.74L179.58 152.71L177.92 148.41L166.53 157.73Z" fill="#FBB03B"/>
<path d="M84.27 138.7C93.07 132.65 103.82 123.16 117.05 109.15C117.05 109.15 129.63 104.5 134.04 113.49C138.45 122.47 141.28 187.42 141.28 187.42L130.8 190.44C130.8 190.44 112.08 131.83 112.19 127.96L84.27 138.7Z" fill="#FFE355"/>
<path d="M84.27 138.7C93.07 132.65 103.82 123.16 117.05 109.15C117.05 109.15 129.63 104.5 134.04 113.49C138.45 122.47 141.28 187.42 141.28 187.42L130.8 190.44C130.8 190.44 112.08 131.83 112.19 127.96L84.27 138.7Z" fill="#FBB03B"/>
<g opacity="0.2">
<mask id="mask9_239_2" style="mask-type:luminance" maskUnits="userSpaceOnUse" x="130" y="109" width="11" height="19">
<path d="M140.51 109.81H130.9V127.88H140.51V109.81Z" fill="white"/>
</mask>
<g mask="url(#mask9_239_2)">
<path d="M134.03 113.48C133.22 111.83 132.13 110.65 130.9 109.8C134.64 111.77 139.89 116.54 140.51 127.87C139.02 126.46 137.62 125.17 136.28 123.96C135.59 118.9 134.84 115.13 134.03 113.48Z" fill="black"/>
</g>
</g>
<g opacity="0.2">
<mask id="mask10_239_2" style="mask-type:luminance" maskUnits="userSpaceOnUse" x="84" y="108" width="38" height="31">
<path d="M121.57 108.11H84.27V138.69H121.57V108.11Z" fill="white"/>
</mask>
<g mask="url(#mask10_239_2)">
<path d="M117.04 109.15C117.04 109.15 118.96 108.44 121.56 108.11C120.05 111.02 114.56 120.85 104.39 130.95L84.2603 138.7C93.0603 132.65 103.82 123.16 117.04 109.15Z" fill="black"/>
</g>
</g>
<path d="M128.94 189.24L130.27 193.51L142.42 189.89L142.57 185.28L128.94 189.24Z" fill="#FBB03B"/>
<path d="M80.36 93.71C80.36 93.71 77.23 98.8 44.11 103.84C44.11 103.84 45.57 93.61 42.08 78.96C38.59 64.31 25.65 50.55 38.27 47C50.89 43.45 72.71 36.12 74.57 44.04C76.44 51.96 79.86 55.42 79.72 61.74C79.57 68.06 74.98 72.64 80.36 93.71Z" fill="#3E3E3C"/>
<path d="M121.04 77.4201C121.23 76.7601 121.14 76.0601 120.82 75.4501C120.33 74.4901 119.44 73.2401 118.19 73.3601C116.19 73.5601 115.65 74.9901 115.15 76.8601C114.64 78.7301 113.05 82.0401 114.86 83.1901C116.59 84.2901 119.26 83.6901 121.04 77.4201Z" fill="#FDD8AF"/>
<path d="M45.6001 44.93C45.6001 44.93 63.2201 45.95 62.1901 40.93C62.1901 40.93 58.7601 39.3501 59.4201 37.4901C60.0801 35.6301 51.0101 37.56 47.4701 37.05C46.0201 36.84 46.9501 38.73 46.8501 40.75C46.7301 42.78 45.6001 44.93 45.6001 44.93Z" fill="#3E3E3C"/>
<g opacity="0.6">
<mask id="mask11_239_2" style="mask-type:luminance" maskUnits="userSpaceOnUse" x="42" y="77" width="24" height="19">
<path d="M65.6901 77.0601H42.8101V95.2401H65.6901V77.0601Z" fill="white"/>
</mask>
<g mask="url(#mask11_239_2)">
<path d="M42.8101 82.4001L55.6901 82.2401L60.08 79.2601L65.0401 77.0701L65.6901 78.8201C65.6901 78.8201 50.3001 96.7201 44.3501 95.1501C44.2101 91.7001 43.7901 87.3501 42.8101 82.4001Z" fill="black"/>
</g>
</g>
<g opacity="0.6">
<mask id="mask12_239_2" style="mask-type:luminance" maskUnits="userSpaceOnUse" x="38" y="50" width="16" height="35">
<path d="M53.7998 50.6799H38.3198V84.17H53.7998V50.6799Z" fill="white"/>
</mask>
<g mask="url(#mask12_239_2)">
<path d="M53.73 78.7199C53.73 78.7199 48.79 80.2199 47.95 76.6299C46.73 71.4499 43.12 57.0498 39.45 51.5098C35.45 45.4698 43.33 74.3499 43.33 74.3499L45.08 80.4298L47.83 84.1699L53.8 79.9298L53.73 78.7199Z" fill="black"/>
</g>
</g>
<g opacity="0.6">
<mask id="mask13_239_2" style="mask-type:luminance" maskUnits="userSpaceOnUse" x="50" y="43" width="14" height="5">
<path d="M63.0901 43.2H50.1201V47.28H63.0901V43.2Z" fill="white"/>
</mask>
<g mask="url(#mask13_239_2)">
<path d="M62.7501 43.2C62.7501 43.2 63.3601 46.57 50.1201 46.28C50.1201 46.27 65.5601 49.96 62.7501 43.2Z" fill="black"/>
</g>
</g>
<path d="M75.0901 71.3599L74.9202 69.9199L73.9102 70.5199L75.0901 71.3599Z" fill="#3E3E3C"/>
<g opacity="0.7">
<mask id="mask14_239_2" style="mask-type:luminance" maskUnits="userSpaceOnUse" x="73" y="69" width="3" height="3">
<path d="M75.0901 69.9199H73.9102V71.3599H75.0901V69.9199Z" fill="white"/>
</mask>
<g mask="url(#mask14_239_2)">
<path d="M75.0901 71.3599L74.9202 69.9199L73.9102 70.5199L75.0901 71.3599Z" fill="white"/>
</g>
</g>
<path d="M63.0298 53.6401L63.1998 52.7101L64.2598 52.0801L65.1498 52.3601L74.7798 68.4201L74.9898 69.9701L73.9198 70.6101L72.6498 69.6901L63.0298 53.6401Z" fill="#3E3E3C"/>
<g opacity="0.6">
<mask id="mask15_239_2" style="mask-type:luminance" maskUnits="userSpaceOnUse" x="63" y="52" width="12" height="19">
<path d="M74.9898 52.0801H63.0298V70.6101H74.9898V52.0801Z" fill="white"/>
</mask>
<g mask="url(#mask15_239_2)">
<path d="M63.0298 53.6401L63.1998 52.7101L64.2598 52.0801L65.1498 52.3601L74.7798 68.4201L74.9898 69.9701L73.9198 70.6101L72.6498 69.6901L63.0298 53.6401Z" fill="white"/>
</g>
</g>
<g opacity="0.5">
<mask id="mask16_239_2" style="mask-type:luminance" maskUnits="userSpaceOnUse" x="59" y="51" width="19" height="21">
<path d="M68.7739 51.8519L59.8291 57.217L68.1984 71.1702L77.1432 65.805L68.7739 51.8519Z" fill="white"/>
</mask>
<g mask="url(#mask16_239_2)">
<path d="M64.3334 53.3724L63.27 54.0103L72.6424 69.6357L73.7058 68.9979L64.3334 53.3724Z" fill="white"/>
</g>
</g>
<path d="M35.2099 47.8499C30.7099 49.1099 30.4199 55.2099 34.5199 70.1699C38.6199 85.1299 41.6199 94.6699 49.5499 91.0699C57.4799 87.4799 66.6399 77.8399 66.6399 77.8399L62.6699 71.3699C62.6699 71.3699 49.7499 82.4899 47.0399 80.3599C44.3399 78.2399 42.1099 45.9199 35.2099 47.8499Z" fill="#3E3E3C"/>
<path d="M60.98 73.9301L66.44 69.3301C66.44 69.3301 65.64 60.1501 68.61 60.0401C71.05 59.9501 73 62.8601 73.43 66.8501C73.86 70.8301 69.37 73.3201 69.37 73.3201L64.09 79.1801L60.98 73.9301Z" fill="#FDD8AF"/>
</svg>
