<svg width="78" height="56" viewBox="0 0 78 56" fill="none" xmlns="http://www.w3.org/2000/svg">
<path d="M31.46 25.79C31.46 26.61 24.59 27.28 16.12 27.28C7.64999 27.28 0.780029 26.61 0.780029 25.79C0.780029 24.97 7.64999 24.3 16.12 24.3C24.6 24.3 31.46 24.97 31.46 25.79Z" fill="white"/>
<path d="M31.27 25.77C31.27 26.58 24.49 27.24 16.12 27.24C7.75 27.24 0.969971 26.58 0.969971 25.77C0.969971 24.96 7.75 24.3 16.12 24.3C24.49 24.3 31.27 24.96 31.27 25.77Z" fill="#FEFEFE"/>
<path d="M31.08 25.7601C31.08 26.5601 24.3799 27.2101 16.1299 27.2101C7.86994 27.2101 1.16992 26.5601 1.16992 25.7601C1.16992 24.9601 7.86994 24.3102 16.1299 24.3102C24.3799 24.3002 31.08 24.9501 31.08 25.7601Z" fill="#FDFDFD"/>
<path d="M30.89 25.74C30.89 26.53 24.28 27.1799 16.13 27.1799C7.98001 27.1799 1.37 26.54 1.37 25.74C1.37 24.95 7.98001 24.3 16.13 24.3C24.28 24.3 30.89 24.95 30.89 25.74Z" fill="#FCFCFC"/>
<path d="M30.6901 25.72C30.6901 26.5 24.1701 27.1399 16.1201 27.1399C8.07006 27.1399 1.55005 26.5 1.55005 25.72C1.55005 24.94 8.07006 24.3 16.1201 24.3C24.1701 24.31 30.6901 24.94 30.6901 25.72Z" fill="#FBFBFC"/>
<path d="M30.5 25.71C30.5 26.48 24.06 27.1101 16.12 27.1101C8.18 27.1101 1.73999 26.48 1.73999 25.71C1.73999 24.94 8.18 24.3101 16.12 24.3101C24.06 24.3101 30.5 24.93 30.5 25.71Z" fill="#FAFBFB"/>
<path d="M30.3099 25.6899C30.3099 26.4499 23.9599 27.0701 16.1299 27.0701C8.29994 27.0701 1.94995 26.4499 1.94995 25.6899C1.94995 24.9299 8.29994 24.3101 16.1299 24.3101C23.9599 24.3101 30.3099 24.9299 30.3099 25.6899Z" fill="#F9FAFA"/>
<path d="M30.11 25.6699C30.11 26.4199 23.85 27.03 16.12 27.03C8.39 27.03 2.13 26.4199 2.13 25.6699C2.13 24.9199 8.39 24.3101 16.12 24.3101C23.85 24.3101 30.11 24.9199 30.11 25.6699Z" fill="#F8F9F9"/>
<path d="M29.92 25.66C29.92 26.4 23.7401 27.0001 16.1201 27.0001C8.50006 27.0001 2.32007 26.4 2.32007 25.66C2.32007 24.92 8.50006 24.3202 16.1201 24.3202C23.7401 24.3102 29.92 24.92 29.92 25.66Z" fill="#F7F8F8"/>
<path d="M29.73 25.6399C29.73 26.3699 23.64 26.96 16.13 26.96C8.62 26.96 2.53003 26.3699 2.53003 25.6399C2.53003 24.9099 8.62 24.3201 16.13 24.3201C23.64 24.3201 29.73 24.9099 29.73 25.6399Z" fill="#F6F7F7"/>
<path d="M29.53 25.6201C29.53 26.3401 23.5299 26.9199 16.1199 26.9199C8.70993 26.9199 2.70996 26.3401 2.70996 25.6201C2.70996 24.9001 8.70993 24.3201 16.1199 24.3201C23.5299 24.3201 29.53 24.9001 29.53 25.6201Z" fill="#F5F6F7"/>
<path d="M29.34 25.6101C29.34 26.3201 23.42 26.8999 16.12 26.8999C8.81999 26.8999 2.90002 26.3201 2.90002 25.6101C2.90002 24.9001 8.81999 24.3201 16.12 24.3201C23.42 24.3201 29.34 24.9001 29.34 25.6101Z" fill="#F4F5F6"/>
<path d="M29.15 25.5901C29.15 26.2901 23.32 26.8601 16.13 26.8601C8.94 26.8601 3.10999 26.2901 3.10999 25.5901C3.10999 24.8901 8.94 24.3201 16.13 24.3201C23.32 24.3201 29.15 24.8901 29.15 25.5901Z" fill="#F3F4F5"/>
<path d="M28.9501 25.5701C28.9501 26.2601 23.2001 26.8201 16.1201 26.8201C9.03006 26.8201 3.29004 26.2601 3.29004 25.5701C3.29004 24.8801 9.03006 24.3201 16.1201 24.3201C23.2101 24.3201 28.9501 24.8801 28.9501 25.5701Z" fill="#F2F3F4"/>
<path d="M28.76 25.5601C28.76 26.2401 23.1 26.79 16.12 26.79C9.14 26.79 3.47998 26.2401 3.47998 25.5601C3.47998 24.8801 9.14 24.3301 16.12 24.3301C23.1 24.3301 28.76 24.8801 28.76 25.5601Z" fill="#F1F3F3"/>
<path d="M28.5699 25.54C28.5699 26.21 22.9999 26.75 16.1199 26.75C9.24993 26.75 3.66992 26.21 3.66992 25.54C3.66992 24.87 9.23993 24.3301 16.1199 24.3301C22.9999 24.3301 28.5699 24.87 28.5699 25.54Z" fill="#F0F2F2"/>
<path d="M28.38 25.52C28.38 26.18 22.89 26.71 16.13 26.71C9.36 26.71 3.88 26.18 3.88 25.52C3.88 24.86 9.37 24.3301 16.13 24.3301C22.89 24.3301 28.38 24.86 28.38 25.52Z" fill="#EFF1F2"/>
<path d="M28.1801 25.5099C28.1801 26.1599 22.7801 26.6798 16.1201 26.6798C9.46006 26.6798 4.06006 26.1499 4.06006 25.5099C4.06006 24.8599 9.46006 24.34 16.1201 24.34C22.7801 24.33 28.1801 24.8599 28.1801 25.5099Z" fill="#EEF0F1"/>
<path d="M27.99 25.49C27.99 26.13 22.68 26.6399 16.12 26.6399C9.56999 26.6399 4.25 26.12 4.25 25.49C4.25 24.85 9.56 24.3401 16.12 24.3401C22.68 24.3401 27.99 24.85 27.99 25.49Z" fill="#EEEFF0"/>
<path d="M27.7999 25.47C27.7999 26.1 22.5699 26.6001 16.1299 26.6001C9.67994 26.6001 4.45996 26.09 4.45996 25.47C4.45996 24.84 9.68994 24.3301 16.1299 24.3301C22.5699 24.3401 27.7999 24.85 27.7999 25.47Z" fill="#EDEEEF"/>
<path d="M27.6 25.46C27.6 26.08 22.46 26.5801 16.12 26.5801C9.77999 26.5801 4.64001 26.08 4.64001 25.46C4.64001 24.84 9.77999 24.3401 16.12 24.3401C22.46 24.3401 27.6 24.84 27.6 25.46Z" fill="#ECEDEE"/>
<path d="M27.41 25.4399C27.41 26.0499 22.3601 26.54 16.1201 26.54C9.89006 26.54 4.83008 26.0499 4.83008 25.4399C4.83008 24.8299 9.88006 24.3401 16.1201 24.3401C22.3601 24.3401 27.41 24.8299 27.41 25.4399Z" fill="#EBECEE"/>
<path d="M27.22 25.4199C27.22 26.0099 22.2501 26.5 16.1301 26.5C10.0001 26.5 5.04004 26.0199 5.04004 25.4199C5.04004 24.8199 10.0101 24.3401 16.1301 24.3401C22.2501 24.3401 27.22 24.8299 27.22 25.4199Z" fill="#EAEBED"/>
<path d="M27.02 25.4099C27.02 25.9899 22.14 26.47 16.12 26.47C10.1 26.47 5.21997 25.9999 5.21997 25.4099C5.21997 24.8199 10.1 24.3501 16.12 24.3501C22.14 24.3501 27.02 24.8199 27.02 25.4099Z" fill="#E9EBEC"/>
<path d="M26.83 25.3899C26.83 25.9599 22.0399 26.4299 16.1199 26.4299C10.2099 26.4299 5.40991 25.9599 5.40991 25.3899C5.40991 24.8099 10.1999 24.3501 16.1199 24.3501C22.0399 24.3501 26.83 24.8099 26.83 25.3899Z" fill="#E8EAEB"/>
<path d="M26.64 25.3701C26.64 25.9301 21.93 26.3899 16.13 26.3899C10.32 26.3899 5.62 25.9301 5.62 25.3701C5.62 24.8101 10.33 24.3501 16.13 24.3501C21.93 24.3501 26.64 24.8101 26.64 25.3701Z" fill="#E7E9EA"/>
<path d="M26.4501 25.36C26.4501 25.91 21.8301 26.36 16.1301 26.36C10.4301 26.36 5.81006 25.91 5.81006 25.36C5.81006 24.81 10.4301 24.36 16.1301 24.36C21.8201 24.35 26.4501 24.8 26.4501 25.36Z" fill="#E6E8E9"/>
<path d="M26.25 25.3401C26.25 25.8801 21.71 26.3201 16.12 26.3201C10.53 26.3201 5.98999 25.8801 5.98999 25.3401C5.98999 24.8001 10.52 24.3501 16.12 24.3501C21.72 24.3501 26.25 24.8001 26.25 25.3401Z" fill="#E5E7E9"/>
<path d="M26.0599 25.3201C26.0599 25.8501 21.6099 26.29 16.1199 26.29C10.6299 26.29 6.17993 25.8601 6.17993 25.3201C6.17993 24.7901 10.6299 24.3501 16.1199 24.3501C21.6099 24.3601 26.0599 24.7901 26.0599 25.3201Z" fill="#E4E6E8"/>
<path d="M25.87 25.3101C25.87 25.8301 21.51 26.26 16.13 26.26C10.75 26.26 6.39001 25.8401 6.39001 25.3101C6.39001 24.7901 10.75 24.3601 16.13 24.3601C21.5 24.3601 25.87 24.7801 25.87 25.3101Z" fill="#E3E5E7"/>
<path d="M25.67 25.29C25.67 25.8 21.3901 26.22 16.1201 26.22C10.8501 26.22 6.57007 25.8 6.57007 25.29C6.57007 24.78 10.8501 24.3601 16.1201 24.3601C21.4001 24.3601 25.67 24.78 25.67 25.29Z" fill="#E2E4E6"/>
<path d="M25.48 25.27C25.48 25.77 21.29 26.1799 16.12 26.1799C10.95 26.1799 6.76001 25.77 6.76001 25.27C6.76001 24.77 10.95 24.3601 16.12 24.3601C21.29 24.3601 25.48 24.77 25.48 25.27Z" fill="#E1E3E5"/>
<path d="M25.29 25.2599C25.29 25.7499 21.19 26.1498 16.13 26.1498C11.07 26.1498 6.96997 25.7499 6.96997 25.2599C6.96997 24.7699 11.07 24.3701 16.13 24.3701C21.18 24.3601 25.29 24.7599 25.29 25.2599Z" fill="#E0E3E4"/>
<path d="M25.09 25.24C25.09 25.72 21.07 26.1101 16.12 26.1101C11.17 26.1101 7.15002 25.72 7.15002 25.24C7.15002 24.76 11.17 24.3701 16.12 24.3701C21.08 24.3701 25.09 24.76 25.09 25.24Z" fill="#DFE2E4"/>
<path d="M24.9001 25.22C24.9001 25.69 20.9701 26.0701 16.1201 26.0701C11.2701 26.0701 7.34009 25.69 7.34009 25.22C7.34009 24.75 11.2701 24.3701 16.1201 24.3701C20.9701 24.3701 24.9001 24.75 24.9001 25.22Z" fill="#DEE1E3"/>
<path d="M24.7101 25.21C24.7101 25.67 20.8701 26.04 16.1301 26.04C11.3901 26.04 7.55005 25.67 7.55005 25.21C7.55005 24.75 11.3901 24.3701 16.1301 24.3701C20.8601 24.3701 24.7101 24.75 24.7101 25.21Z" fill="#DDE0E2"/>
<path d="M24.51 25.1899C24.51 25.6399 20.75 26.01 16.12 26.01C11.49 26.01 7.72998 25.6399 7.72998 25.1899C7.72998 24.7399 11.49 24.3701 16.12 24.3701C20.76 24.3701 24.51 24.7399 24.51 25.1899Z" fill="#DCDFE1"/>
<path d="M12.97 16.4899C12.97 16.4899 13.44 14.3499 16.19 14.5699C16.19 14.5699 12.72 9.18985 11.44 9.21985C10.15 9.23985 12.24 15.9499 12.97 16.4899Z" fill="#BD905F"/>
<path d="M19.4 16.4899C19.4 16.4899 18.9299 14.3499 16.1799 14.5699C16.1799 14.5699 19.6499 9.18985 20.9299 9.21985C22.2199 9.23985 20.13 15.9499 19.4 16.4899Z" fill="#BD905F"/>
<path d="M16.1599 13.3301L13.6599 12.0801V17.74C13.6599 17.74 14.6299 18.8999 16.1599 18.8999C17.9699 18.8999 18.6599 17.8301 18.6599 17.8301V12.9099L16.1599 13.3301Z" fill="#FFEDC6"/>
<path d="M18.4299 13.8701C18.4299 13.8701 17.2899 15.1201 13.6699 17.1001L13.6799 13.5701L18.4299 13.8701Z" fill="#F0D89A"/>
<path d="M12.0201 8.38981C12.0201 8.38981 12.6501 13.2399 12.7801 13.4799C12.9101 13.7099 15.36 15.0499 16.17 14.9899V3.24991C16.16 3.24991 11.3401 2.22981 12.0201 8.38981Z" fill="#FFEDC6"/>
<path d="M20.3099 8.38978C20.3099 8.38978 19.6799 13.2399 19.5499 13.4799C19.4199 13.7099 16.9699 15.0499 16.1599 14.9899V3.24989C16.1599 3.24989 18.0599 2.54983 19.3699 3.18983C20.3599 3.66983 20.5899 5.86978 20.3099 8.38978Z" fill="#FFEDC6"/>
<path d="M19.6699 11.19C19.6699 11.19 20.2799 11.4901 20.8599 10.1201C21.5299 8.55014 21.4899 7.8701 20.8599 7.8301C20.2299 7.7901 20.02 8.37014 20.02 8.37014L19.6699 11.19Z" fill="#FFEDC6"/>
<path d="M12.6599 11.19C12.6599 11.19 12.0499 11.4901 11.4699 10.1201C10.8099 8.55014 10.8399 7.8701 11.4699 7.8301C12.0999 7.7901 12.3099 8.37014 12.3099 8.37014L12.6599 11.19Z" fill="#FFEDC6"/>
<path d="M14.7 12.04C14.7 12.04 14.8299 12.0701 15.0999 12.0901C14.8599 12.0601 14.7 12.04 14.7 12.04Z" fill="#FDDBB4"/>
<path d="M12.97 3.68005C12.97 3.68005 10.68 9.0301 12.97 16.4801C12.97 16.4801 6.41007 11.5402 10.6801 3.56018C11.2101 2.57018 13.2001 0.320215 16.1201 0.850215V2.99011C16.1201 3.00011 13.64 2.82005 12.97 3.68005Z" fill="#F5B47C"/>
<path d="M19.2801 3.68005C19.2801 3.68005 21.5701 9.0301 19.2801 16.4801C19.2801 16.4801 25.84 11.5402 21.57 3.56018C21.04 2.57018 19.05 0.320215 16.13 0.850215V2.99011C16.12 3.00011 18.6101 2.82005 19.2801 3.68005Z" fill="#F5B47C"/>
<path d="M12.12 7.12012H16.12V2.15991C15.11 2.16991 11.62 2.48012 12.12 7.12012Z" fill="#F5B47C"/>
<path d="M16.25 2.15991C16.23 2.15991 16.21 2.15991 16.19 2.15991C16.17 2.15991 16.14 2.15991 16.12 2.15991V7.12012H20.21C20.6 2.35012 17.19 2.16991 16.25 2.15991Z" fill="#F5B47C"/>
<path d="M16.95 25.7901H15.32C15.19 25.7001 13.29 21.5001 13.3 21.0401C13.32 20.5701 15.53 18.5301 16.12 18.5301C16.71 18.5301 19.03 17.8501 19.63 18.7801C20.23 19.7101 16.95 25.7901 16.95 25.7901Z" fill="#CCCCCC"/>
<path d="M13.67 16.8999L12.8301 17.22L14.1 21.5801L16.1301 18.52C16.1201 18.52 15.3 18.2999 13.67 16.8999Z" fill="#DFE1DF"/>
<path d="M18.66 16.8999L19.48 17.27L18.21 21.55L16.12 18.52C16.12 18.52 17.03 18.2999 18.66 16.8999Z" fill="#FAF9FA"/>
<path d="M11.08 21.8999L11.67 21.0601L11.96 20.6399L10.9 18.8999L10.5 18.25L10.49 18.24C10.49 18.24 6.35003 20.1299 6.34003 20.1399C6.05003 20.4599 5.51002 23.32 5.15002 25.8H14.02L11.08 21.8999Z" fill="#4C526C"/>
<path d="M21.17 21.8999L18.22 25.79H27.09C26.73 23.31 26.2 20.4499 25.9 20.1299C25.89 20.1199 21.75 18.23 21.75 18.23L20.29 20.6399L21.17 21.8999Z" fill="#70758E"/>
<path d="M11.95 20.6399L11.66 21.0601L11.08 21.8999L14.03 25.79H15.32L14.86 24.2L13.29 18.8401L12.82 17.22L10.49 18.23L10.89 18.8899L11.95 20.6399Z" fill="#6C7690"/>
<path d="M11.0801 21.8999L11.66 21.0601L11.0801 21.8999L14.0301 25.79L11.0801 21.8999Z" fill="#6C7690"/>
<path d="M10.89 18.8899L10.49 18.23L10.5 18.24L10.89 18.8899Z" fill="#6C7690"/>
<path d="M21.1699 21.8999L20.2899 20.6399L21.7599 18.23L19.4799 17.28L19.02 18.8401L17.53 23.8201L16.95 25.79H18.2199L21.1699 21.8999Z" fill="#505773"/>
<path d="M14.2701 17.93C13.9301 18.05 14.0701 19.3601 14.0701 19.3601C14.0701 19.3601 13.9301 20.6701 14.2701 20.7901C14.6101 20.9101 16.54 19.3601 16.54 19.3601C16.54 19.3601 14.6101 17.81 14.2701 17.93Z" fill="#4C526C"/>
<path d="M18.0601 17.93C17.7201 17.81 15.79 19.3601 15.79 19.3601C15.79 19.3601 17.7201 20.9101 18.0601 20.7901C18.4001 20.6701 18.2601 19.3601 18.2601 19.3601C18.2601 19.3601 18.4001 18.05 18.0601 17.93Z" fill="#70758E"/>
<path d="M16.4801 18.8201H16.1601H15.8401C15.8401 18.8201 15.7301 19.2499 15.8401 19.8999H16.1601H16.4801C16.6001 19.2499 16.4801 18.8201 16.4801 18.8201Z" fill="#54586B"/>
<path d="M77.95 25.79C77.95 26.61 71.08 27.28 62.61 27.28C54.14 27.28 47.27 26.61 47.27 25.79C47.27 24.97 54.14 24.3 62.61 24.3C71.08 24.3 77.95 24.97 77.95 25.79Z" fill="white"/>
<path d="M77.7599 25.77C77.7599 26.58 70.9799 27.24 62.6099 27.24C54.2399 27.24 47.46 26.58 47.46 25.77C47.46 24.96 54.2399 24.3 62.6099 24.3C70.9699 24.3 77.7599 24.96 77.7599 25.77Z" fill="#FEFEFE"/>
<path d="M77.56 25.7601C77.56 26.5601 70.86 27.2101 62.61 27.2101C54.35 27.2101 47.65 26.5601 47.65 25.7601C47.65 24.9601 54.35 24.3102 62.61 24.3102C70.87 24.3002 77.56 24.9501 77.56 25.7601Z" fill="#FDFDFD"/>
<path d="M77.37 25.74C77.37 26.53 70.76 27.1799 62.61 27.1799C54.46 27.1799 47.85 26.54 47.85 25.74C47.85 24.95 54.46 24.3 62.61 24.3C70.76 24.3 77.37 24.95 77.37 25.74Z" fill="#FCFCFC"/>
<path d="M77.1801 25.72C77.1801 26.5 70.66 27.1399 62.61 27.1399C54.56 27.1399 48.04 26.5 48.04 25.72C48.04 24.94 54.56 24.3 62.61 24.3C70.65 24.31 77.1801 24.94 77.1801 25.72Z" fill="#FBFBFC"/>
<path d="M76.98 25.71C76.98 26.48 70.54 27.1101 62.6 27.1101C54.66 27.1101 48.22 26.48 48.22 25.71C48.22 24.94 54.66 24.3101 62.6 24.3101C70.55 24.3101 76.98 24.93 76.98 25.71Z" fill="#FAFBFB"/>
<path d="M76.7899 25.6899C76.7899 26.4499 70.4399 27.0701 62.6099 27.0701C54.7799 27.0701 48.4299 26.4499 48.4299 25.6899C48.4299 24.9299 54.7799 24.3101 62.6099 24.3101C70.4399 24.3101 76.7899 24.9299 76.7899 25.6899Z" fill="#F9FAFA"/>
<path d="M76.6 25.6699C76.6 26.4199 70.34 27.03 62.61 27.03C54.88 27.03 48.62 26.4199 48.62 25.6699C48.62 24.9199 54.88 24.3101 62.61 24.3101C70.33 24.3101 76.6 24.9199 76.6 25.6699Z" fill="#F8F9F9"/>
<path d="M76.4001 25.66C76.4001 26.4 70.22 27.0001 62.6 27.0001C54.98 27.0001 48.8 26.4 48.8 25.66C48.8 24.92 54.98 24.3202 62.6 24.3202C70.23 24.3102 76.4001 24.92 76.4001 25.66Z" fill="#F7F8F8"/>
<path d="M76.21 25.6399C76.21 26.3699 70.12 26.96 62.61 26.96C55.1 26.96 49.01 26.3699 49.01 25.6399C49.01 24.9099 55.1 24.3201 62.61 24.3201C70.12 24.3201 76.21 24.9099 76.21 25.6399Z" fill="#F6F7F7"/>
<path d="M76.02 25.6201C76.02 26.3401 70.0199 26.9199 62.6099 26.9199C55.1999 26.9199 49.2 26.3401 49.2 25.6201C49.2 24.9001 55.1999 24.3201 62.6099 24.3201C70.0099 24.3201 76.02 24.9001 76.02 25.6201Z" fill="#F5F6F7"/>
<path d="M75.83 25.6101C75.83 26.3201 69.91 26.8999 62.61 26.8999C55.31 26.8999 49.39 26.3201 49.39 25.6101C49.39 24.9001 55.31 24.3201 62.61 24.3201C69.91 24.3201 75.83 24.9001 75.83 25.6101Z" fill="#F4F5F6"/>
<path d="M75.6301 25.5901C75.6301 26.2901 69.8 26.8601 62.61 26.8601C55.42 26.8601 49.5801 26.2901 49.5801 25.5901C49.5801 24.8901 55.41 24.3201 62.61 24.3201C69.8 24.3201 75.6301 24.8901 75.6301 25.5901Z" fill="#F3F4F5"/>
<path d="M75.44 25.5701C75.44 26.2601 69.7 26.8201 62.61 26.8201C55.52 26.8201 49.78 26.2601 49.78 25.5701C49.78 24.8801 55.53 24.3201 62.61 24.3201C69.69 24.3201 75.44 24.8801 75.44 25.5701Z" fill="#F2F3F4"/>
<path d="M75.25 25.5601C75.25 26.2401 69.59 26.79 62.61 26.79C55.63 26.79 49.97 26.2401 49.97 25.5601C49.97 24.8801 55.63 24.3301 62.61 24.3301C69.59 24.3301 75.25 24.8801 75.25 25.5601Z" fill="#F1F3F3"/>
<path d="M75.05 25.54C75.05 26.21 69.48 26.75 62.6 26.75C55.73 26.75 50.15 26.21 50.15 25.54C50.15 24.87 55.72 24.3301 62.6 24.3301C69.48 24.3301 75.05 24.87 75.05 25.54Z" fill="#F0F2F2"/>
<path d="M74.86 25.52C74.86 26.18 69.37 26.71 62.61 26.71C55.84 26.71 50.36 26.18 50.36 25.52C50.36 24.86 55.85 24.3301 62.61 24.3301C69.37 24.3301 74.86 24.86 74.86 25.52Z" fill="#EFF1F2"/>
<path d="M74.67 25.5099C74.67 26.1599 69.27 26.6798 62.61 26.6798C55.95 26.6798 50.55 26.1499 50.55 25.5099C50.55 24.8599 55.95 24.34 62.61 24.34C69.27 24.33 74.67 24.8599 74.67 25.5099Z" fill="#EEF0F1"/>
<path d="M74.47 25.49C74.47 26.13 69.16 26.6399 62.6 26.6399C56.05 26.6399 50.73 26.12 50.73 25.49C50.73 24.85 56.04 24.3401 62.6 24.3401C69.16 24.3401 74.47 24.85 74.47 25.49Z" fill="#EEEFF0"/>
<path d="M74.28 25.47C74.28 26.1 69.0499 26.6001 62.6099 26.6001C56.1599 26.6001 50.9399 26.09 50.9399 25.47C50.9399 24.84 56.1699 24.3301 62.6099 24.3301C69.0499 24.3401 74.28 24.85 74.28 25.47Z" fill="#EDEEEF"/>
<path d="M74.09 25.46C74.09 26.08 68.95 26.5801 62.61 26.5801C56.27 26.5801 51.13 26.08 51.13 25.46C51.13 24.84 56.27 24.3401 62.61 24.3401C68.95 24.3401 74.09 24.84 74.09 25.46Z" fill="#ECEDEE"/>
<path d="M73.9001 25.4399C73.9001 26.0499 68.85 26.54 62.61 26.54C56.38 26.54 51.3201 26.0499 51.3201 25.4399C51.3201 24.8299 56.37 24.3401 62.61 24.3401C68.84 24.3401 73.9001 24.8299 73.9001 25.4399Z" fill="#EBECEE"/>
<path d="M73.7 25.4199C73.7 26.0099 68.73 26.5 62.61 26.5C56.48 26.5 51.52 26.0199 51.52 25.4199C51.52 24.8199 56.49 24.3401 62.61 24.3401C68.73 24.3401 73.7 24.8299 73.7 25.4199Z" fill="#EAEBED"/>
<path d="M73.5099 25.4099C73.5099 25.9899 68.6299 26.47 62.6099 26.47C56.5899 26.47 51.71 25.9999 51.71 25.4099C51.71 24.8199 56.5899 24.3501 62.6099 24.3501C68.6299 24.3501 73.5099 24.8199 73.5099 25.4099Z" fill="#E9EBEC"/>
<path d="M73.32 25.3899C73.32 25.9599 68.53 26.4299 62.61 26.4299C56.7 26.4299 51.9 25.9599 51.9 25.3899C51.9 24.8099 56.69 24.3501 62.61 24.3501C68.52 24.3501 73.32 24.8099 73.32 25.3899Z" fill="#E8EAEB"/>
<path d="M73.1201 25.3701C73.1201 25.9301 68.41 26.3899 62.61 26.3899C56.8 26.3899 52.0901 25.9301 52.0901 25.3701C52.0901 24.8101 56.8 24.3501 62.61 24.3501C68.41 24.3501 73.1201 24.8101 73.1201 25.3701Z" fill="#E7E9EA"/>
<path d="M72.9301 25.36C72.9301 25.91 68.31 26.36 62.61 26.36C56.91 26.36 52.29 25.91 52.29 25.36C52.29 24.81 56.91 24.36 62.61 24.36C68.31 24.35 72.9301 24.8 72.9301 25.36Z" fill="#E6E8E9"/>
<path d="M72.74 25.3401C72.74 25.8801 68.2 26.3201 62.61 26.3201C57.02 26.3201 52.48 25.8801 52.48 25.3401C52.48 24.8001 57.02 24.3501 62.61 24.3501C68.2 24.3501 72.74 24.8001 72.74 25.3401Z" fill="#E5E7E9"/>
<path d="M72.5399 25.3201C72.5399 25.8501 68.0899 26.29 62.5999 26.29C57.1099 26.29 52.6599 25.8601 52.6599 25.3201C52.6599 24.7901 57.1099 24.3501 62.5999 24.3501C68.0899 24.3601 72.5399 24.7901 72.5399 25.3201Z" fill="#E4E6E8"/>
<path d="M72.35 25.3101C72.35 25.8301 67.99 26.26 62.61 26.26C57.23 26.26 52.87 25.8401 52.87 25.3101C52.87 24.7901 57.23 24.3601 62.61 24.3601C67.99 24.3601 72.35 24.7801 72.35 25.3101Z" fill="#E3E5E7"/>
<path d="M72.16 25.29C72.16 25.8 67.88 26.22 62.61 26.22C57.34 26.22 53.0601 25.8 53.0601 25.29C53.0601 24.78 57.34 24.3601 62.61 24.3601C67.88 24.3601 72.16 24.78 72.16 25.29Z" fill="#E2E4E6"/>
<path d="M71.96 25.27C71.96 25.77 67.77 26.1799 62.6 26.1799C57.43 26.1799 53.24 25.77 53.24 25.27C53.24 24.77 57.43 24.3601 62.6 24.3601C67.77 24.3601 71.96 24.77 71.96 25.27Z" fill="#E1E3E5"/>
<path d="M71.77 25.2599C71.77 25.7499 67.6699 26.1498 62.6099 26.1498C57.5499 26.1498 53.45 25.7499 53.45 25.2599C53.45 24.7699 57.5499 24.3701 62.6099 24.3701C67.6699 24.3601 71.77 24.7599 71.77 25.2599Z" fill="#E0E3E4"/>
<path d="M71.58 25.24C71.58 25.72 67.56 26.1101 62.61 26.1101C57.66 26.1101 53.64 25.72 53.64 25.24C53.64 24.76 57.66 24.3701 62.61 24.3701C67.56 24.3701 71.58 24.76 71.58 25.24Z" fill="#DFE2E4"/>
<path d="M71.3901 25.22C71.3901 25.69 67.46 26.0701 62.61 26.0701C57.76 26.0701 53.8301 25.69 53.8301 25.22C53.8301 24.75 57.76 24.3701 62.61 24.3701C67.45 24.3701 71.3901 24.75 71.3901 25.22Z" fill="#DEE1E3"/>
<path d="M71.19 25.21C71.19 25.67 67.35 26.04 62.61 26.04C57.87 26.04 54.03 25.67 54.03 25.21C54.03 24.75 57.87 24.3701 62.61 24.3701C67.35 24.3701 71.19 24.75 71.19 25.21Z" fill="#DDE0E2"/>
<path d="M71 25.1899C71 25.6399 67.24 26.01 62.61 26.01C57.98 26.01 54.22 25.6399 54.22 25.1899C54.22 24.7399 57.98 24.3701 62.61 24.3701C67.24 24.3701 71 24.7399 71 25.1899Z" fill="#DCDFE1"/>
<path d="M62.61 13.72L59.8 12.3101V18.6699C59.8 18.6699 60.89 19.97 62.61 19.97C64.64 19.97 65.42 18.77 65.42 18.77V13.25L62.61 13.72Z" fill="#FFEDC6"/>
<path d="M65.41 14.79C65.41 14.79 64.07 16.0301 59.8 18.3501L59.8101 14.1899L65.41 14.79Z" fill="#F0D89A"/>
<path d="M62.6099 18.4299V20.8L61.9 21.0601L60.88 19.3201C60.87 19.3101 61.8299 18.4899 62.6099 18.4299Z" fill="#6E7E97"/>
<path d="M59.8 16.8301L59.26 17.1101L60.55 21.53L62.6 18.4299C62.61 18.4299 61.45 18.2501 59.8 16.8301Z" fill="#DFE1DF"/>
<path d="M58.21 8.96008C58.21 8.96008 58.87 14.1002 59.01 14.3502C59.15 14.6002 61.74 16.0201 62.6 15.9501V3.51013C62.61 3.51013 57.17 1.25008 58.21 8.96008Z" fill="#FFEDC6"/>
<path d="M67.0001 8.96004C67.0001 8.96004 66.3401 14.1002 66.2001 14.3502C66.0601 14.6002 63.4701 16.02 62.6101 15.95V3.51009C62.6101 3.51009 67.7201 2.43004 67.0001 8.96004Z" fill="#FFEDC6"/>
<path d="M66.23 12.0101C66.23 12.0101 66.99 12.2901 67.46 10.8001C68 9.08011 67.63 8.30016 67.14 8.35016C66.97 8.37016 66.84 8.40002 66.73 8.46002C66.4 8.65002 66.31 9.01007 66.31 9.01007L66.23 12.0101Z" fill="#FFEDC6"/>
<path d="M58.9901 12.0101C58.9901 12.0101 58.2301 12.2901 57.7601 10.8001C57.2201 9.08011 57.5901 8.30016 58.0801 8.35016C58.2501 8.37016 58.3801 8.40002 58.4901 8.46002C58.8201 8.65002 58.9101 9.01007 58.9101 9.01007L58.9901 12.0101Z" fill="#FFEDC6"/>
<path d="M57.7201 4.33008C57.3401 5.36008 58.1201 8.43994 58.1201 8.43994L58.6301 9.21997L58.5101 7.48999C58.5101 7.48999 59.5901 5.15003 59.3001 4.28003L58.6101 3.29004C58.6101 3.30004 57.8501 4.00008 57.7201 4.33008Z" fill="#A86C3A"/>
<path d="M67.4901 4.33008C67.8701 5.36008 67.0901 8.43994 67.0901 8.43994L66.5801 9.21997L66.7001 7.48999C66.7001 7.48999 65.6201 5.15003 65.9101 4.28003L66.6001 3.29004C66.6001 3.30004 67.3701 4.00008 67.4901 4.33008Z" fill="#A86C3A"/>
<path d="M62.6101 1.13989C61.3101 1.13989 59.4201 1.73005 58.6101 3.30005L59.3001 4.29004C59.3001 4.29004 61.1401 5.26989 62.6601 5.38989C63.6101 5.45989 65.1401 5.51009 66.3001 4.59009L66.6101 3.30005C66.6001 3.30005 65.6601 1.14989 62.6101 1.13989Z" fill="#A86C3A"/>
<path d="M62.61 18.4299V20.8L63.32 21.0601L64.34 19.3201C64.34 19.3101 63.38 18.4899 62.61 18.4299Z" fill="#78A1C9"/>
<path d="M65.41 16.79L66.01 17.1699L64.72 21.5L62.61 18.4299C62.61 18.4299 63.76 18.21 65.41 16.79Z" fill="#FAF9FA"/>
<path d="M57.5 21.8501L58.09 21L58.39 20.5701L57.32 18.8L56.92 18.1399L56.91 18.1299C56.91 18.1299 52.72 20.05 52.71 20.05C52.41 20.38 51.87 23.27 51.51 25.78H60.5L57.5 21.8501Z" fill="#4C526C"/>
<path d="M67.72 21.8501L64.73 25.79H73.72C73.36 23.28 72.82 20.3801 72.52 20.0601C72.51 20.0501 68.32 18.1399 68.32 18.1399L66.84 20.5801L67.72 21.8501Z" fill="#70758E"/>
<path d="M62.61 25.79V20.79L61.9001 21.05C61.9001 21.05 61.4401 23.1199 61.3301 24.1799L61.8 25.79H62.61Z" fill="#6E7E97"/>
<path d="M63.42 25.79L63.89 24.1799C63.78 23.1199 63.32 21.05 63.32 21.05L62.61 20.79V25.79H63.42Z" fill="#78A1C9"/>
<path d="M58.38 20.5701L58.09 21L57.5 21.8501L60.49 25.79H61.79L61.33 24.1799L59.74 18.75L59.26 17.1101L56.9 18.1299L57.31 18.8L58.38 20.5701Z" fill="#6C7690"/>
<path d="M67.7199 21.8501L66.83 20.5701L68.3199 18.1299L66.0099 17.1699L65.5399 18.75L64.03 23.8L63.4399 25.79H64.7299L67.7199 21.8501Z" fill="#505773"/>
<path d="M38.4501 55.3501C46.6736 55.3501 53.3401 54.9024 53.3401 54.3501C53.3401 53.7978 46.6736 53.3501 38.4501 53.3501C30.2266 53.3501 23.5601 53.7978 23.5601 54.3501C23.5601 54.9024 30.2266 55.3501 38.4501 55.3501Z" fill="white"/>
<path d="M53.15 54.3401C53.15 54.8901 46.57 55.3301 38.44 55.3301C30.32 55.3301 23.73 54.8901 23.73 54.3401C23.73 53.7901 30.31 53.3501 38.44 53.3501C46.57 53.3501 53.15 53.7901 53.15 54.3401Z" fill="#FEFEFE"/>
<path d="M52.97 54.3201C52.97 54.8601 46.4701 55.3 38.4501 55.3C30.4301 55.3 23.9301 54.8601 23.9301 54.3201C23.9301 53.7801 30.4301 53.3401 38.4501 53.3401C46.4701 53.3501 52.97 53.7801 52.97 54.3201Z" fill="#FDFDFD"/>
<path d="M52.7802 54.3101C52.7802 54.8401 46.3601 55.27 38.4501 55.27C30.5401 55.27 24.1201 54.8401 24.1201 54.3101C24.1201 53.7801 30.5401 53.3501 38.4501 53.3501C46.3601 53.3501 52.7802 53.7801 52.7802 54.3101Z" fill="#FCFCFC"/>
<path d="M52.5901 54.3C52.5901 54.83 46.2601 55.25 38.4501 55.25C30.6401 55.25 24.3101 54.82 24.3101 54.3C24.3101 53.77 30.6401 53.3501 38.4501 53.3501C46.2601 53.3501 52.5901 53.78 52.5901 54.3Z" fill="#FBFBFC"/>
<path d="M52.4 54.29C52.4 54.81 46.15 55.23 38.44 55.23C30.73 55.23 24.48 54.81 24.48 54.29C24.48 53.77 30.73 53.3501 38.44 53.3501C46.16 53.3501 52.4 53.77 52.4 54.29Z" fill="#FAFBFB"/>
<path d="M52.22 54.28C52.22 54.79 46.0601 55.21 38.4501 55.21C30.8501 55.21 24.6801 54.8 24.6801 54.28C24.6801 53.76 30.8401 53.3501 38.4501 53.3501C46.0501 53.3501 52.22 53.77 52.22 54.28Z" fill="#F9FAFA"/>
<path d="M52.0302 54.27C52.0302 54.77 45.9501 55.1799 38.4501 55.1799C30.9501 55.1799 24.8701 54.77 24.8701 54.27C24.8701 53.77 30.9501 53.36 38.4501 53.36C45.9501 53.35 52.0302 53.76 52.0302 54.27Z" fill="#F8F9F9"/>
<path d="M51.8401 54.26C51.8401 54.76 45.8401 55.1599 38.4501 55.1599C31.0501 55.1599 25.0601 54.76 25.0601 54.26C25.0601 53.76 31.0601 53.3601 38.4501 53.3601C45.8401 53.3601 51.8401 53.76 51.8401 54.26Z" fill="#F7F8F8"/>
<path d="M51.65 54.25C51.65 54.74 45.74 55.1399 38.44 55.1399C31.15 55.1399 25.23 54.74 25.23 54.25C25.23 53.76 31.14 53.3601 38.44 53.3601C45.74 53.3601 51.65 53.75 51.65 54.25Z" fill="#F6F7F7"/>
<path d="M51.47 54.23C51.47 54.71 45.6401 55.1101 38.4501 55.1101C31.2601 55.1101 25.4301 54.72 25.4301 54.23C25.4301 53.74 31.2601 53.3501 38.4501 53.3501C45.6401 53.3601 51.47 53.75 51.47 54.23Z" fill="#F5F6F7"/>
<path d="M51.2802 54.22C51.2802 54.7 45.5401 55.0801 38.4501 55.0801C31.3601 55.0801 25.6201 54.69 25.6201 54.22C25.6201 53.74 31.3601 53.3601 38.4501 53.3601C45.5301 53.3601 51.2802 53.75 51.2802 54.22Z" fill="#F4F5F6"/>
<path d="M51.0901 54.21C51.0901 54.68 45.4301 55.0601 38.4501 55.0601C31.4701 55.0601 25.8101 54.68 25.8101 54.21C25.8101 53.74 31.4701 53.3601 38.4501 53.3601C45.4301 53.3601 51.0901 53.74 51.0901 54.21Z" fill="#F3F4F5"/>
<path d="M50.9 54.2C50.9 54.66 45.32 55.04 38.44 55.04C31.56 55.04 25.98 54.66 25.98 54.2C25.98 53.74 31.56 53.3601 38.44 53.3601C45.33 53.3601 50.9 53.74 50.9 54.2Z" fill="#F2F3F4"/>
<path d="M50.72 54.1899C50.72 54.6499 45.2301 55.02 38.4501 55.02C31.6701 55.02 26.1801 54.6499 26.1801 54.1899C26.1801 53.7299 31.6701 53.3601 38.4501 53.3601C45.2201 53.3601 50.72 53.7299 50.72 54.1899Z" fill="#F1F3F3"/>
<path d="M50.5302 54.1799C50.5302 54.6299 45.1201 54.99 38.4501 54.99C31.7801 54.99 26.3701 54.6299 26.3701 54.1799C26.3701 53.7299 31.7801 53.3701 38.4501 53.3701C45.1201 53.3701 50.5302 53.7299 50.5302 54.1799Z" fill="#F0F2F2"/>
<path d="M50.3401 54.1699C50.3401 54.6099 45.0201 54.97 38.4501 54.97C31.8801 54.97 26.5601 54.6099 26.5601 54.1699C26.5601 53.7299 31.8901 53.3701 38.4501 53.3701C45.0201 53.3701 50.3401 53.7299 50.3401 54.1699Z" fill="#EFF1F2"/>
<path d="M50.15 54.1599C50.15 54.5899 44.91 54.95 38.44 54.95C31.97 54.95 26.73 54.5999 26.73 54.1599C26.73 53.7199 31.97 53.3701 38.44 53.3701C44.91 53.3701 50.15 53.7199 50.15 54.1599Z" fill="#EEF0F1"/>
<path d="M49.97 54.1499C49.97 54.5799 44.8101 54.9199 38.4501 54.9199C32.0901 54.9199 26.9301 54.5699 26.9301 54.1499C26.9301 53.7199 32.0901 53.3701 38.4501 53.3701C44.8101 53.3701 49.97 53.7199 49.97 54.1499Z" fill="#EEEFF0"/>
<path d="M49.7802 54.1299C49.7802 54.5499 44.7101 54.8899 38.4501 54.8899C32.1901 54.8899 27.1201 54.5499 27.1201 54.1299C27.1201 53.7099 32.1901 53.3701 38.4501 53.3701C44.7101 53.3701 49.7802 53.7099 49.7802 54.1299Z" fill="#EDEEEF"/>
<path d="M49.5901 54.1201C49.5901 54.5301 44.6001 54.8701 38.4501 54.8701C32.3001 54.8701 27.3101 54.5301 27.3101 54.1201C27.3101 53.7101 32.3001 53.3701 38.4501 53.3701C44.6001 53.3701 49.5901 53.7101 49.5901 54.1201Z" fill="#ECEDEE"/>
<path d="M49.4 54.1101C49.4 54.5201 44.49 54.8501 38.44 54.8501C32.39 54.8501 27.48 54.5201 27.48 54.1101C27.48 53.7001 32.39 53.3701 38.44 53.3701C44.5 53.3701 49.4 53.7001 49.4 54.1101Z" fill="#EBECEE"/>
<path d="M49.22 54.1001C49.22 54.5001 44.4001 54.8201 38.4501 54.8201C32.5001 54.8201 27.6801 54.5001 27.6801 54.1001C27.6801 53.7001 32.5001 53.3701 38.4501 53.3701C44.4001 53.3801 49.22 53.7001 49.22 54.1001Z" fill="#EAEBED"/>
<path d="M49.0302 54.0901C49.0302 54.4801 44.2901 54.8 38.4501 54.8C32.6101 54.8 27.8701 54.4801 27.8701 54.0901C27.8701 53.7001 32.6101 53.3799 38.4501 53.3799C44.2901 53.3799 49.0302 53.7001 49.0302 54.0901Z" fill="#E9EBEC"/>
<path d="M48.8401 54.0801C48.8401 54.4701 44.1901 54.78 38.4401 54.78C32.7001 54.78 28.05 54.4701 28.05 54.0801C28.05 53.6901 32.7001 53.3799 38.4401 53.3799C44.1901 53.3799 48.8401 53.6901 48.8401 54.0801Z" fill="#E8EAEB"/>
<path d="M48.65 54.0701C48.65 54.4501 44.08 54.76 38.44 54.76C32.8 54.76 28.23 54.4501 28.23 54.0701C28.23 53.6901 32.8 53.3799 38.44 53.3799C44.08 53.3799 48.65 53.6901 48.65 54.0701Z" fill="#E7E9EA"/>
<path d="M48.47 54.0601C48.47 54.4301 43.9801 54.73 38.4501 54.73C32.9201 54.73 28.4301 54.4301 28.4301 54.0601C28.4301 53.6901 32.9201 53.3899 38.4501 53.3899C43.9801 53.3799 48.47 53.6801 48.47 54.0601Z" fill="#E6E8E9"/>
<path d="M48.2802 54.04C48.2802 54.41 43.8801 54.7 38.4501 54.7C33.0201 54.7 28.6201 54.4 28.6201 54.04C28.6201 53.67 33.0201 53.3799 38.4501 53.3799C43.8801 53.3799 48.2802 53.68 48.2802 54.04Z" fill="#E5E7E9"/>
<path d="M48.0901 54.03C48.0901 54.39 43.7701 54.6799 38.4401 54.6799C33.1101 54.6799 28.8 54.39 28.8 54.03C28.8 53.67 33.1201 53.3799 38.4401 53.3799C43.7701 53.3799 48.0901 53.68 48.0901 54.03Z" fill="#E4E6E8"/>
<path d="M47.9 54.02C47.9 54.37 43.67 54.6599 38.44 54.6599C33.22 54.6599 28.98 54.38 28.98 54.02C28.98 53.67 33.21 53.3799 38.44 53.3799C43.67 53.3899 47.9 53.67 47.9 54.02Z" fill="#E3E5E7"/>
<path d="M47.72 54.01C47.72 54.35 43.5701 54.6299 38.4501 54.6299C33.3301 54.6299 29.1801 54.35 29.1801 54.01C29.1801 53.67 33.3301 53.3899 38.4501 53.3899C43.5701 53.3899 47.72 53.67 47.72 54.01Z" fill="#E2E4E6"/>
<path d="M47.5302 54C47.5302 54.34 43.4601 54.6101 38.4501 54.6101C33.4301 54.6101 29.3701 54.34 29.3701 54C29.3701 53.66 33.4401 53.3899 38.4501 53.3899C43.4601 53.3899 47.5302 53.66 47.5302 54Z" fill="#E1E3E5"/>
<path d="M47.3401 53.99C47.3401 54.32 43.3601 54.5901 38.4401 54.5901C33.5301 54.5901 29.55 54.32 29.55 53.99C29.55 53.66 33.5301 53.3899 38.4401 53.3899C43.3601 53.3899 47.3401 53.66 47.3401 53.99Z" fill="#E0E3E4"/>
<path d="M47.15 53.98C47.15 54.3 43.25 54.5701 38.44 54.5701C33.63 54.5701 29.73 54.31 29.73 53.98C29.73 53.66 33.63 53.3899 38.44 53.3899C43.26 53.3899 47.15 53.65 47.15 53.98Z" fill="#DFE2E4"/>
<path d="M46.97 53.97C46.97 54.29 43.1601 54.5401 38.4501 54.5401C33.7401 54.5401 29.9301 54.28 29.9301 53.97C29.9301 53.65 33.7401 53.3999 38.4501 53.3999C43.1501 53.3899 46.97 53.65 46.97 53.97Z" fill="#DEE1E3"/>
<path d="M46.7802 53.96C46.7802 54.27 43.0501 54.5201 38.4501 54.5201C33.8501 54.5201 30.1201 54.27 30.1201 53.96C30.1201 53.65 33.8501 53.3999 38.4501 53.3999C43.0501 53.3899 46.7802 53.65 46.7802 53.96Z" fill="#DDE0E2"/>
<path d="M46.5901 53.9399C46.5901 54.2399 42.9401 54.49 38.4401 54.49C33.9401 54.49 30.29 54.2399 30.29 53.9399C30.29 53.6399 33.9401 53.3899 38.4401 53.3899C42.9501 53.3999 46.5901 53.6399 46.5901 53.9399Z" fill="#DCDFE1"/>
<path d="M42.2701 30.6899C44.3401 31.8999 44.9801 33.0598 44.8401 44.6498H38.6201L38.5302 29.87C38.5402 29.87 40.6601 29.7399 42.2701 30.6899Z" fill="#3E3E3E"/>
<path d="M34.9801 30.6899C32.9101 31.8999 32.2701 33.0598 32.4101 44.6498H38.6302L38.7201 29.87C38.7101 29.87 36.5901 29.7399 34.9801 30.6899Z" fill="#3E3E3E"/>
<path d="M38.54 41.96L35.8 40.5901V46.79C35.8 46.79 36.86 48.0601 38.54 48.0601C40.52 48.0601 41.2801 46.8899 41.2801 46.8899V41.5L38.54 41.96Z" fill="#FFEDC6"/>
<path d="M41.2801 43C41.2801 43 39.9701 44.21 35.8101 46.47L35.8201 42.4099L41.2801 43Z" fill="#F0D89A"/>
<path d="M34.0001 36.9299C34.0001 36.9299 34.6901 42.25 34.8301 42.51C34.9701 42.77 37.6601 44.2299 38.5501 44.1699V30.8201C37.5001 30.8101 33.3501 31.0599 34.0001 36.9299Z" fill="#FFEDC6"/>
<path d="M38.61 30.8101C38.59 30.8101 38.57 30.8101 38.55 30.8101V44.1599C39.44 44.2199 42.1301 42.76 42.2701 42.5C42.4101 42.24 43.1 36.9199 43.1 36.9199C43.59 31.0399 39.68 30.8201 38.61 30.8101Z" fill="#FFEDC6"/>
<path d="M34.4201 40.0599C34.4201 40.0599 33.8001 40.3498 33.3601 38.9298C32.8101 37.1498 32.8701 36.57 33.3101 36.58C34.0001 36.58 34.1901 37.0099 34.1901 37.0099L34.4201 40.0599Z" fill="#FFEDC6"/>
<path d="M38.6901 29.8701C38.6701 29.8701 38.6501 29.8701 38.6201 29.8701C38.6001 29.8701 38.5701 29.8701 38.5401 29.8701C37.3601 29.8801 32.9701 30.78 33.9801 36.78C33.9801 36.78 36.6801 36.4399 38.5401 35.3799C40.6601 34.1699 42.0701 32.28 42.0701 32.28C42.3501 30.47 39.7901 29.8701 38.6901 29.8701Z" fill="#3E3E3E"/>
<path d="M39.3601 54.3501H37.6701C37.6701 54.3501 34.7801 49.0899 34.7901 48.6299C34.8101 48.1699 38.5401 47.02 38.5401 47.02C38.5401 47.02 41.5401 47.0399 41.9701 47.1899C42.9901 47.5799 40.9001 52.6501 39.3601 54.3501Z" fill="#F2F2F2"/>
<path d="M41.9502 31.75C41.9502 31.75 41.4602 34.4 43.0702 36.77C44.6802 39.14 43.5902 33.6101 43.5902 33.6101C43.5902 33.6101 42.4202 31.75 41.9502 31.75Z" fill="#3E3E3E"/>
<path d="M42.6702 40.03C42.6702 40.03 43.3402 40.2 43.6902 38.75C44.0902 37.08 44.0002 36.7199 43.5602 36.6599C43.1802 36.5999 42.7602 37.02 42.7602 37.02L42.6702 40.03Z" fill="#FFEDC6"/>
<path d="M39.1101 47.02H37.9801V54.3501H39.1101V47.02Z" fill="#F8F8F8"/>
<path d="M41.29 45.1799C41.29 45.1799 40.9 46.55 38.55 47.02C38.55 47.02 39.39 49.2999 41.61 48.4299C43.91 47.5099 42.78 45.7499 41.29 45.1799Z" fill="#E5E5E5"/>
<path d="M35.8002 45.1299C35.8002 45.1299 36.1902 46.55 38.5402 47.02C38.5402 47.02 37.7002 49.2999 35.4802 48.4299C33.1702 47.5099 34.3102 45.6999 35.8002 45.1299Z" fill="#D7D7D7"/>
<path d="M33.2601 50.3L33.8701 49.4199L34.1701 48.98L33.0701 47.1599L32.6601 46.48L32.6501 46.47C32.6501 46.47 28.3401 48.44 28.3401 48.45C28.0301 48.78 27.4801 51.7601 27.1001 54.3401H36.3401L33.2601 50.3Z" fill="#BFBFBF"/>
<path d="M43.7602 50.3L40.6902 54.3501H49.9302C49.5602 51.7701 49.0002 48.79 48.6902 48.46C48.6802 48.45 44.3702 46.48 44.3702 46.48L42.8502 48.99L43.7602 50.3Z" fill="#D1D1D1"/>
<path d="M34.1701 48.99L33.8601 49.4199L33.2601 50.3L36.3301 54.3501H37.6701L37.1901 52.6899L35.5701 47.1101L35.0801 45.4299L32.6501 46.48L33.0701 47.1699L34.1701 48.99Z" fill="#9E9E9E"/>
<path d="M43.7601 50.3L42.8501 48.99L44.3701 46.48L42.0101 45.49L41.5201 47.1101L39.9801 52.3L39.3601 54.3501H40.6901L43.7601 50.3Z" fill="#C2C2C2"/>
<path d="M38.0901 49.23C38.0901 49.46 38.2801 49.6499 38.5101 49.6499V48.8C38.2701 48.8 38.0901 48.99 38.0901 49.23Z" fill="#F7F7F7"/>
<path d="M38.51 48.8V49.6499H38.52C38.75 49.6499 38.94 49.46 38.94 49.22C38.93 48.99 38.74 48.8 38.51 48.8Z" fill="white"/>
<path d="M38.45 49.22C38.45 49.27 38.41 49.3101 38.36 49.3101C38.31 49.3101 38.27 49.27 38.27 49.22C38.27 49.17 38.31 49.1201 38.36 49.1201C38.41 49.1201 38.45 49.17 38.45 49.22Z" fill="#C9C9C9"/>
<path d="M38.7801 49.22C38.7801 49.27 38.7401 49.3101 38.6901 49.3101C38.6401 49.3101 38.5901 49.27 38.5901 49.22C38.5901 49.17 38.6301 49.1201 38.6801 49.1201C38.7401 49.1301 38.7801 49.17 38.7801 49.22Z" fill="#D4D4D4"/>
<path d="M38.0901 52.76C38.0901 52.99 38.2801 53.1799 38.5101 53.1799V52.3301C38.2801 52.3401 38.0901 52.53 38.0901 52.76Z" fill="#F7F7F7"/>
<path d="M38.51 52.3401V53.1899H38.52C38.76 53.1899 38.94 53 38.94 52.76C38.94 52.52 38.75 52.3401 38.51 52.3401Z" fill="white"/>
<path d="M38.45 52.76C38.45 52.81 38.41 52.8501 38.36 52.8501C38.31 52.8501 38.27 52.81 38.27 52.76C38.27 52.71 38.31 52.6699 38.36 52.6699C38.41 52.6699 38.45 52.71 38.45 52.76Z" fill="#C9C9C9"/>
<path d="M38.79 52.76C38.79 52.81 38.75 52.8501 38.7 52.8501C38.65 52.8501 38.61 52.81 38.61 52.76C38.61 52.71 38.65 52.6699 38.7 52.6699C38.75 52.6699 38.79 52.71 38.79 52.76Z" fill="#D4D4D4"/>
<path d="M49.78 7.92993C46.24 5.39993 42.42 3.55007 37.3 4.32007C37.2 3.69007 37.14 3.18004 37.03 2.54004C34.47 4.06004 30.63 7.12988 30.63 7.12988C34.63 7.95988 36.29 8.43993 38.09 8.92993C37.99 8.29993 37.88 7.67004 37.78 7.04004C41.74 6.41004 45.28 6.60993 49.78 7.92993Z" fill="#C77362"/>
<path d="M53.52 49.1101C57.3 46.9501 60.58 44.25 62.01 39.27C62.63 39.44 63.12 39.6 63.73 39.77C63.42 36.81 62.23 32.04 62.23 32.04C59.81 35.33 58.68 36.6301 57.48 38.0701C58.1 38.2401 58.71 38.4101 59.33 38.5801C58.26 42.4301 56.6 45.5701 53.52 49.1101Z" fill="#C77362"/>
<path d="M13.63 31.5C13.41 35.84 13.9 40.06 17.31 43.96C16.84 44.39 16.4301 44.7099 15.9601 45.1399C18.6101 46.4799 23.27 48.0701 23.27 48.0701C21.82 44.2601 21.33 42.6001 20.77 40.8101C20.29 41.2401 19.8201 41.6701 19.3401 42.0901C16.6801 39.1001 14.93 36 13.63 31.5Z" fill="#C77362"/>
</svg>
