<svg width="38" height="29" viewBox="0 0 38 29" fill="none" xmlns="http://www.w3.org/2000/svg">
<path d="M25.5997 28.91C25.2597 28.91 24.5897 28.86 24.1097 28.36C23.5597 27.78 23.6198 26.98 23.6298 26.72C23.6698 26.22 23.6598 25.69 23.6298 25.03C23.5598 23.93 22.7798 23.11 21.7698 23.1C20.7398 23.1 19.9398 23.92 19.8798 25.05C19.8498 25.62 19.8597 26.2 19.8597 26.77V27.17C19.8597 27.69 19.7098 28.12 19.3998 28.43C19.0898 28.74 18.6698 28.9 18.1498 28.9C14.7298 28.9 11.3098 28.89 7.88977 28.9C7.38977 28.9 6.97975 28.75 6.67975 28.44C6.19975 27.96 6.19977 27.32 6.19977 26.97V25.21C6.19977 24.01 6.18978 22.8 6.20978 21.6C6.20978 21.59 6.20978 21.58 6.20978 21.57C6.18978 21.57 6.16978 21.56 6.14978 21.56C2.73978 20.99 0.369774 18.18 0.389774 14.72C0.409774 11.35 2.79977 8.60001 6.19977 8.03001C6.16977 7.32001 6.17977 6.61996 6.19977 5.90996C6.26977 2.99996 8.56976 0.720007 11.4398 0.710007C18.1798 0.690007 25.1197 0.690007 32.0497 0.710007C34.0597 0.720007 35.6497 1.69001 36.6697 3.53001C36.7897 3.76001 36.9098 3.98997 37.0198 4.22997L37.2798 4.74999V24.86L36.9697 25.46C36.5397 26.31 36.0597 27.27 35.0497 27.93C34.0297 28.59 33.0297 28.91 31.9797 28.91C31.9697 28.91 31.9598 28.91 31.9498 28.91L30.9998 28.9C29.2698 28.89 27.4697 28.88 25.7197 28.92C25.6897 28.91 25.6497 28.91 25.5997 28.91ZM25.6198 26.91C25.6298 26.91 25.6497 26.91 25.6697 26.91C27.4497 26.87 29.2598 26.88 31.0098 26.89L31.9598 26.9C32.6198 26.89 33.2598 26.69 33.9598 26.24C34.5198 25.88 34.8298 25.26 35.1898 24.55L35.2798 24.37V5.21001L35.2197 5.09001C35.1197 4.89001 35.0297 4.68998 34.9197 4.48998C34.2597 3.28998 33.3197 2.71 32.0397 2.7C25.1097 2.68 18.1798 2.67 11.4398 2.7C9.66976 2.71 8.23977 4.13 8.19977 5.95C8.17977 6.64 8.16977 7.30996 8.19977 7.96996C8.23977 8.75996 7.97979 9.75999 6.52979 9.99999C4.05979 10.41 2.39977 12.31 2.38977 14.73C2.37977 17.22 4.01974 19.17 6.47974 19.58C7.65974 19.78 8.22978 20.45 8.20978 21.63C8.18978 22.82 8.18977 24.01 8.19977 25.21V26.9C11.4298 26.9 14.6497 26.9 17.8597 26.9V26.79C17.8497 26.17 17.8498 25.56 17.8798 24.95C17.9998 22.75 19.6497 21.11 21.7397 21.11C21.7598 21.11 21.7798 21.11 21.8098 21.11C23.8598 21.14 25.4998 22.78 25.6298 24.93C25.6698 25.67 25.6798 26.29 25.6298 26.88C25.6298 26.88 25.6298 26.9 25.6198 26.91Z" fill="#F18823"/>
</svg>
