<svg width="46" height="46" viewBox="0 0 46 46" fill="none" xmlns="http://www.w3.org/2000/svg">
<path d="M27.6916 38.8535C36.1942 36.4682 41.1532 27.642 38.7679 19.1395C36.3827 10.6369 27.5564 5.67792 19.0539 8.06318C10.5513 10.4484 5.59233 19.2747 7.97759 27.7772C10.3628 36.2798 19.1891 41.2388 27.6916 38.8535Z" fill="#458EFF"/>
<path d="M27.6916 38.8535C36.1942 36.4682 41.1532 27.642 38.7679 19.1395C36.3827 10.6369 27.5564 5.67792 19.0539 8.06318C10.5513 10.4484 5.59233 19.2747 7.97759 27.7772C10.3628 36.2798 19.1891 41.2388 27.6916 38.8535Z" fill="#F15A24"/>
<path d="M32.7449 35.1268C39.6552 29.6278 40.799 19.5678 35.3 12.6575C29.8009 5.74724 19.7411 4.60324 12.8308 10.1023C5.92054 15.6014 4.77649 25.6612 10.2756 32.5715C15.7747 39.4818 25.8346 40.6259 32.7449 35.1268Z" fill="#FBB03B"/>
<path d="M34.0009 29.3801C37.7706 23.0825 35.7214 14.9213 29.4238 11.1516C23.1262 7.38182 14.9651 9.43113 11.1954 15.7287C7.42564 22.0263 9.47467 30.1875 15.7723 33.9572C22.0699 37.727 30.2311 35.6777 34.0009 29.3801Z" fill="white"/>
<path d="M16.28 32.0601L18.05 29.4399C18.1 29.4799 18.15 29.51 18.21 29.54L16.51 32.2C16.42 32.16 16.35 32.1101 16.28 32.0601ZM12.75 28.25C12.71 28.17 12.66 28.1 12.62 28.02L15.4 26.53C15.43 26.58 15.46 26.6399 15.49 26.6899L12.75 28.25ZM21.39 33.9399L21.74 30.8L21.94 30.8201L21.65 33.96C21.56 33.96 21.47 33.9499 21.39 33.9399ZM11.28 23C11.28 22.91 11.28 22.83 11.27 22.74L14.43 22.71V22.8999L11.28 23ZM26.79 33.24L25.64 30.3L25.82 30.23L27.08 33.1201L27.01 33.1499C26.95 33.1699 26.87 33.21 26.79 33.24ZM12.41 17.6799C12.45 17.5999 12.49 17.5199 12.53 17.4399L15.34 18.8701C15.31 18.9301 15.28 18.98 15.26 19.04L12.41 17.6799ZM28.88 28.01C28.92 27.97 28.96 27.9201 29 27.8701L31.44 29.8799C31.38 29.9499 31.32 30.0201 31.26 30.0901L28.88 28.01ZM17.76 16.02L15.89 13.48L16.1 13.3301L17.93 15.8999L17.76 16.02ZM30.67 24.51L30.71 24.3201L33.8 24.98C33.78 25.06 33.76 25.15 33.74 25.23L30.67 24.51ZM21.39 14.5L20.9 11.3799C20.98 11.3699 21.07 11.3501 21.15 11.3401L21.58 14.46L21.39 14.5ZM30.62 20.5701C30.6 20.5101 30.59 20.4499 30.57 20.3899L33.6 19.52C33.62 19.61 33.65 19.69 33.67 19.78L30.62 20.5701ZM25.31 14.8401L26.33 11.8501C26.42 11.8801 26.5 11.9099 26.59 11.9399L25.49 14.8999C25.43 14.8799 25.37 14.8601 25.31 14.8401ZM28.75 17.1101L28.62 16.97L30.91 14.8C30.97 14.86 31.03 14.93 31.09 14.99L28.75 17.1101Z" fill="black"/>
<path d="M22.4799 23.65C22.4599 23.65 22.4399 23.65 22.4099 23.65C22.2599 23.63 22.1199 23.54 22.0499 23.41L18.8799 17.95C18.7399 17.71 18.8199 17.4101 19.0599 17.2701C19.2999 17.1301 19.5999 17.21 19.7399 17.45L22.5899 22.3502L27.2599 17.8001C27.4599 17.6101 27.7699 17.6101 27.9699 17.8101C28.1599 18.0101 28.1599 18.3201 27.9599 18.5201L22.8299 23.5101C22.7399 23.6001 22.6099 23.65 22.4799 23.65Z" fill="black"/>
<path d="M23.4099 23.3898C23.0499 23.7998 22.4199 23.8399 22.0099 23.4799C21.5999 23.1199 21.5599 22.49 21.9199 22.08C22.2799 21.67 22.9099 21.6299 23.3199 21.9899C23.7299 22.3599 23.7699 22.9798 23.4099 23.3898Z" fill="black"/>
<g opacity="0.3">
<path d="M13.79 14.0801C19.06 8.9701 27.4701 9.09013 32.5801 14.3601C33.8401 15.6501 34.7701 17.14 35.4001 18.72C34.8101 16.74 33.75 14.8701 32.22 13.2901C27.11 8.02006 18.7 7.90003 13.43 13.01C9.46005 16.87 8.41007 22.6 10.3301 27.44C8.95007 22.84 10.1 17.6501 13.79 14.0801Z" fill="black"/>
</g>
</svg>
