<svg width="80" height="85" viewBox="0 0 80 85" fill="none" xmlns="http://www.w3.org/2000/svg">
<path d="M44.2899 59L49.3699 82.8999C49.5999 83.9899 48.4799 84.8601 47.4799 84.3701L29.7499 75.6399C28.9799 75.2599 28.7599 74.2501 29.3099 73.5901L41.9599 58.4099C42.6699 57.5699 44.0599 57.92 44.2899 59Z" fill="#F15A24"/>
<g opacity="0.3">
<path d="M44.2899 59L49.3699 82.8999C49.5999 83.9899 48.4799 84.8601 47.4799 84.3701L29.7499 75.6399C28.9799 75.2599 28.7599 74.2501 29.3099 73.5901L41.9599 58.4099C42.6699 57.5699 44.0599 57.92 44.2899 59Z" fill="#F15A24"/>
</g>
<path d="M45.4 78.88L43.43 65.22C51.88 64 59.16 58.7101 62.92 51.0601C69.18 38.3001 63.89 22.8302 51.13 16.5802C38.37 10.3202 22.9 15.6102 16.65 28.3702C13.94 33.8902 13.3 40.21 14.83 46.15L1.46998 49.6002C-0.890018 40.4702 0.100021 30.7701 4.26002 22.2901C13.87 2.70012 37.62 -5.41998 57.21 4.19002C76.8 13.8 84.92 37.55 75.31 57.14C69.54 68.88 58.36 77.01 45.4 78.88Z" fill="#F15A24"/>
<g opacity="0.3">
<path d="M45.4 78.88L43.43 65.22C51.88 64 59.16 58.7101 62.92 51.0601C69.18 38.3001 63.89 22.8302 51.13 16.5802C38.37 10.3202 22.9 15.6102 16.65 28.3702C13.94 33.8902 13.3 40.21 14.83 46.15L1.46998 49.6002C-0.890018 40.4702 0.100021 30.7701 4.26002 22.2901C13.87 2.70012 37.62 -5.41998 57.21 4.19002C76.8 13.8 84.92 37.55 75.31 57.14C69.54 68.88 58.36 77.01 45.4 78.88Z" fill="#F15A24"/>
</g>
</svg>
