<svg width="94" height="19" viewBox="0 0 94 19" fill="none" xmlns="http://www.w3.org/2000/svg">
<path d="M0.239731 7.78003C0.909731 5.26003 2.12973 3.10998 4.37973 1.66998C5.90973 0.689983 7.56973 0.140015 9.40973 0.140015C18.1097 0.150015 26.8097 0.140015 35.5097 0.140015C37.0897 0.140015 37.5697 0.64 37.5797 2.25C37.5997 4.8 37.5997 4.79999 40.1097 4.79999C51.4997 4.79999 62.8797 4.77002 74.2697 4.83002C76.4697 4.84002 78.5897 4.67002 80.6097 3.77002C81.9397 3.17002 83.1897 3.26001 84.5397 3.76001C86.9297 4.65001 89.3797 5.39001 91.7997 6.20001C93.2197 6.67001 93.4897 7.05001 93.4997 8.51001C93.4997 9.32001 93.4897 10.13 93.4997 10.94C93.5197 11.84 93.0897 12.42 92.2597 12.7C89.2597 13.71 86.2497 14.71 83.2397 15.71C82.6597 15.9 82.0797 15.85 81.5297 15.6C78.7097 14.34 75.7497 14.22 72.7197 14.24C61.4297 14.31 50.1397 14.27 38.8497 14.27C37.5697 14.27 37.5897 14.27 37.5597 15.54C37.5297 16.7 37.8897 17.98 36.7197 18.86C27.0797 18.86 17.4297 18.86 7.78972 18.86C6.75972 18.51 5.69973 18.22 4.74973 17.65C2.28973 16.19 0.929727 13.98 0.219727 11.29C0.239727 10.11 0.239731 8.94003 0.239731 7.78003ZM21.5197 3.38C17.8297 3.38 14.1397 3.39 10.4497 3.37C9.72972 3.37 9.02973 3.44 8.32973 3.56C5.25973 4.12 3.04972 7.22999 3.53972 10.3C4.06972 13.62 6.46973 15.65 9.98973 15.66C17.7597 15.68 25.5197 15.65 33.2897 15.69C34.1697 15.69 34.3797 15.39 34.3697 14.56C34.3297 11.19 34.3297 7.83002 34.3697 4.46002C34.3797 3.61002 34.1297 3.34998 33.2697 3.34998C29.3497 3.39998 25.4397 3.38 21.5197 3.38ZM58.0897 11.01C63.4897 11.01 68.8897 11.07 74.2897 10.98C76.8797 10.94 79.3797 11.11 81.7697 12.17C82.2997 12.41 82.8197 12.36 83.3697 12.17C85.3297 11.5 87.2997 10.86 89.2497 10.19C89.6197 10.06 90.1897 10.08 90.2097 9.53003C90.2297 8.96003 89.6497 8.96998 89.2897 8.84998C87.3997 8.19998 85.4797 7.59999 83.5897 6.92999C82.8797 6.67999 82.2197 6.64 81.5297 6.94C79.3897 7.88 77.1397 8.05999 74.8097 8.04999C62.9697 7.98999 51.1397 8.02003 39.2997 8.03003C37.3897 8.03003 37.5897 7.81999 37.5797 9.73999C37.5697 11 37.5797 11 38.8697 11C45.2897 11.01 51.6897 11.01 58.0897 11.01Z" fill="#F18823"/>
<path d="M18.8993 11.15C15.3093 11.15 11.7293 11.17 8.13933 11.14C6.71933 11.13 5.91933 9.77998 6.63933 8.66998C6.97933 8.13998 7.48933 7.90997 8.11933 7.90997C15.2893 7.90997 22.4693 7.90998 29.6393 7.91998C30.7293 7.91998 31.3993 8.59001 31.3793 9.57001C31.3593 10.54 30.6993 11.14 29.5693 11.15C25.9993 11.15 22.4493 11.15 18.8993 11.15Z" fill="#F18823"/>
</svg>
