<svg width="89" height="89" viewBox="0 0 89 89" fill="none" xmlns="http://www.w3.org/2000/svg">
<path d="M88.5102 47.0797C88.1302 49.1597 87.8402 51.2497 87.1702 53.2697C84.2002 62.2397 78.3602 68.5797 69.7202 72.3597C68.7202 72.7897 67.7102 73.1996 66.6402 73.4396C65.9302 73.5996 65.6902 73.9496 65.7002 74.6996C65.7402 78.5596 65.7102 82.4297 65.7202 86.2897C65.7202 87.0797 65.4202 87.6897 64.6902 88.0297C63.9302 88.3797 63.2402 88.2097 62.6302 87.6597C62.4202 87.4697 62.2202 87.2598 62.0202 87.0598C58.2302 83.2698 54.4302 79.4996 50.6802 75.6896C50.0002 74.9996 49.3102 74.7297 48.3502 74.7397C42.9402 74.7797 37.5302 74.7897 32.1202 74.7497C29.0802 74.7297 26.0802 74.4497 23.1202 73.6297C17.3602 72.0397 12.4802 69.0497 8.46021 64.6497C3.84021 59.5997 1.23022 53.6096 0.600225 46.8297C0.0402246 40.7597 1.21022 34.9797 4.13022 29.5897C4.77022 28.4097 5.76021 28.0197 6.74021 28.5397C7.67021 29.0297 7.9302 30.0597 7.3302 31.2297C5.80021 34.2097 4.73021 37.3297 4.33021 40.6697C3.63021 46.5297 4.64022 52.0797 7.53022 57.2297C10.4302 62.4097 14.6202 66.2297 20.0202 68.7097C23.4002 70.2597 26.9602 71.0497 30.6702 71.0797C37.0002 71.1397 43.3202 71.1097 49.6502 71.0897C50.7002 71.0897 51.5102 71.4197 52.2402 72.1597C55.2102 75.1797 58.2202 78.1597 61.2202 81.1497C61.4302 81.3597 61.5902 81.6597 61.9402 81.7197C62.1702 81.4297 62.0602 81.1098 62.0702 80.8098C62.0802 78.2898 62.0702 75.7697 62.0802 73.2497C62.0902 71.2797 62.4702 70.8496 64.3602 70.3196C75.5502 67.1796 82.4402 59.8797 84.5402 48.4997C86.0902 40.0897 83.7302 32.5097 78.0202 26.0797C74.1602 21.7297 69.3202 18.9797 63.6402 17.7197C61.4502 17.2297 59.2302 17.1097 56.9902 17.0797C56.5602 17.0697 56.1302 17.0998 55.7002 17.0598C54.7202 16.9698 54.0502 16.2397 54.0402 15.2997C54.0302 14.3797 54.6202 13.6397 55.5802 13.5397C57.7502 13.3097 59.9302 13.4797 62.0802 13.7697C67.6502 14.5197 72.6502 16.6697 77.0402 20.1797C81.3402 23.6097 84.4802 27.9097 86.5102 33.0197C87.5402 35.6197 88.0502 38.3396 88.5102 41.0696C88.5102 43.0696 88.5102 45.0697 88.5102 47.0797Z" fill="white"/>
<path d="M40.0603 0.169922C40.9203 0.679922 41.2103 1.43991 41.1703 2.40991C41.1203 3.77991 41.1603 5.15991 41.1603 6.52991C41.1503 8.07991 40.7803 8.59987 39.2503 8.86987C37.7403 9.12987 36.9903 10.0698 36.5803 11.4398C36.4003 12.0498 36.5403 12.3799 37.2403 12.3499C37.9003 12.3299 38.5604 12.3199 39.2104 12.3599C41.0703 12.4499 42.1603 13.5898 42.1603 15.4498C42.1703 18.0498 42.1703 20.6599 42.1603 23.2599C42.1503 25.1199 41.0403 26.2799 39.1803 26.3099C36.2003 26.3499 33.2303 26.3499 30.2503 26.3099C28.4103 26.2799 27.3003 25.0899 27.2903 23.2299C27.2803 19.9399 27.2403 16.6499 27.3203 13.3599C27.3803 10.7599 27.8803 8.23993 29.1403 5.92993C30.9303 2.63993 33.8003 0.919927 37.4103 0.299927C37.6103 0.269927 37.8003 0.219932 37.9903 0.179932C38.6803 0.169932 39.3703 0.169922 40.0603 0.169922ZM30.9503 16.8198C30.9503 18.6998 30.9603 20.2699 30.9403 21.8499C30.9303 22.4299 31.1603 22.6699 31.7503 22.6599C33.7503 22.6399 35.7503 22.6399 37.7503 22.6599C38.3103 22.6599 38.5103 22.4199 38.5103 21.8899C38.5003 20.1999 38.4903 18.5198 38.5103 16.8298C38.5203 16.2398 38.2803 16.0199 37.6903 16.0299C36.6603 16.0599 35.6303 16.0599 34.6003 16.0199C33.4103 15.9699 32.6503 15.2899 32.6303 14.1799C32.5903 12.3299 32.8803 10.5299 33.7203 8.85986C34.4203 7.45986 35.4903 6.38982 36.9604 5.81982C37.7803 5.50982 37.6803 4.86984 37.5203 4.33984C37.3303 3.69984 36.7703 4.15989 36.4403 4.25989C33.8003 5.11989 32.2603 7.01989 31.5003 9.63989C30.8103 12.0899 30.9903 14.6198 30.9503 16.8198Z" fill="white"/>
<path d="M22.5303 0.169922C23.3703 0.739922 23.6703 1.51991 23.6303 2.52991C23.5703 3.86991 23.6203 5.21982 23.6103 6.56982C23.6003 8.04982 23.1803 8.54987 21.7303 8.86987C20.1203 9.21987 19.1903 10.1898 18.9403 11.7198C18.8703 12.1698 18.9603 12.3699 19.4303 12.3599C20.1203 12.3499 20.8003 12.3399 21.4903 12.3699C23.5003 12.4399 24.6103 13.5698 24.6203 15.5698C24.6303 18.1198 24.6403 20.6698 24.6203 23.2098C24.6103 25.0998 23.4603 26.2898 21.5803 26.3198C18.6303 26.3498 15.6803 26.3498 12.7403 26.3198C10.8703 26.2998 9.7603 25.1499 9.7503 23.2899C9.7403 19.8799 9.7003 16.4798 9.7803 13.0698C9.8403 10.4698 10.4003 7.95993 11.7203 5.67993C13.5403 2.52993 16.3503 0.869937 19.8803 0.309937C20.0803 0.279937 20.2703 0.229819 20.4603 0.189819C21.1603 0.169819 21.8403 0.169922 22.5303 0.169922ZM13.3103 17.9799C13.3103 19.2699 13.3303 20.5598 13.3003 21.8398C13.2903 22.4298 13.4903 22.6599 14.0903 22.6499C16.0903 22.6299 18.1003 22.6299 20.1003 22.6499C20.7203 22.6599 20.9803 22.4499 20.9703 21.8099C20.9403 20.1499 20.9403 18.4898 20.9703 16.8298C20.9803 16.1698 20.7003 15.9899 20.0903 16.0099C19.0603 16.0399 18.0303 16.0499 17.0003 15.9999C15.8403 15.9499 15.1003 15.2798 15.1003 14.1998C15.1103 10.6198 15.8503 7.39985 19.5303 5.71985C20.1903 5.41985 20.0203 4.76991 19.8703 4.27991C19.7203 3.77991 19.2703 4.11984 18.9903 4.20984C16.1103 5.10984 14.5503 7.19991 13.8503 10.0299C13.2203 12.6499 13.3203 15.3199 13.3103 17.9799Z" fill="white"/>
<path d="M44.5203 34.22C37.7703 34.22 31.0103 34.22 24.2603 34.22C23.8303 34.22 23.4003 34.23 22.9803 34.1C22.1003 33.84 21.6103 33.22 21.6203 32.35C21.6303 31.52 22.1003 30.9001 22.9503 30.6801C23.3003 30.5901 23.6803 30.55 24.0503 30.55C37.7003 30.54 51.3503 30.54 65.0003 30.54C65.4003 30.54 65.8003 30.5599 66.1903 30.6899C66.9703 30.9699 67.4203 31.51 67.4303 32.36C67.4403 33.21 67.0003 33.76 66.2303 34.05C65.7703 34.23 65.2803 34.21 64.7902 34.21C58.0303 34.22 51.2703 34.22 44.5203 34.22Z" fill="white"/>
<path d="M44.4802 43.3499C37.5802 43.3499 30.6903 43.3499 23.7903 43.3499C22.5403 43.3499 21.7703 42.7899 21.6403 41.8299C21.5103 40.8699 22.0502 40.0399 22.9902 39.8399C23.4902 39.7299 24.0102 39.6999 24.5202 39.6999C37.8602 39.6899 51.1903 39.6899 64.5303 39.6999C65.0103 39.6999 65.5102 39.7299 65.9802 39.8199C66.9302 39.9999 67.4702 40.73 67.4302 41.66C67.3902 42.52 66.7602 43.1999 65.8602 43.3199C65.5202 43.3599 65.1703 43.3499 64.8303 43.3499C58.0403 43.3499 51.2602 43.3499 44.4802 43.3499Z" fill="white"/>
<path d="M44.5603 48.9098C51.4603 48.9098 58.3503 48.9098 65.2503 48.9098C66.5803 48.9098 67.3703 49.5298 67.4203 50.5898C67.4703 51.4798 66.9403 52.2398 66.0603 52.4198C65.5603 52.5198 65.0403 52.5599 64.5303 52.5599C51.1903 52.5699 37.8603 52.5699 24.5203 52.5599C24.0403 52.5599 23.5403 52.5297 23.0703 52.4397C22.1303 52.2697 21.5703 51.5398 21.6203 50.6098C21.6603 49.7498 22.2903 49.0597 23.1803 48.9397C23.5203 48.8997 23.8703 48.9098 24.2103 48.9098C31.0003 48.9098 37.7803 48.9098 44.5603 48.9098Z" fill="white"/>
<path d="M54.4004 58.04C57.8904 58.04 61.3803 58.04 64.8803 58.04C65.3403 58.04 65.8003 58.04 66.2403 58.21C66.9803 58.49 67.4103 59.0099 67.4303 59.8199C67.4503 60.6699 67.0304 61.23 66.2704 61.54C65.8704 61.7 65.4403 61.72 65.0003 61.72C57.9303 61.72 50.8603 61.72 43.7903 61.72C42.2403 61.72 41.4303 61.12 41.3803 59.99C41.3403 59.1 41.8003 58.4599 42.6603 58.1899C43.0803 58.0599 43.5003 58.05 43.9303 58.05C47.4203 58.04 50.9104 58.04 54.4004 58.04Z" fill="white"/>
<path d="M33.4201 58.0799C34.3701 58.0599 35.2502 58.92 35.2502 59.88C35.2502 60.8 34.4502 61.64 33.5102 61.68C32.5802 61.73 31.6602 60.87 31.6302 59.93C31.6002 58.99 32.4601 58.0999 33.4201 58.0799Z" fill="white"/>
<path d="M48.3104 13.5196C49.3004 13.5196 50.0504 14.2596 50.0704 15.2396C50.0904 16.2296 49.2704 17.0597 48.3004 17.0597C47.3204 17.0597 46.5204 16.2196 46.5404 15.2296C46.5604 14.2496 47.3204 13.5096 48.3104 13.5196Z" fill="white"/>
</svg>
